<svg width="800" height="200" viewBox="0 0 800 200" fill="none" xmlns="http://www.w3.org/2000/svg">
    <g clip-path="url(#clip0)">
        <rect width="800" height="200" fill="white"/>
        <path d="M201.599 76.4965L189.924 99.763C189.724 100.164 189.606 100.412 189.606 100.412H184.294C184.294 100.412 184.554 99.9517 184.742 99.5625L190.526 88.0413L184.294 75.6475C184.294 75.6475 184.837 75.6475 185.274 75.6475H189.606C189.606 75.6475 189.712 75.8951 189.913 76.296L193.159 82.7701L196.417 76.296C196.617 75.8951 196.719 75.6475 196.719 75.6475H202C202 75.6475 201.787 76.1074 201.599 76.4965Z" fill="#FB8200"/>
        <path d="M172.419 90.6946C175.642 89.8102 178.014 86.8621 178.038 83.3715C178.038 83.3479 178.038 83.3361 178.038 83.3126C178.038 83.289 178.038 83.2772 178.038 83.2536C178.002 79.0437 174.579 75.6475 170.365 75.6475L160.332 75.6475V80.1084C160.332 80.1084 160.367 80.1758 160.414 80.2701L162.716 83.9965L164.109 86.2489H160.934H160.344V99.8102C160.344 100.14 160.344 100.412 160.344 100.412H165.065C165.065 100.412 165.065 100.14 165.065 99.8102V90.9658H167.048L172.537 99.8456L172.856 100.4H178.404C178.404 100.4 178.12 99.8927 177.884 99.5036L172.419 90.6946ZM170.377 86.2607H169.681L169.622 86.1663L167.485 82.7111L166.033 80.3644H170.377C172.006 80.3644 173.328 81.6852 173.328 83.3126C173.328 84.9399 172.006 86.2607 170.377 86.2607Z" fill="#FB8200"/>
        <path d="M142.036 75.6475C135.189 75.6475 129.641 81.1899 129.641 88.0295C129.641 94.8691 135.189 100.412 142.036 100.412C148.882 100.412 154.43 94.8691 154.43 88.0295C154.43 81.1899 148.882 75.6475 142.036 75.6475ZM142.036 95.6946C137.798 95.6946 134.363 92.263 134.363 88.0295C134.363 83.796 137.798 80.3644 142.036 80.3644C146.273 80.3644 149.708 83.796 149.708 88.0295C149.708 92.263 146.273 95.6946 142.036 95.6946Z" fill="#FB8200"/>
        <path d="M108.135 63.1356L108.394 63L111.038 64.3266L113.671 65.6474L120.788 69.2205C120.788 69.2205 120.788 69.4917 120.788 69.928L120.788 74.4681C120.788 74.4681 120.328 74.2441 119.939 74.0554L108.406 68.2771L96.8499 74.0554C96.4604 74.2441 96 74.4681 96 74.4681L96 69.2205C96 69.2205 96.2479 69.0908 96.6492 68.8903L103.13 65.6474L105.762 64.3266L108.135 63.1356Z" fill="#FB8200"/>
        <path d="M108.654 112.864L108.394 113L105.75 111.673L103.118 110.353L96 106.78C96 106.78 96 106.508 96 106.072L96 101.532C96 101.532 96.4604 101.756 96.8499 101.945L108.382 107.723L119.939 101.945C120.328 101.756 120.788 101.532 120.788 101.532L120.788 106.78C120.788 106.78 120.541 106.909 120.139 107.11L113.659 110.353L111.027 111.673L108.654 112.864Z" fill="#FB8200"/>
        <path d="M108.394 75.6179C101.548 75.6179 96 81.1604 96 88C96 94.8396 101.548 100.382 108.394 100.382C115.241 100.382 120.788 94.8396 120.788 88C120.788 81.1604 115.241 75.6179 108.394 75.6179ZM108.394 95.6651C104.157 95.6651 100.722 92.2335 100.722 88C100.722 83.7665 104.157 80.3349 108.394 80.3349C112.632 80.3349 116.067 83.7665 116.067 88C116.067 92.2335 112.632 95.6651 108.394 95.6651Z" fill="#FB8200"/>
        <path d="M225.746 75.3008L216.184 101H212.281L221.861 75.3008H225.746ZM258.424 101H253.555L245.486 89.3633L243.008 91.3848V101H238.807V75.3008H243.008V87.5703C244.156 86.1641 245.299 84.8105 246.436 83.5098L253.379 75.3008H258.16C253.672 80.5742 250.455 84.3301 248.51 86.5684L258.424 101ZM271.256 81.207C272.088 81.207 272.773 81.2656 273.312 81.3828L272.908 85.2324C272.322 85.0918 271.713 85.0215 271.08 85.0215C269.428 85.0215 268.086 85.5605 267.055 86.6387C266.035 87.7168 265.525 89.1172 265.525 90.8398V101H261.395V81.5586H264.629L265.174 84.9863H265.385C266.029 83.8262 266.867 82.9062 267.898 82.2266C268.941 81.5469 270.061 81.207 271.256 81.207ZM289.098 101L288.271 98.293H288.131C287.193 99.4766 286.25 100.285 285.301 100.719C284.352 101.141 283.133 101.352 281.645 101.352C279.734 101.352 278.24 100.836 277.162 99.8047C276.096 98.7734 275.562 97.3145 275.562 95.4277C275.562 93.4238 276.307 91.9121 277.795 90.8926C279.283 89.873 281.551 89.3164 284.598 89.2227L287.955 89.1172V88.0801C287.955 86.8379 287.662 85.9121 287.076 85.3027C286.502 84.6816 285.605 84.3711 284.387 84.3711C283.391 84.3711 282.436 84.5176 281.521 84.8105C280.607 85.1035 279.729 85.4492 278.885 85.8477L277.549 82.8945C278.604 82.3438 279.758 81.9277 281.012 81.6465C282.266 81.3535 283.449 81.207 284.562 81.207C287.035 81.207 288.898 81.7461 290.152 82.8242C291.418 83.9023 292.051 85.5957 292.051 87.9043V101H289.098ZM282.945 98.1875C284.445 98.1875 285.646 97.7715 286.549 96.9395C287.463 96.0957 287.92 94.918 287.92 93.4062V91.7188L285.424 91.8242C283.479 91.8945 282.061 92.2227 281.17 92.8086C280.291 93.3828 279.852 94.2676 279.852 95.4629C279.852 96.3301 280.109 97.0039 280.625 97.4844C281.141 97.9531 281.914 98.1875 282.945 98.1875ZM305.059 98.0117C306.066 98.0117 307.074 97.8535 308.082 97.5371V100.648C307.625 100.848 307.033 101.012 306.307 101.141C305.592 101.281 304.848 101.352 304.074 101.352C300.16 101.352 298.203 99.2891 298.203 95.1641V84.6875H295.549V82.8594L298.396 81.3477L299.803 77.2344H302.352V81.5586H307.889V84.6875H302.352V95.0938C302.352 96.0898 302.598 96.8281 303.09 97.3086C303.594 97.7773 304.25 98.0117 305.059 98.0117ZM329.229 91.2441C329.229 94.4199 328.414 96.8984 326.785 98.6797C325.156 100.461 322.889 101.352 319.982 101.352C318.166 101.352 316.561 100.941 315.166 100.121C313.771 99.3008 312.699 98.123 311.949 96.5879C311.199 95.0527 310.824 93.2715 310.824 91.2441C310.824 88.0918 311.633 85.6309 313.25 83.8613C314.867 82.0918 317.146 81.207 320.088 81.207C322.9 81.207 325.127 82.1152 326.768 83.9316C328.408 85.7363 329.229 88.1738 329.229 91.2441ZM315.078 91.2441C315.078 95.7324 316.736 97.9766 320.053 97.9766C323.334 97.9766 324.975 95.7324 324.975 91.2441C324.975 86.8027 323.322 84.582 320.018 84.582C318.283 84.582 317.023 85.1562 316.238 86.3047C315.465 87.4531 315.078 89.0996 315.078 91.2441ZM347.053 95.4629C347.053 97.3613 346.361 98.8203 344.979 99.8398C343.596 100.848 341.615 101.352 339.037 101.352C336.447 101.352 334.367 100.959 332.797 100.174V96.6055C335.082 97.6602 337.209 98.1875 339.178 98.1875C341.721 98.1875 342.992 97.4199 342.992 95.8848C342.992 95.3926 342.852 94.9824 342.57 94.6543C342.289 94.3262 341.826 93.9863 341.182 93.6348C340.537 93.2832 339.641 92.8848 338.492 92.4395C336.254 91.5723 334.736 90.7051 333.939 89.8379C333.154 88.9707 332.762 87.8457 332.762 86.4629C332.762 84.7988 333.43 83.5098 334.766 82.5957C336.113 81.6699 337.941 81.207 340.25 81.207C342.535 81.207 344.697 81.6699 346.736 82.5957L345.4 85.707C343.303 84.8398 341.539 84.4062 340.109 84.4062C337.93 84.4062 336.84 85.0273 336.84 86.2695C336.84 86.8789 337.121 87.3945 337.684 87.8164C338.258 88.2383 339.5 88.8184 341.41 89.5566C343.016 90.1777 344.182 90.7461 344.908 91.2617C345.635 91.7773 346.174 92.375 346.525 93.0547C346.877 93.7227 347.053 94.5254 347.053 95.4629Z" fill="#FFB86C"/>
        <path d="M134.068 130.144C133.004 130.144 132.176 129.784 131.584 129.064C130.992 128.336 130.696 127.268 130.696 125.86C130.696 124.452 130.992 123.372 131.584 122.62C132.176 121.86 133.004 121.48 134.068 121.48C134.772 121.48 135.36 121.64 135.832 121.96C136.312 122.28 136.684 122.732 136.948 123.316L136.132 123.808C135.964 123.376 135.708 123.032 135.364 122.776C135.02 122.512 134.588 122.38 134.068 122.38C133.708 122.38 133.384 122.448 133.096 122.584C132.816 122.72 132.576 122.916 132.376 123.172C132.184 123.42 132.036 123.72 131.932 124.072C131.828 124.416 131.776 124.804 131.776 125.236V126.484C131.776 127.348 131.976 128.024 132.376 128.512C132.776 129 133.34 129.244 134.068 129.244C134.604 129.244 135.052 129.108 135.412 128.836C135.772 128.556 136.036 128.188 136.204 127.732L137.008 128.236C136.744 128.828 136.364 129.296 135.868 129.64C135.372 129.976 134.772 130.144 134.068 130.144ZM139.493 130C139.157 130 138.901 129.908 138.725 129.724C138.557 129.532 138.473 129.292 138.473 129.004V121.12H139.433V129.16H140.345V130H139.493ZM144.083 130.144C143.667 130.144 143.287 130.068 142.943 129.916C142.599 129.764 142.303 129.548 142.055 129.268C141.815 128.98 141.627 128.64 141.491 128.248C141.355 127.848 141.287 127.4 141.287 126.904C141.287 126.416 141.355 125.972 141.491 125.572C141.627 125.172 141.815 124.832 142.055 124.552C142.303 124.264 142.599 124.044 142.943 123.892C143.287 123.74 143.667 123.664 144.083 123.664C144.499 123.664 144.875 123.74 145.211 123.892C145.555 124.044 145.851 124.264 146.099 124.552C146.347 124.832 146.539 125.172 146.675 125.572C146.811 125.972 146.879 126.416 146.879 126.904C146.879 127.4 146.811 127.848 146.675 128.248C146.539 128.64 146.347 128.98 146.099 129.268C145.851 129.548 145.555 129.764 145.211 129.916C144.875 130.068 144.499 130.144 144.083 130.144ZM144.083 129.292C144.603 129.292 145.027 129.132 145.355 128.812C145.683 128.492 145.847 128.004 145.847 127.348V126.46C145.847 125.804 145.683 125.316 145.355 124.996C145.027 124.676 144.603 124.516 144.083 124.516C143.563 124.516 143.139 124.676 142.811 124.996C142.483 125.316 142.319 125.804 142.319 126.46V127.348C142.319 128.004 142.483 128.492 142.811 128.812C143.139 129.132 143.563 129.292 144.083 129.292ZM152.274 128.992H152.226C152.162 129.136 152.082 129.28 151.986 129.424C151.898 129.56 151.786 129.684 151.65 129.796C151.514 129.9 151.35 129.984 151.158 130.048C150.966 130.112 150.742 130.144 150.486 130.144C149.846 130.144 149.338 129.94 148.962 129.532C148.586 129.116 148.398 128.532 148.398 127.78V123.808H149.358V127.612C149.358 128.724 149.83 129.28 150.774 129.28C150.966 129.28 151.15 129.256 151.326 129.208C151.51 129.16 151.67 129.088 151.806 128.992C151.95 128.896 152.062 128.776 152.142 128.632C152.23 128.48 152.274 128.3 152.274 128.092V123.808H153.234V130H152.274V128.992ZM159.238 128.992H159.19C158.814 129.76 158.21 130.144 157.378 130.144C156.994 130.144 156.646 130.068 156.334 129.916C156.022 129.764 155.754 129.548 155.53 129.268C155.314 128.988 155.146 128.648 155.026 128.248C154.914 127.848 154.858 127.4 154.858 126.904C154.858 126.408 154.914 125.96 155.026 125.56C155.146 125.16 155.314 124.82 155.53 124.54C155.754 124.26 156.022 124.044 156.334 123.892C156.646 123.74 156.994 123.664 157.378 123.664C157.81 123.664 158.178 123.76 158.482 123.952C158.794 124.136 159.03 124.424 159.19 124.816H159.238V121.12H160.198V130H159.238V128.992ZM157.642 129.28C157.858 129.28 158.062 129.252 158.254 129.196C158.454 129.14 158.626 129.06 158.77 128.956C158.914 128.844 159.026 128.712 159.106 128.56C159.194 128.4 159.238 128.22 159.238 128.02V125.716C159.238 125.548 159.194 125.392 159.106 125.248C159.026 125.096 158.914 124.968 158.77 124.864C158.626 124.76 158.454 124.68 158.254 124.624C158.062 124.56 157.858 124.528 157.642 124.528C157.098 124.528 156.67 124.7 156.358 125.044C156.046 125.38 155.89 125.824 155.89 126.376V127.432C155.89 127.984 156.046 128.432 156.358 128.776C156.67 129.112 157.098 129.28 157.642 129.28ZM165.075 130V123.808H166.035V124.816H166.083C166.235 124.464 166.447 124.184 166.719 123.976C166.999 123.768 167.371 123.664 167.835 123.664C168.475 123.664 168.979 123.872 169.347 124.288C169.723 124.696 169.911 125.276 169.911 126.028V130H168.951V126.196C168.951 125.084 168.483 124.528 167.547 124.528C167.355 124.528 167.167 124.552 166.983 124.6C166.807 124.648 166.647 124.72 166.503 124.816C166.359 124.912 166.243 125.036 166.155 125.188C166.075 125.332 166.035 125.504 166.035 125.704V130H165.075ZM176.395 130C176.035 130 175.775 129.904 175.615 129.712C175.463 129.52 175.367 129.28 175.327 128.992H175.267C175.131 129.376 174.907 129.664 174.595 129.856C174.283 130.048 173.911 130.144 173.479 130.144C172.823 130.144 172.311 129.976 171.943 129.64C171.583 129.304 171.403 128.848 171.403 128.272C171.403 127.688 171.615 127.24 172.039 126.928C172.471 126.616 173.139 126.46 174.043 126.46H175.267V125.848C175.267 125.408 175.147 125.072 174.907 124.84C174.667 124.608 174.299 124.492 173.803 124.492C173.427 124.492 173.111 124.576 172.855 124.744C172.607 124.912 172.399 125.136 172.231 125.416L171.655 124.876C171.823 124.54 172.091 124.256 172.459 124.024C172.827 123.784 173.291 123.664 173.851 123.664C174.603 123.664 175.187 123.848 175.603 124.216C176.019 124.584 176.227 125.096 176.227 125.752V129.16H176.935V130H176.395ZM173.635 129.328C173.875 129.328 174.095 129.3 174.295 129.244C174.495 129.188 174.667 129.108 174.811 129.004C174.955 128.9 175.067 128.78 175.147 128.644C175.227 128.508 175.267 128.36 175.267 128.2V127.18H173.995C173.443 127.18 173.039 127.26 172.783 127.42C172.535 127.58 172.411 127.812 172.411 128.116V128.368C172.411 128.672 172.519 128.908 172.735 129.076C172.959 129.244 173.259 129.328 173.635 129.328ZM179.673 130C179.337 130 179.081 129.908 178.905 129.724C178.737 129.532 178.653 129.284 178.653 128.98V124.648H177.633V123.808H178.209C178.417 123.808 178.557 123.768 178.629 123.688C178.709 123.6 178.749 123.452 178.749 123.244V122.092H179.613V123.808H180.969V124.648H179.613V129.16H180.873V130H179.673ZM182.992 122.356C182.784 122.356 182.632 122.308 182.536 122.212C182.448 122.108 182.404 121.976 182.404 121.816V121.66C182.404 121.5 182.448 121.372 182.536 121.276C182.632 121.172 182.784 121.12 182.992 121.12C183.2 121.12 183.348 121.172 183.436 121.276C183.532 121.372 183.58 121.5 183.58 121.66V121.816C183.58 121.976 183.532 122.108 183.436 122.212C183.348 122.308 183.2 122.356 182.992 122.356ZM182.512 123.808H183.472V130H182.512V123.808ZM186.88 130L184.708 123.808H185.668L186.748 126.88L187.42 128.992H187.48L188.152 126.88L189.256 123.808H190.18L187.996 130H186.88ZM193.653 130.144C193.229 130.144 192.845 130.068 192.501 129.916C192.165 129.764 191.873 129.548 191.625 129.268C191.385 128.98 191.197 128.64 191.061 128.248C190.933 127.848 190.869 127.4 190.869 126.904C190.869 126.416 190.933 125.972 191.061 125.572C191.197 125.172 191.385 124.832 191.625 124.552C191.873 124.264 192.165 124.044 192.501 123.892C192.845 123.74 193.229 123.664 193.653 123.664C194.069 123.664 194.441 123.74 194.769 123.892C195.097 124.044 195.377 124.256 195.609 124.528C195.841 124.792 196.017 125.108 196.137 125.476C196.265 125.844 196.329 126.248 196.329 126.688V127.144H191.877V127.432C191.877 127.696 191.917 127.944 191.997 128.176C192.085 128.4 192.205 128.596 192.357 128.764C192.517 128.932 192.709 129.064 192.933 129.16C193.165 129.256 193.425 129.304 193.713 129.304C194.105 129.304 194.445 129.212 194.733 129.028C195.029 128.844 195.257 128.58 195.417 128.236L196.101 128.728C195.901 129.152 195.589 129.496 195.165 129.76C194.741 130.016 194.237 130.144 193.653 130.144ZM193.653 124.468C193.389 124.468 193.149 124.516 192.933 124.612C192.717 124.7 192.529 124.828 192.369 124.996C192.217 125.164 192.097 125.364 192.009 125.596C191.921 125.82 191.877 126.068 191.877 126.34V126.424H195.297V126.292C195.297 125.74 195.145 125.3 194.841 124.972C194.545 124.636 194.149 124.468 193.653 124.468ZM200.447 130V129.16H201.623V122.464H200.447V121.624H203.807V122.464H202.631V129.16H203.807V130H200.447ZM209.453 128.992H209.405C209.029 129.76 208.425 130.144 207.593 130.144C207.209 130.144 206.861 130.068 206.549 129.916C206.237 129.764 205.969 129.548 205.745 129.268C205.529 128.988 205.361 128.648 205.241 128.248C205.129 127.848 205.073 127.4 205.073 126.904C205.073 126.408 205.129 125.96 205.241 125.56C205.361 125.16 205.529 124.82 205.745 124.54C205.969 124.26 206.237 124.044 206.549 123.892C206.861 123.74 207.209 123.664 207.593 123.664C208.025 123.664 208.393 123.76 208.697 123.952C209.009 124.136 209.245 124.424 209.405 124.816H209.453V121.12H210.413V130H209.453V128.992ZM207.857 129.28C208.073 129.28 208.277 129.252 208.469 129.196C208.669 129.14 208.841 129.06 208.985 128.956C209.129 128.844 209.241 128.712 209.321 128.56C209.409 128.4 209.453 128.22 209.453 128.02V125.716C209.453 125.548 209.409 125.392 209.321 125.248C209.241 125.096 209.129 124.968 208.985 124.864C208.841 124.76 208.669 124.68 208.469 124.624C208.277 124.56 208.073 124.528 207.857 124.528C207.313 124.528 206.885 124.7 206.573 125.044C206.261 125.38 206.105 125.824 206.105 126.376V127.432C206.105 127.984 206.261 128.432 206.573 128.776C206.885 129.112 207.313 129.28 207.857 129.28ZM214.782 130.144C214.358 130.144 213.974 130.068 213.63 129.916C213.294 129.764 213.002 129.548 212.754 129.268C212.514 128.98 212.326 128.64 212.19 128.248C212.062 127.848 211.998 127.4 211.998 126.904C211.998 126.416 212.062 125.972 212.19 125.572C212.326 125.172 212.514 124.832 212.754 124.552C213.002 124.264 213.294 124.044 213.63 123.892C213.974 123.74 214.358 123.664 214.782 123.664C215.198 123.664 215.57 123.74 215.898 123.892C216.226 124.044 216.506 124.256 216.738 124.528C216.97 124.792 217.146 125.108 217.266 125.476C217.394 125.844 217.458 126.248 217.458 126.688V127.144H213.006V127.432C213.006 127.696 213.046 127.944 213.126 128.176C213.214 128.4 213.334 128.596 213.486 128.764C213.646 128.932 213.838 129.064 214.062 129.16C214.294 129.256 214.554 129.304 214.842 129.304C215.234 129.304 215.574 129.212 215.862 129.028C216.158 128.844 216.386 128.58 216.546 128.236L217.23 128.728C217.03 129.152 216.718 129.496 216.294 129.76C215.87 130.016 215.366 130.144 214.782 130.144ZM214.782 124.468C214.518 124.468 214.278 124.516 214.062 124.612C213.846 124.7 213.658 124.828 213.498 124.996C213.346 125.164 213.226 125.364 213.138 125.596C213.05 125.82 213.006 126.068 213.006 126.34V126.424H216.426V126.292C216.426 125.74 216.274 125.3 215.97 124.972C215.674 124.636 215.278 124.468 214.782 124.468ZM219.04 130V123.808H220V124.816H220.048C220.2 124.464 220.412 124.184 220.684 123.976C220.964 123.768 221.336 123.664 221.8 123.664C222.44 123.664 222.944 123.872 223.312 124.288C223.688 124.696 223.876 125.276 223.876 126.028V130H222.916V126.196C222.916 125.084 222.448 124.528 221.512 124.528C221.32 124.528 221.132 124.552 220.948 124.6C220.772 124.648 220.612 124.72 220.468 124.816C220.324 124.912 220.208 125.036 220.12 125.188C220.04 125.332 220 125.504 220 125.704V130H219.04ZM227.228 130C226.892 130 226.636 129.908 226.46 129.724C226.292 129.532 226.208 129.284 226.208 128.98V124.648H225.188V123.808H225.764C225.972 123.808 226.112 123.768 226.184 123.688C226.264 123.6 226.304 123.452 226.304 123.244V122.092H227.168V123.808H228.524V124.648H227.168V129.16H228.428V130H227.228ZM230.547 122.356C230.339 122.356 230.187 122.308 230.091 122.212C230.003 122.108 229.959 121.976 229.959 121.816V121.66C229.959 121.5 230.003 121.372 230.091 121.276C230.187 121.172 230.339 121.12 230.547 121.12C230.755 121.12 230.903 121.172 230.991 121.276C231.087 121.372 231.135 121.5 231.135 121.66V121.816C231.135 121.976 231.087 122.108 230.991 122.212C230.903 122.308 230.755 122.356 230.547 122.356ZM230.067 123.808H231.027V130H230.067V123.808ZM234.435 130C234.099 130 233.843 129.908 233.667 129.724C233.499 129.532 233.415 129.284 233.415 128.98V124.648H232.395V123.808H232.971C233.179 123.808 233.319 123.768 233.391 123.688C233.471 123.6 233.511 123.452 233.511 123.244V122.092H234.375V123.808H235.731V124.648H234.375V129.16H235.635V130H234.435ZM241.09 123.808H242.038L239.266 131.44C239.194 131.624 239.122 131.776 239.05 131.896C238.978 132.024 238.89 132.124 238.786 132.196C238.682 132.268 238.55 132.32 238.39 132.352C238.238 132.384 238.05 132.4 237.826 132.4H237.334V131.56H238.306L238.774 130.24L236.458 123.808H237.418L238.906 128.02L239.194 129.028H239.254L239.59 128.02L241.09 123.808ZM250.598 130C250.238 130 249.978 129.904 249.818 129.712C249.666 129.52 249.57 129.28 249.53 128.992H249.47C249.334 129.376 249.11 129.664 248.798 129.856C248.486 130.048 248.114 130.144 247.682 130.144C247.026 130.144 246.514 129.976 246.146 129.64C245.786 129.304 245.606 128.848 245.606 128.272C245.606 127.688 245.818 127.24 246.242 126.928C246.674 126.616 247.342 126.46 248.246 126.46H249.47V125.848C249.47 125.408 249.35 125.072 249.11 124.84C248.87 124.608 248.502 124.492 248.006 124.492C247.63 124.492 247.314 124.576 247.058 124.744C246.81 124.912 246.602 125.136 246.434 125.416L245.858 124.876C246.026 124.54 246.294 124.256 246.662 124.024C247.03 123.784 247.494 123.664 248.054 123.664C248.806 123.664 249.39 123.848 249.806 124.216C250.222 124.584 250.43 125.096 250.43 125.752V129.16H251.138V130H250.598ZM247.838 129.328C248.078 129.328 248.298 129.3 248.498 129.244C248.698 129.188 248.87 129.108 249.014 129.004C249.158 128.9 249.27 128.78 249.35 128.644C249.43 128.508 249.47 128.36 249.47 128.2V127.18H248.198C247.646 127.18 247.242 127.26 246.986 127.42C246.738 127.58 246.614 127.812 246.614 128.116V128.368C246.614 128.672 246.722 128.908 246.938 129.076C247.162 129.244 247.462 129.328 247.838 129.328ZM252.508 130V123.808H253.468V124.816H253.516C253.668 124.464 253.88 124.184 254.152 123.976C254.432 123.768 254.804 123.664 255.268 123.664C255.908 123.664 256.412 123.872 256.78 124.288C257.156 124.696 257.344 125.276 257.344 126.028V130H256.384V126.196C256.384 125.084 255.916 124.528 254.98 124.528C254.788 124.528 254.6 124.552 254.416 124.6C254.24 124.648 254.08 124.72 253.936 124.816C253.792 124.912 253.676 125.036 253.588 125.188C253.508 125.332 253.468 125.504 253.468 125.704V130H252.508ZM263.289 128.992H263.241C262.865 129.76 262.261 130.144 261.429 130.144C261.045 130.144 260.697 130.068 260.385 129.916C260.073 129.764 259.805 129.548 259.581 129.268C259.365 128.988 259.197 128.648 259.077 128.248C258.965 127.848 258.909 127.4 258.909 126.904C258.909 126.408 258.965 125.96 259.077 125.56C259.197 125.16 259.365 124.82 259.581 124.54C259.805 124.26 260.073 124.044 260.385 123.892C260.697 123.74 261.045 123.664 261.429 123.664C261.861 123.664 262.229 123.76 262.533 123.952C262.845 124.136 263.081 124.424 263.241 124.816H263.289V121.12H264.249V130H263.289V128.992ZM261.693 129.28C261.909 129.28 262.113 129.252 262.305 129.196C262.505 129.14 262.677 129.06 262.821 128.956C262.965 128.844 263.077 128.712 263.157 128.56C263.245 128.4 263.289 128.22 263.289 128.02V125.716C263.289 125.548 263.245 125.392 263.157 125.248C263.077 125.096 262.965 124.968 262.821 124.864C262.677 124.76 262.505 124.68 262.305 124.624C262.113 124.56 261.909 124.528 261.693 124.528C261.149 124.528 260.721 124.7 260.409 125.044C260.097 125.38 259.941 125.824 259.941 126.376V127.432C259.941 127.984 260.097 128.432 260.409 128.776C260.721 129.112 261.149 129.28 261.693 129.28ZM270.169 121.624V126.808C270.169 127.608 270.317 128.216 270.613 128.632C270.909 129.04 271.429 129.244 272.173 129.244C272.917 129.244 273.437 129.04 273.733 128.632C274.029 128.216 274.177 127.608 274.177 126.808V121.624H275.185V126.568C275.185 127.176 275.129 127.704 275.017 128.152C274.913 128.6 274.741 128.972 274.501 129.268C274.261 129.564 273.945 129.784 273.553 129.928C273.169 130.072 272.697 130.144 272.137 130.144C271.577 130.144 271.105 130.072 270.721 129.928C270.345 129.784 270.041 129.564 269.809 129.268C269.577 128.972 269.409 128.6 269.305 128.152C269.209 127.704 269.161 127.176 269.161 126.568V121.624H270.169ZM279.118 130.144C278.542 130.144 278.058 130.036 277.666 129.82C277.282 129.596 276.95 129.3 276.67 128.932L277.354 128.38C277.594 128.684 277.862 128.92 278.158 129.088C278.454 129.248 278.798 129.328 279.19 129.328C279.598 129.328 279.914 129.24 280.138 129.064C280.37 128.888 280.486 128.64 280.486 128.32C280.486 128.08 280.406 127.876 280.246 127.708C280.094 127.532 279.814 127.412 279.406 127.348L278.914 127.276C278.626 127.236 278.362 127.176 278.122 127.096C277.882 127.008 277.67 126.896 277.486 126.76C277.31 126.616 277.17 126.44 277.066 126.232C276.97 126.024 276.922 125.776 276.922 125.488C276.922 125.184 276.978 124.92 277.09 124.696C277.202 124.464 277.354 124.272 277.546 124.12C277.746 123.968 277.982 123.856 278.254 123.784C278.526 123.704 278.818 123.664 279.13 123.664C279.634 123.664 280.054 123.752 280.39 123.928C280.734 124.104 281.034 124.348 281.29 124.66L280.654 125.236C280.518 125.044 280.318 124.872 280.054 124.72C279.79 124.56 279.458 124.48 279.058 124.48C278.658 124.48 278.354 124.568 278.146 124.744C277.946 124.912 277.846 125.144 277.846 125.44C277.846 125.744 277.946 125.964 278.146 126.1C278.354 126.236 278.65 126.336 279.034 126.4L279.514 126.472C280.202 126.576 280.69 126.776 280.978 127.072C281.266 127.36 281.41 127.74 281.41 128.212C281.41 128.812 281.206 129.284 280.798 129.628C280.39 129.972 279.83 130.144 279.118 130.144ZM285.434 130.144C285.01 130.144 284.626 130.068 284.282 129.916C283.946 129.764 283.654 129.548 283.406 129.268C283.166 128.98 282.978 128.64 282.842 128.248C282.714 127.848 282.65 127.4 282.65 126.904C282.65 126.416 282.714 125.972 282.842 125.572C282.978 125.172 283.166 124.832 283.406 124.552C283.654 124.264 283.946 124.044 284.282 123.892C284.626 123.74 285.01 123.664 285.434 123.664C285.85 123.664 286.222 123.74 286.55 123.892C286.878 124.044 287.158 124.256 287.39 124.528C287.622 124.792 287.798 125.108 287.918 125.476C288.046 125.844 288.11 126.248 288.11 126.688V127.144H283.658V127.432C283.658 127.696 283.698 127.944 283.778 128.176C283.866 128.4 283.986 128.596 284.138 128.764C284.298 128.932 284.49 129.064 284.714 129.16C284.946 129.256 285.206 129.304 285.494 129.304C285.886 129.304 286.226 129.212 286.514 129.028C286.81 128.844 287.038 128.58 287.198 128.236L287.882 128.728C287.682 129.152 287.37 129.496 286.946 129.76C286.522 130.016 286.018 130.144 285.434 130.144ZM285.434 124.468C285.17 124.468 284.93 124.516 284.714 124.612C284.498 124.7 284.31 124.828 284.15 124.996C283.998 125.164 283.878 125.364 283.79 125.596C283.702 125.82 283.658 126.068 283.658 126.34V126.424H287.078V126.292C287.078 125.74 286.926 125.3 286.622 124.972C286.326 124.636 285.93 124.468 285.434 124.468ZM289.692 130V123.808H290.652V124.948H290.712C290.824 124.652 291.024 124.388 291.312 124.156C291.6 123.924 291.996 123.808 292.5 123.808H292.872V124.768H292.308C291.788 124.768 291.38 124.868 291.084 125.068C290.796 125.26 290.652 125.504 290.652 125.8V130H289.692ZM303.558 122.944H303.498L302.79 124.348L300.786 127.996L298.782 124.348L298.074 122.944H298.014V130H297.03V121.624H298.374L300.774 126.136H300.834L303.246 121.624H304.542V130H303.558V122.944ZM311.172 130C310.812 130 310.552 129.904 310.392 129.712C310.24 129.52 310.144 129.28 310.104 128.992H310.044C309.908 129.376 309.684 129.664 309.372 129.856C309.06 130.048 308.688 130.144 308.256 130.144C307.6 130.144 307.088 129.976 306.72 129.64C306.36 129.304 306.18 128.848 306.18 128.272C306.18 127.688 306.392 127.24 306.816 126.928C307.248 126.616 307.916 126.46 308.82 126.46H310.044V125.848C310.044 125.408 309.924 125.072 309.684 124.84C309.444 124.608 309.076 124.492 308.58 124.492C308.204 124.492 307.888 124.576 307.632 124.744C307.384 124.912 307.176 125.136 307.008 125.416L306.432 124.876C306.6 124.54 306.868 124.256 307.236 124.024C307.604 123.784 308.068 123.664 308.628 123.664C309.38 123.664 309.964 123.848 310.38 124.216C310.796 124.584 311.004 125.096 311.004 125.752V129.16H311.712V130H311.172ZM308.412 129.328C308.652 129.328 308.872 129.3 309.072 129.244C309.272 129.188 309.444 129.108 309.588 129.004C309.732 128.9 309.844 128.78 309.924 128.644C310.004 128.508 310.044 128.36 310.044 128.2V127.18H308.772C308.22 127.18 307.816 127.26 307.56 127.42C307.312 127.58 307.188 127.812 307.188 128.116V128.368C307.188 128.672 307.296 128.908 307.512 129.076C307.736 129.244 308.036 129.328 308.412 129.328ZM313.083 130V123.808H314.043V124.816H314.091C314.243 124.464 314.455 124.184 314.727 123.976C315.007 123.768 315.379 123.664 315.843 123.664C316.483 123.664 316.987 123.872 317.355 124.288C317.731 124.696 317.919 125.276 317.919 126.028V130H316.959V126.196C316.959 125.084 316.491 124.528 315.555 124.528C315.363 124.528 315.175 124.552 314.991 124.6C314.815 124.648 314.655 124.72 314.511 124.816C314.367 124.912 314.251 125.036 314.163 125.188C314.083 125.332 314.043 125.504 314.043 125.704V130H313.083ZM324.403 130C324.043 130 323.783 129.904 323.623 129.712C323.471 129.52 323.375 129.28 323.335 128.992H323.275C323.139 129.376 322.915 129.664 322.603 129.856C322.291 130.048 321.919 130.144 321.487 130.144C320.831 130.144 320.319 129.976 319.951 129.64C319.591 129.304 319.411 128.848 319.411 128.272C319.411 127.688 319.623 127.24 320.047 126.928C320.479 126.616 321.147 126.46 322.051 126.46H323.275V125.848C323.275 125.408 323.155 125.072 322.915 124.84C322.675 124.608 322.307 124.492 321.811 124.492C321.435 124.492 321.119 124.576 320.863 124.744C320.615 124.912 320.407 125.136 320.239 125.416L319.663 124.876C319.831 124.54 320.099 124.256 320.467 124.024C320.835 123.784 321.299 123.664 321.859 123.664C322.611 123.664 323.195 123.848 323.611 124.216C324.027 124.584 324.235 125.096 324.235 125.752V129.16H324.943V130H324.403ZM321.643 129.328C321.883 129.328 322.103 129.3 322.303 129.244C322.503 129.188 322.675 129.108 322.819 129.004C322.963 128.9 323.075 128.78 323.155 128.644C323.235 128.508 323.275 128.36 323.275 128.2V127.18H322.003C321.451 127.18 321.047 127.26 320.791 127.42C320.543 127.58 320.419 127.812 320.419 128.116V128.368C320.419 128.672 320.527 128.908 320.743 129.076C320.967 129.244 321.267 129.328 321.643 129.328ZM331.533 130.684C331.533 131.324 331.281 131.792 330.777 132.088C330.281 132.392 329.533 132.544 328.533 132.544C327.565 132.544 326.869 132.412 326.445 132.148C326.021 131.884 325.809 131.508 325.809 131.02C325.809 130.684 325.897 130.42 326.073 130.228C326.249 130.044 326.489 129.908 326.793 129.82V129.688C326.425 129.512 326.241 129.224 326.241 128.824C326.241 128.512 326.341 128.276 326.541 128.116C326.741 127.948 326.997 127.824 327.309 127.744V127.696C326.941 127.52 326.653 127.268 326.445 126.94C326.245 126.612 326.145 126.232 326.145 125.8C326.145 125.488 326.201 125.2 326.313 124.936C326.425 124.672 326.581 124.448 326.781 124.264C326.989 124.072 327.233 123.924 327.513 123.82C327.801 123.716 328.121 123.664 328.473 123.664C328.913 123.664 329.305 123.744 329.649 123.904V123.796C329.649 123.556 329.705 123.36 329.817 123.208C329.929 123.048 330.113 122.968 330.369 122.968H331.293V123.808H330.117V124.204C330.341 124.396 330.513 124.628 330.633 124.9C330.761 125.164 330.825 125.464 330.825 125.8C330.825 126.112 330.769 126.4 330.657 126.664C330.545 126.928 330.385 127.156 330.177 127.348C329.977 127.532 329.733 127.676 329.445 127.78C329.157 127.884 328.837 127.936 328.485 127.936C328.285 127.936 328.085 127.916 327.885 127.876C327.677 127.932 327.489 128.016 327.321 128.128C327.153 128.232 327.069 128.38 327.069 128.572C327.069 128.756 327.157 128.88 327.333 128.944C327.509 129.008 327.737 129.04 328.017 129.04H329.337C330.105 129.04 330.661 129.188 331.005 129.484C331.357 129.772 331.533 130.172 331.533 130.684ZM330.633 130.756C330.633 130.508 330.537 130.308 330.345 130.156C330.161 130.012 329.829 129.94 329.349 129.94H327.285C326.901 130.116 326.709 130.396 326.709 130.78C326.709 131.052 326.809 131.284 327.009 131.476C327.217 131.668 327.565 131.764 328.053 131.764H328.941C329.477 131.764 329.893 131.68 330.189 131.512C330.485 131.344 330.633 131.092 330.633 130.756ZM328.485 127.168C328.893 127.168 329.217 127.072 329.457 126.88C329.697 126.68 329.817 126.376 329.817 125.968V125.632C329.817 125.224 329.697 124.924 329.457 124.732C329.217 124.532 328.893 124.432 328.485 124.432C328.077 124.432 327.753 124.532 327.513 124.732C327.273 124.924 327.153 125.224 327.153 125.632V125.968C327.153 126.376 327.273 126.68 327.513 126.88C327.753 127.072 328.077 127.168 328.485 127.168ZM334.911 130.144C334.487 130.144 334.103 130.068 333.759 129.916C333.423 129.764 333.131 129.548 332.883 129.268C332.643 128.98 332.455 128.64 332.319 128.248C332.191 127.848 332.127 127.4 332.127 126.904C332.127 126.416 332.191 125.972 332.319 125.572C332.455 125.172 332.643 124.832 332.883 124.552C333.131 124.264 333.423 124.044 333.759 123.892C334.103 123.74 334.487 123.664 334.911 123.664C335.327 123.664 335.699 123.74 336.027 123.892C336.355 124.044 336.635 124.256 336.867 124.528C337.099 124.792 337.275 125.108 337.395 125.476C337.523 125.844 337.587 126.248 337.587 126.688V127.144H333.135V127.432C333.135 127.696 333.175 127.944 333.255 128.176C333.343 128.4 333.463 128.596 333.615 128.764C333.775 128.932 333.967 129.064 334.191 129.16C334.423 129.256 334.683 129.304 334.971 129.304C335.363 129.304 335.703 129.212 335.991 129.028C336.287 128.844 336.515 128.58 336.675 128.236L337.359 128.728C337.159 129.152 336.847 129.496 336.423 129.76C335.999 130.016 335.495 130.144 334.911 130.144ZM334.911 124.468C334.647 124.468 334.407 124.516 334.191 124.612C333.975 124.7 333.787 124.828 333.627 124.996C333.475 125.164 333.355 125.364 333.267 125.596C333.179 125.82 333.135 126.068 333.135 126.34V126.424H336.555V126.292C336.555 125.74 336.403 125.3 336.099 124.972C335.803 124.636 335.407 124.468 334.911 124.468ZM339.168 130V123.808H340.128V124.816H340.176C340.248 124.656 340.328 124.508 340.416 124.372C340.512 124.228 340.624 124.104 340.752 124C340.888 123.896 341.044 123.816 341.22 123.76C341.396 123.696 341.604 123.664 341.844 123.664C342.252 123.664 342.628 123.764 342.972 123.964C343.316 124.156 343.572 124.476 343.74 124.924H343.764C343.876 124.588 344.084 124.296 344.388 124.048C344.7 123.792 345.12 123.664 345.648 123.664C346.28 123.664 346.772 123.872 347.124 124.288C347.484 124.696 347.664 125.276 347.664 126.028V130H346.704V126.196C346.704 125.644 346.596 125.228 346.38 124.948C346.164 124.668 345.82 124.528 345.348 124.528C345.156 124.528 344.972 124.552 344.796 124.6C344.628 124.648 344.476 124.72 344.34 124.816C344.204 124.912 344.096 125.036 344.016 125.188C343.936 125.332 343.896 125.504 343.896 125.704V130H342.936V126.196C342.936 125.644 342.828 125.228 342.612 124.948C342.396 124.668 342.06 124.528 341.604 124.528C341.412 124.528 341.228 124.552 341.052 124.6C340.876 124.648 340.72 124.72 340.584 124.816C340.448 124.912 340.336 125.036 340.248 125.188C340.168 125.332 340.128 125.504 340.128 125.704V130H339.168ZM351.973 130.144C351.549 130.144 351.165 130.068 350.821 129.916C350.485 129.764 350.193 129.548 349.945 129.268C349.705 128.98 349.517 128.64 349.381 128.248C349.253 127.848 349.189 127.4 349.189 126.904C349.189 126.416 349.253 125.972 349.381 125.572C349.517 125.172 349.705 124.832 349.945 124.552C350.193 124.264 350.485 124.044 350.821 123.892C351.165 123.74 351.549 123.664 351.973 123.664C352.389 123.664 352.761 123.74 353.089 123.892C353.417 124.044 353.697 124.256 353.929 124.528C354.161 124.792 354.337 125.108 354.457 125.476C354.585 125.844 354.649 126.248 354.649 126.688V127.144H350.197V127.432C350.197 127.696 350.237 127.944 350.317 128.176C350.405 128.4 350.525 128.596 350.677 128.764C350.837 128.932 351.029 129.064 351.253 129.16C351.485 129.256 351.745 129.304 352.033 129.304C352.425 129.304 352.765 129.212 353.053 129.028C353.349 128.844 353.577 128.58 353.737 128.236L354.421 128.728C354.221 129.152 353.909 129.496 353.485 129.76C353.061 130.016 352.557 130.144 351.973 130.144ZM351.973 124.468C351.709 124.468 351.469 124.516 351.253 124.612C351.037 124.7 350.849 124.828 350.689 124.996C350.537 125.164 350.417 125.364 350.329 125.596C350.241 125.82 350.197 126.068 350.197 126.34V126.424H353.617V126.292C353.617 125.74 353.465 125.3 353.161 124.972C352.865 124.636 352.469 124.468 351.973 124.468ZM356.231 130V123.808H357.191V124.816H357.239C357.391 124.464 357.603 124.184 357.875 123.976C358.155 123.768 358.527 123.664 358.991 123.664C359.631 123.664 360.135 123.872 360.503 124.288C360.879 124.696 361.067 125.276 361.067 126.028V130H360.107V126.196C360.107 125.084 359.639 124.528 358.703 124.528C358.511 124.528 358.323 124.552 358.139 124.6C357.963 124.648 357.803 124.72 357.659 124.816C357.515 124.912 357.399 125.036 357.311 125.188C357.231 125.332 357.191 125.504 357.191 125.704V130H356.231ZM364.419 130C364.083 130 363.827 129.908 363.651 129.724C363.483 129.532 363.399 129.284 363.399 128.98V124.648H362.379V123.808H362.955C363.163 123.808 363.303 123.768 363.375 123.688C363.455 123.6 363.495 123.452 363.495 123.244V122.092H364.359V123.808H365.715V124.648H364.359V129.16H365.619V130H364.419Z" fill="#002E1D"/>
        <line opacity="0.5" x1="702" y1="214.322" x2="702" y2="-15.6778" stroke="#FFB86C" stroke-width="4"/>
    </g>
    <defs>
        <clipPath id="clip0">
            <rect width="800" height="200" fill="white"/>
        </clipPath>
    </defs>
</svg>
