<svg width="800" height="200" viewBox="0 0 800 200" fill="none" xmlns="http://www.w3.org/2000/svg">
    <g clip-path="url(#clip0)">
        <rect width="800" height="200" fill="white"/>
        <path d="M201.599 76.4965L189.924 99.763C189.724 100.164 189.606 100.412 189.606 100.412H184.294C184.294 100.412 184.554 99.9517 184.742 99.5625L190.526 88.0413L184.294 75.6475C184.294 75.6475 184.837 75.6475 185.274 75.6475H189.606C189.606 75.6475 189.712 75.8951 189.913 76.296L193.159 82.7701L196.417 76.296C196.617 75.8951 196.719 75.6475 196.719 75.6475H202C202 75.6475 201.787 76.1074 201.599 76.4965Z" fill="#DB2B56"/>
        <path d="M172.419 90.6946C175.642 89.8102 178.014 86.8621 178.038 83.3715C178.038 83.3479 178.038 83.3361 178.038 83.3126C178.038 83.289 178.038 83.2772 178.038 83.2536C178.002 79.0437 174.579 75.6475 170.365 75.6475L160.332 75.6475V80.1084C160.332 80.1084 160.367 80.1758 160.414 80.2701L162.716 83.9965L164.109 86.2489H160.934H160.344V99.8102C160.344 100.14 160.344 100.412 160.344 100.412H165.065C165.065 100.412 165.065 100.14 165.065 99.8102V90.9658H167.048L172.537 99.8456L172.856 100.4H178.404C178.404 100.4 178.12 99.8927 177.884 99.5036L172.419 90.6946ZM170.377 86.2607H169.681L169.622 86.1663L167.485 82.7111L166.033 80.3644H170.377C172.006 80.3644 173.328 81.6852 173.328 83.3126C173.328 84.9399 172.006 86.2607 170.377 86.2607Z" fill="#DB2B56"/>
        <path d="M142.036 75.6475C135.189 75.6475 129.641 81.1899 129.641 88.0295C129.641 94.8691 135.189 100.412 142.036 100.412C148.882 100.412 154.43 94.8691 154.43 88.0295C154.43 81.1899 148.882 75.6475 142.036 75.6475ZM142.036 95.6946C137.798 95.6946 134.363 92.263 134.363 88.0295C134.363 83.796 137.798 80.3644 142.036 80.3644C146.273 80.3644 149.708 83.796 149.708 88.0295C149.708 92.263 146.273 95.6946 142.036 95.6946Z" fill="#DB2B56"/>
        <path d="M108.135 63.1356L108.394 63L111.038 64.3266L113.671 65.6474L120.788 69.2205C120.788 69.2205 120.788 69.4917 120.788 69.928L120.788 74.4681C120.788 74.4681 120.328 74.2441 119.939 74.0554L108.406 68.2771L96.8499 74.0554C96.4604 74.2441 96 74.4681 96 74.4681L96 69.2205C96 69.2205 96.2479 69.0908 96.6492 68.8903L103.13 65.6474L105.762 64.3266L108.135 63.1356Z" fill="#DB2B56"/>
        <path d="M108.654 112.864L108.394 113L105.75 111.673L103.118 110.353L96 106.78C96 106.78 96 106.508 96 106.072L96 101.532C96 101.532 96.4604 101.756 96.8499 101.945L108.382 107.723L119.939 101.945C120.328 101.756 120.788 101.532 120.788 101.532L120.788 106.78C120.788 106.78 120.541 106.909 120.139 107.11L113.659 110.353L111.027 111.673L108.654 112.864Z" fill="#DB2B56"/>
        <path d="M108.394 75.6179C101.548 75.6179 96 81.1604 96 88C96 94.8396 101.548 100.382 108.394 100.382C115.241 100.382 120.788 94.8396 120.788 88C120.788 81.1604 115.241 75.6179 108.394 75.6179ZM108.394 95.6651C104.157 95.6651 100.722 92.2335 100.722 88C100.722 83.7665 104.157 80.3349 108.394 80.3349C112.632 80.3349 116.067 83.7665 116.067 88C116.067 92.2335 112.632 95.6651 108.394 95.6651Z" fill="#DB2B56"/>
        <path d="M225.746 75.3008L216.184 101H212.281L221.861 75.3008H225.746ZM259.074 101H254.855V89.416H243.008V101H238.807V75.3008H243.008V85.8125H254.855V75.3008H259.074V101ZM262.449 81.5586H266.949L270.904 92.5801C271.502 94.1504 271.9 95.627 272.1 97.0098H272.24C272.346 96.3652 272.539 95.5859 272.82 94.6719C273.102 93.7461 274.59 89.375 277.285 81.5586H281.75L273.436 103.584C271.924 107.627 269.404 109.648 265.877 109.648C264.963 109.648 264.072 109.549 263.205 109.35V106.08C263.826 106.221 264.535 106.291 265.332 106.291C267.324 106.291 268.725 105.137 269.533 102.828L270.254 101L262.449 81.5586ZM291.26 101.352C288.834 101.352 286.941 100.473 285.582 98.7148C284.223 96.957 283.543 94.4902 283.543 91.3145C283.543 88.127 284.229 85.6484 285.6 83.8789C286.982 82.0977 288.893 81.207 291.33 81.207C293.885 81.207 295.83 82.1504 297.166 84.0371H297.377C297.178 82.6426 297.078 81.541 297.078 80.7324V73.6484H301.227V101H297.992L297.271 98.4512H297.078C295.754 100.385 293.814 101.352 291.26 101.352ZM292.367 98.0117C294.066 98.0117 295.303 97.5371 296.076 96.5879C296.85 95.627 297.248 94.0742 297.271 91.9297V91.3496C297.271 88.9004 296.873 87.1602 296.076 86.1289C295.279 85.0977 294.031 84.582 292.332 84.582C290.879 84.582 289.76 85.1738 288.975 86.3574C288.189 87.5293 287.797 89.2051 287.797 91.3848C287.797 93.541 288.178 95.1875 288.939 96.3242C289.701 97.4492 290.844 98.0117 292.367 98.0117ZM316.994 81.207C317.826 81.207 318.512 81.2656 319.051 81.3828L318.646 85.2324C318.061 85.0918 317.451 85.0215 316.818 85.0215C315.166 85.0215 313.824 85.5605 312.793 86.6387C311.773 87.7168 311.264 89.1172 311.264 90.8398V101H307.133V81.5586H310.367L310.912 84.9863H311.123C311.768 83.8262 312.605 82.9062 313.637 82.2266C314.68 81.5469 315.799 81.207 316.994 81.207ZM334.836 101L334.01 98.293H333.869C332.932 99.4766 331.988 100.285 331.039 100.719C330.09 101.141 328.871 101.352 327.383 101.352C325.473 101.352 323.979 100.836 322.9 99.8047C321.834 98.7734 321.301 97.3145 321.301 95.4277C321.301 93.4238 322.045 91.9121 323.533 90.8926C325.021 89.873 327.289 89.3164 330.336 89.2227L333.693 89.1172V88.0801C333.693 86.8379 333.4 85.9121 332.814 85.3027C332.24 84.6816 331.344 84.3711 330.125 84.3711C329.129 84.3711 328.174 84.5176 327.26 84.8105C326.346 85.1035 325.467 85.4492 324.623 85.8477L323.287 82.8945C324.342 82.3438 325.496 81.9277 326.75 81.6465C328.004 81.3535 329.188 81.207 330.301 81.207C332.773 81.207 334.637 81.7461 335.891 82.8242C337.156 83.9023 337.789 85.5957 337.789 87.9043V101H334.836ZM328.684 98.1875C330.184 98.1875 331.385 97.7715 332.287 96.9395C333.201 96.0957 333.658 94.918 333.658 93.4062V91.7188L331.162 91.8242C329.217 91.8945 327.799 92.2227 326.908 92.8086C326.029 93.3828 325.59 94.2676 325.59 95.4629C325.59 96.3301 325.848 97.0039 326.363 97.4844C326.879 97.9531 327.652 98.1875 328.684 98.1875Z" fill="#FF6B8F"/>
        <path d="M133.468 130.144C132.788 130.144 132.208 130.016 131.728 129.76C131.248 129.496 130.84 129.136 130.504 128.68L131.248 128.056C131.544 128.448 131.872 128.748 132.232 128.956C132.592 129.156 133.016 129.256 133.504 129.256C134.104 129.256 134.56 129.112 134.872 128.824C135.192 128.536 135.352 128.152 135.352 127.672C135.352 127.272 135.232 126.964 134.992 126.748C134.752 126.532 134.356 126.36 133.804 126.232L133.12 126.076C132.352 125.9 131.764 125.636 131.356 125.284C130.956 124.924 130.756 124.42 130.756 123.772C130.756 123.404 130.824 123.076 130.96 122.788C131.096 122.5 131.284 122.26 131.524 122.068C131.772 121.876 132.064 121.732 132.4 121.636C132.744 121.532 133.12 121.48 133.528 121.48C134.16 121.48 134.7 121.596 135.148 121.828C135.604 122.06 135.988 122.4 136.3 122.848L135.544 123.4C135.312 123.08 135.032 122.828 134.704 122.644C134.376 122.46 133.968 122.368 133.48 122.368C132.944 122.368 132.52 122.484 132.208 122.716C131.904 122.94 131.752 123.28 131.752 123.736C131.752 124.136 131.88 124.44 132.136 124.648C132.4 124.848 132.796 125.008 133.324 125.128L134.008 125.284C134.832 125.468 135.428 125.748 135.796 126.124C136.164 126.5 136.348 127 136.348 127.624C136.348 128.008 136.28 128.356 136.144 128.668C136.016 128.98 135.828 129.244 135.58 129.46C135.332 129.676 135.028 129.844 134.668 129.964C134.316 130.084 133.916 130.144 133.468 130.144ZM140.321 130.144C139.897 130.144 139.513 130.068 139.169 129.916C138.833 129.764 138.541 129.548 138.293 129.268C138.053 128.98 137.865 128.64 137.729 128.248C137.601 127.848 137.537 127.4 137.537 126.904C137.537 126.416 137.601 125.972 137.729 125.572C137.865 125.172 138.053 124.832 138.293 124.552C138.541 124.264 138.833 124.044 139.169 123.892C139.513 123.74 139.897 123.664 140.321 123.664C140.737 123.664 141.109 123.74 141.437 123.892C141.765 124.044 142.045 124.256 142.277 124.528C142.509 124.792 142.685 125.108 142.805 125.476C142.933 125.844 142.997 126.248 142.997 126.688V127.144H138.545V127.432C138.545 127.696 138.585 127.944 138.665 128.176C138.753 128.4 138.873 128.596 139.025 128.764C139.185 128.932 139.377 129.064 139.601 129.16C139.833 129.256 140.093 129.304 140.381 129.304C140.773 129.304 141.113 129.212 141.401 129.028C141.697 128.844 141.925 128.58 142.085 128.236L142.769 128.728C142.569 129.152 142.257 129.496 141.833 129.76C141.409 130.016 140.905 130.144 140.321 130.144ZM140.321 124.468C140.057 124.468 139.817 124.516 139.601 124.612C139.385 124.7 139.197 124.828 139.037 124.996C138.885 125.164 138.765 125.364 138.677 125.596C138.589 125.82 138.545 126.068 138.545 126.34V126.424H141.965V126.292C141.965 125.74 141.813 125.3 141.509 124.972C141.213 124.636 140.817 124.468 140.321 124.468ZM146.883 130.144C146.451 130.144 146.063 130.068 145.719 129.916C145.375 129.764 145.083 129.548 144.843 129.268C144.611 128.988 144.431 128.648 144.303 128.248C144.183 127.848 144.123 127.4 144.123 126.904C144.123 126.408 144.183 125.96 144.303 125.56C144.431 125.16 144.611 124.82 144.843 124.54C145.083 124.26 145.375 124.044 145.719 123.892C146.063 123.74 146.451 123.664 146.883 123.664C147.499 123.664 147.991 123.8 148.359 124.072C148.735 124.336 149.015 124.684 149.199 125.116L148.395 125.524C148.283 125.204 148.099 124.956 147.843 124.78C147.587 124.604 147.267 124.516 146.883 124.516C146.595 124.516 146.343 124.564 146.127 124.66C145.911 124.748 145.731 124.876 145.587 125.044C145.443 125.204 145.335 125.4 145.263 125.632C145.191 125.856 145.155 126.104 145.155 126.376V127.432C145.155 127.976 145.299 128.424 145.587 128.776C145.883 129.12 146.315 129.292 146.883 129.292C147.659 129.292 148.219 128.932 148.563 128.212L149.259 128.68C149.059 129.128 148.759 129.484 148.359 129.748C147.967 130.012 147.475 130.144 146.883 130.144ZM154.43 128.992H154.382C154.318 129.136 154.238 129.28 154.142 129.424C154.054 129.56 153.942 129.684 153.806 129.796C153.67 129.9 153.506 129.984 153.314 130.048C153.122 130.112 152.898 130.144 152.642 130.144C152.002 130.144 151.494 129.94 151.118 129.532C150.742 129.116 150.554 128.532 150.554 127.78V123.808H151.514V127.612C151.514 128.724 151.986 129.28 152.93 129.28C153.122 129.28 153.306 129.256 153.482 129.208C153.666 129.16 153.826 129.088 153.962 128.992C154.106 128.896 154.218 128.776 154.298 128.632C154.386 128.48 154.43 128.3 154.43 128.092V123.808H155.39V130H154.43V128.992ZM157.434 130V123.808H158.394V124.948H158.454C158.566 124.652 158.766 124.388 159.054 124.156C159.342 123.924 159.738 123.808 160.242 123.808H160.614V124.768H160.05C159.53 124.768 159.122 124.868 158.826 125.068C158.538 125.26 158.394 125.504 158.394 125.8V130H157.434ZM164.11 130.144C163.686 130.144 163.302 130.068 162.958 129.916C162.622 129.764 162.33 129.548 162.082 129.268C161.842 128.98 161.654 128.64 161.518 128.248C161.39 127.848 161.326 127.4 161.326 126.904C161.326 126.416 161.39 125.972 161.518 125.572C161.654 125.172 161.842 124.832 162.082 124.552C162.33 124.264 162.622 124.044 162.958 123.892C163.302 123.74 163.686 123.664 164.11 123.664C164.526 123.664 164.898 123.74 165.226 123.892C165.554 124.044 165.834 124.256 166.066 124.528C166.298 124.792 166.474 125.108 166.594 125.476C166.722 125.844 166.786 126.248 166.786 126.688V127.144H162.334V127.432C162.334 127.696 162.374 127.944 162.454 128.176C162.542 128.4 162.662 128.596 162.814 128.764C162.974 128.932 163.166 129.064 163.39 129.16C163.622 129.256 163.882 129.304 164.17 129.304C164.562 129.304 164.902 129.212 165.19 129.028C165.486 128.844 165.714 128.58 165.874 128.236L166.558 128.728C166.358 129.152 166.046 129.496 165.622 129.76C165.198 130.016 164.694 130.144 164.11 130.144ZM164.11 124.468C163.846 124.468 163.606 124.516 163.39 124.612C163.174 124.7 162.986 124.828 162.826 124.996C162.674 125.164 162.554 125.364 162.466 125.596C162.378 125.82 162.334 126.068 162.334 126.34V126.424H165.754V126.292C165.754 125.74 165.602 125.3 165.298 124.972C165.002 124.636 164.606 124.468 164.11 124.468ZM175.704 130C175.344 130 175.084 129.904 174.924 129.712C174.772 129.52 174.676 129.28 174.636 128.992H174.576C174.44 129.376 174.216 129.664 173.904 129.856C173.592 130.048 173.22 130.144 172.788 130.144C172.132 130.144 171.62 129.976 171.252 129.64C170.892 129.304 170.712 128.848 170.712 128.272C170.712 127.688 170.924 127.24 171.348 126.928C171.78 126.616 172.448 126.46 173.352 126.46H174.576V125.848C174.576 125.408 174.456 125.072 174.216 124.84C173.976 124.608 173.608 124.492 173.112 124.492C172.736 124.492 172.42 124.576 172.164 124.744C171.916 124.912 171.708 125.136 171.54 125.416L170.964 124.876C171.132 124.54 171.4 124.256 171.768 124.024C172.136 123.784 172.6 123.664 173.16 123.664C173.912 123.664 174.496 123.848 174.912 124.216C175.328 124.584 175.536 125.096 175.536 125.752V129.16H176.244V130H175.704ZM172.944 129.328C173.184 129.328 173.404 129.3 173.604 129.244C173.804 129.188 173.976 129.108 174.12 129.004C174.264 128.9 174.376 128.78 174.456 128.644C174.536 128.508 174.576 128.36 174.576 128.2V127.18H173.304C172.752 127.18 172.348 127.26 172.092 127.42C171.844 127.58 171.72 127.812 171.72 128.116V128.368C171.72 128.672 171.828 128.908 172.044 129.076C172.268 129.244 172.568 129.328 172.944 129.328ZM179.918 130.144C179.486 130.144 179.098 130.068 178.754 129.916C178.41 129.764 178.118 129.548 177.878 129.268C177.646 128.988 177.466 128.648 177.338 128.248C177.218 127.848 177.158 127.4 177.158 126.904C177.158 126.408 177.218 125.96 177.338 125.56C177.466 125.16 177.646 124.82 177.878 124.54C178.118 124.26 178.41 124.044 178.754 123.892C179.098 123.74 179.486 123.664 179.918 123.664C180.534 123.664 181.026 123.8 181.394 124.072C181.77 124.336 182.05 124.684 182.234 125.116L181.43 125.524C181.318 125.204 181.134 124.956 180.878 124.78C180.622 124.604 180.302 124.516 179.918 124.516C179.63 124.516 179.378 124.564 179.162 124.66C178.946 124.748 178.766 124.876 178.622 125.044C178.478 125.204 178.37 125.4 178.298 125.632C178.226 125.856 178.19 126.104 178.19 126.376V127.432C178.19 127.976 178.334 128.424 178.622 128.776C178.918 129.12 179.35 129.292 179.918 129.292C180.694 129.292 181.254 128.932 181.598 128.212L182.294 128.68C182.094 129.128 181.794 129.484 181.394 129.748C181.002 130.012 180.51 130.144 179.918 130.144ZM185.883 130.144C185.451 130.144 185.063 130.068 184.719 129.916C184.375 129.764 184.083 129.548 183.843 129.268C183.611 128.988 183.431 128.648 183.303 128.248C183.183 127.848 183.123 127.4 183.123 126.904C183.123 126.408 183.183 125.96 183.303 125.56C183.431 125.16 183.611 124.82 183.843 124.54C184.083 124.26 184.375 124.044 184.719 123.892C185.063 123.74 185.451 123.664 185.883 123.664C186.499 123.664 186.991 123.8 187.359 124.072C187.735 124.336 188.015 124.684 188.199 125.116L187.395 125.524C187.283 125.204 187.099 124.956 186.843 124.78C186.587 124.604 186.267 124.516 185.883 124.516C185.595 124.516 185.343 124.564 185.127 124.66C184.911 124.748 184.731 124.876 184.587 125.044C184.443 125.204 184.335 125.4 184.263 125.632C184.191 125.856 184.155 126.104 184.155 126.376V127.432C184.155 127.976 184.299 128.424 184.587 128.776C184.883 129.12 185.315 129.292 185.883 129.292C186.659 129.292 187.219 128.932 187.563 128.212L188.259 128.68C188.059 129.128 187.759 129.484 187.359 129.748C186.967 130.012 186.475 130.144 185.883 130.144ZM191.871 130.144C191.447 130.144 191.063 130.068 190.719 129.916C190.383 129.764 190.091 129.548 189.843 129.268C189.603 128.98 189.415 128.64 189.279 128.248C189.151 127.848 189.087 127.4 189.087 126.904C189.087 126.416 189.151 125.972 189.279 125.572C189.415 125.172 189.603 124.832 189.843 124.552C190.091 124.264 190.383 124.044 190.719 123.892C191.063 123.74 191.447 123.664 191.871 123.664C192.287 123.664 192.659 123.74 192.987 123.892C193.315 124.044 193.595 124.256 193.827 124.528C194.059 124.792 194.235 125.108 194.355 125.476C194.483 125.844 194.547 126.248 194.547 126.688V127.144H190.095V127.432C190.095 127.696 190.135 127.944 190.215 128.176C190.303 128.4 190.423 128.596 190.575 128.764C190.735 128.932 190.927 129.064 191.151 129.16C191.383 129.256 191.643 129.304 191.931 129.304C192.323 129.304 192.663 129.212 192.951 129.028C193.247 128.844 193.475 128.58 193.635 128.236L194.319 128.728C194.119 129.152 193.807 129.496 193.383 129.76C192.959 130.016 192.455 130.144 191.871 130.144ZM191.871 124.468C191.607 124.468 191.367 124.516 191.151 124.612C190.935 124.7 190.747 124.828 190.587 124.996C190.435 125.164 190.315 125.364 190.227 125.596C190.139 125.82 190.095 126.068 190.095 126.34V126.424H193.515V126.292C193.515 125.74 193.363 125.3 193.059 124.972C192.763 124.636 192.367 124.468 191.871 124.468ZM197.989 130.144C197.413 130.144 196.929 130.036 196.537 129.82C196.153 129.596 195.821 129.3 195.541 128.932L196.225 128.38C196.465 128.684 196.733 128.92 197.029 129.088C197.325 129.248 197.669 129.328 198.061 129.328C198.469 129.328 198.785 129.24 199.009 129.064C199.241 128.888 199.357 128.64 199.357 128.32C199.357 128.08 199.277 127.876 199.117 127.708C198.965 127.532 198.685 127.412 198.277 127.348L197.785 127.276C197.497 127.236 197.233 127.176 196.993 127.096C196.753 127.008 196.541 126.896 196.357 126.76C196.181 126.616 196.041 126.44 195.937 126.232C195.841 126.024 195.793 125.776 195.793 125.488C195.793 125.184 195.849 124.92 195.961 124.696C196.073 124.464 196.225 124.272 196.417 124.12C196.617 123.968 196.853 123.856 197.125 123.784C197.397 123.704 197.689 123.664 198.001 123.664C198.505 123.664 198.925 123.752 199.261 123.928C199.605 124.104 199.905 124.348 200.161 124.66L199.525 125.236C199.389 125.044 199.189 124.872 198.925 124.72C198.661 124.56 198.329 124.48 197.929 124.48C197.529 124.48 197.225 124.568 197.017 124.744C196.817 124.912 196.717 125.144 196.717 125.44C196.717 125.744 196.817 125.964 197.017 126.1C197.225 126.236 197.521 126.336 197.905 126.4L198.385 126.472C199.073 126.576 199.561 126.776 199.849 127.072C200.137 127.36 200.281 127.74 200.281 128.212C200.281 128.812 200.077 129.284 199.669 129.628C199.261 129.972 198.701 130.144 197.989 130.144ZM203.767 130.144C203.191 130.144 202.707 130.036 202.315 129.82C201.931 129.596 201.599 129.3 201.319 128.932L202.003 128.38C202.243 128.684 202.511 128.92 202.807 129.088C203.103 129.248 203.447 129.328 203.839 129.328C204.247 129.328 204.563 129.24 204.787 129.064C205.019 128.888 205.135 128.64 205.135 128.32C205.135 128.08 205.055 127.876 204.895 127.708C204.743 127.532 204.463 127.412 204.055 127.348L203.563 127.276C203.275 127.236 203.011 127.176 202.771 127.096C202.531 127.008 202.319 126.896 202.135 126.76C201.959 126.616 201.819 126.44 201.715 126.232C201.619 126.024 201.571 125.776 201.571 125.488C201.571 125.184 201.627 124.92 201.739 124.696C201.851 124.464 202.003 124.272 202.195 124.12C202.395 123.968 202.631 123.856 202.903 123.784C203.175 123.704 203.467 123.664 203.779 123.664C204.283 123.664 204.703 123.752 205.039 123.928C205.383 124.104 205.683 124.348 205.939 124.66L205.303 125.236C205.167 125.044 204.967 124.872 204.703 124.72C204.439 124.56 204.107 124.48 203.707 124.48C203.307 124.48 203.003 124.568 202.795 124.744C202.595 124.912 202.495 125.144 202.495 125.44C202.495 125.744 202.595 125.964 202.795 126.1C203.003 126.236 203.299 126.336 203.683 126.4L204.163 126.472C204.851 126.576 205.339 126.776 205.627 127.072C205.915 127.36 206.059 127.74 206.059 128.212C206.059 128.812 205.855 129.284 205.447 129.628C205.039 129.972 204.479 130.144 203.767 130.144ZM211.958 130C211.622 130 211.366 129.908 211.19 129.724C211.022 129.532 210.938 129.284 210.938 128.98V124.648H209.918V123.808H210.494C210.702 123.808 210.842 123.768 210.914 123.688C210.994 123.6 211.034 123.452 211.034 123.244V122.092H211.898V123.808H213.254V124.648H211.898V129.16H213.158V130H211.958ZM217.09 130.144C216.674 130.144 216.294 130.068 215.95 129.916C215.606 129.764 215.31 129.548 215.062 129.268C214.822 128.98 214.634 128.64 214.498 128.248C214.362 127.848 214.294 127.4 214.294 126.904C214.294 126.416 214.362 125.972 214.498 125.572C214.634 125.172 214.822 124.832 215.062 124.552C215.31 124.264 215.606 124.044 215.95 123.892C216.294 123.74 216.674 123.664 217.09 123.664C217.506 123.664 217.882 123.74 218.218 123.892C218.562 124.044 218.858 124.264 219.106 124.552C219.354 124.832 219.546 125.172 219.682 125.572C219.818 125.972 219.886 126.416 219.886 126.904C219.886 127.4 219.818 127.848 219.682 128.248C219.546 128.64 219.354 128.98 219.106 129.268C218.858 129.548 218.562 129.764 218.218 129.916C217.882 130.068 217.506 130.144 217.09 130.144ZM217.09 129.292C217.61 129.292 218.034 129.132 218.362 128.812C218.69 128.492 218.854 128.004 218.854 127.348V126.46C218.854 125.804 218.69 125.316 218.362 124.996C218.034 124.676 217.61 124.516 217.09 124.516C216.57 124.516 216.146 124.676 215.818 124.996C215.49 125.316 215.326 125.804 215.326 126.46V127.348C215.326 128.004 215.49 128.492 215.818 128.812C216.146 129.132 216.57 129.292 217.09 129.292ZM228.117 123.808H229.065L226.293 131.44C226.221 131.624 226.149 131.776 226.077 131.896C226.005 132.024 225.917 132.124 225.813 132.196C225.709 132.268 225.577 132.32 225.417 132.352C225.265 132.384 225.077 132.4 224.853 132.4H224.361V131.56H225.333L225.801 130.24L223.485 123.808H224.445L225.933 128.02L226.221 129.028H226.281L226.617 128.02L228.117 123.808ZM232.571 130.144C232.155 130.144 231.775 130.068 231.431 129.916C231.087 129.764 230.791 129.548 230.543 129.268C230.303 128.98 230.115 128.64 229.979 128.248C229.843 127.848 229.775 127.4 229.775 126.904C229.775 126.416 229.843 125.972 229.979 125.572C230.115 125.172 230.303 124.832 230.543 124.552C230.791 124.264 231.087 124.044 231.431 123.892C231.775 123.74 232.155 123.664 232.571 123.664C232.987 123.664 233.363 123.74 233.699 123.892C234.043 124.044 234.339 124.264 234.587 124.552C234.835 124.832 235.027 125.172 235.163 125.572C235.299 125.972 235.367 126.416 235.367 126.904C235.367 127.4 235.299 127.848 235.163 128.248C235.027 128.64 234.835 128.98 234.587 129.268C234.339 129.548 234.043 129.764 233.699 129.916C233.363 130.068 232.987 130.144 232.571 130.144ZM232.571 129.292C233.091 129.292 233.515 129.132 233.843 128.812C234.171 128.492 234.335 128.004 234.335 127.348V126.46C234.335 125.804 234.171 125.316 233.843 124.996C233.515 124.676 233.091 124.516 232.571 124.516C232.051 124.516 231.627 124.676 231.299 124.996C230.971 125.316 230.807 125.804 230.807 126.46V127.348C230.807 128.004 230.971 128.492 231.299 128.812C231.627 129.132 232.051 129.292 232.571 129.292ZM240.762 128.992H240.714C240.65 129.136 240.57 129.28 240.474 129.424C240.386 129.56 240.274 129.684 240.138 129.796C240.002 129.9 239.838 129.984 239.646 130.048C239.454 130.112 239.23 130.144 238.974 130.144C238.334 130.144 237.826 129.94 237.45 129.532C237.074 129.116 236.886 128.532 236.886 127.78V123.808H237.846V127.612C237.846 128.724 238.318 129.28 239.262 129.28C239.454 129.28 239.638 129.256 239.814 129.208C239.998 129.16 240.158 129.088 240.294 128.992C240.438 128.896 240.55 128.776 240.63 128.632C240.718 128.48 240.762 128.3 240.762 128.092V123.808H241.722V130H240.762V128.992ZM243.766 130V123.808H244.726V124.948H244.786C244.898 124.652 245.098 124.388 245.386 124.156C245.674 123.924 246.07 123.808 246.574 123.808H246.946V124.768H246.382C245.862 124.768 245.454 124.868 245.158 125.068C244.87 125.26 244.726 125.504 244.726 125.8V130H243.766ZM255.508 130C255.148 130 254.888 129.904 254.728 129.712C254.576 129.52 254.48 129.28 254.44 128.992H254.38C254.244 129.376 254.02 129.664 253.708 129.856C253.396 130.048 253.024 130.144 252.592 130.144C251.936 130.144 251.424 129.976 251.056 129.64C250.696 129.304 250.516 128.848 250.516 128.272C250.516 127.688 250.728 127.24 251.152 126.928C251.584 126.616 252.252 126.46 253.156 126.46H254.38V125.848C254.38 125.408 254.26 125.072 254.02 124.84C253.78 124.608 253.412 124.492 252.916 124.492C252.54 124.492 252.224 124.576 251.968 124.744C251.72 124.912 251.512 125.136 251.344 125.416L250.768 124.876C250.936 124.54 251.204 124.256 251.572 124.024C251.94 123.784 252.404 123.664 252.964 123.664C253.716 123.664 254.3 123.848 254.716 124.216C255.132 124.584 255.34 125.096 255.34 125.752V129.16H256.048V130H255.508ZM252.748 129.328C252.988 129.328 253.208 129.3 253.408 129.244C253.608 129.188 253.78 129.108 253.924 129.004C254.068 128.9 254.18 128.78 254.26 128.644C254.34 128.508 254.38 128.36 254.38 128.2V127.18H253.108C252.556 127.18 252.152 127.26 251.896 127.42C251.648 127.58 251.524 127.812 251.524 128.116V128.368C251.524 128.672 251.632 128.908 251.848 129.076C252.072 129.244 252.372 129.328 252.748 129.328ZM257.418 123.808H258.378V124.816H258.426C258.586 124.424 258.818 124.136 259.122 123.952C259.434 123.76 259.806 123.664 260.238 123.664C260.622 123.664 260.97 123.74 261.282 123.892C261.594 124.044 261.858 124.26 262.074 124.54C262.298 124.82 262.466 125.16 262.578 125.56C262.698 125.96 262.758 126.408 262.758 126.904C262.758 127.4 262.698 127.848 262.578 128.248C262.466 128.648 262.298 128.988 262.074 129.268C261.858 129.548 261.594 129.764 261.282 129.916C260.97 130.068 260.622 130.144 260.238 130.144C259.398 130.144 258.794 129.76 258.426 128.992H258.378V132.4H257.418V123.808ZM259.974 129.28C260.518 129.28 260.946 129.112 261.258 128.776C261.57 128.432 261.726 127.984 261.726 127.432V126.376C261.726 125.824 261.57 125.38 261.258 125.044C260.946 124.7 260.518 124.528 259.974 124.528C259.758 124.528 259.55 124.56 259.35 124.624C259.158 124.68 258.99 124.76 258.846 124.864C258.702 124.968 258.586 125.096 258.498 125.248C258.418 125.392 258.378 125.548 258.378 125.716V128.02C258.378 128.22 258.418 128.4 258.498 128.56C258.586 128.712 258.702 128.844 258.846 128.956C258.99 129.06 259.158 129.14 259.35 129.196C259.55 129.252 259.758 129.28 259.974 129.28ZM264.379 123.808H265.339V124.816H265.387C265.547 124.424 265.779 124.136 266.083 123.952C266.395 123.76 266.767 123.664 267.199 123.664C267.583 123.664 267.931 123.74 268.243 123.892C268.555 124.044 268.819 124.26 269.035 124.54C269.259 124.82 269.427 125.16 269.539 125.56C269.659 125.96 269.719 126.408 269.719 126.904C269.719 127.4 269.659 127.848 269.539 128.248C269.427 128.648 269.259 128.988 269.035 129.268C268.819 129.548 268.555 129.764 268.243 129.916C267.931 130.068 267.583 130.144 267.199 130.144C266.359 130.144 265.755 129.76 265.387 128.992H265.339V132.4H264.379V123.808ZM266.935 129.28C267.479 129.28 267.907 129.112 268.219 128.776C268.531 128.432 268.687 127.984 268.687 127.432V126.376C268.687 125.824 268.531 125.38 268.219 125.044C267.907 124.7 267.479 124.528 266.935 124.528C266.719 124.528 266.511 124.56 266.311 124.624C266.119 124.68 265.951 124.76 265.807 124.864C265.663 124.968 265.547 125.096 265.459 125.248C265.379 125.392 265.339 125.548 265.339 125.716V128.02C265.339 128.22 265.379 128.4 265.459 128.56C265.547 128.712 265.663 128.844 265.807 128.956C265.951 129.06 266.119 129.14 266.311 129.196C266.511 129.252 266.719 129.28 266.935 129.28ZM272.36 130C272.024 130 271.768 129.908 271.592 129.724C271.424 129.532 271.34 129.292 271.34 129.004V121.12H272.3V129.16H273.212V130H272.36ZM275.09 122.356C274.882 122.356 274.73 122.308 274.634 122.212C274.546 122.108 274.502 121.976 274.502 121.816V121.66C274.502 121.5 274.546 121.372 274.634 121.276C274.73 121.172 274.882 121.12 275.09 121.12C275.298 121.12 275.446 121.172 275.534 121.276C275.63 121.372 275.678 121.5 275.678 121.66V121.816C275.678 121.976 275.63 122.108 275.534 122.212C275.446 122.308 275.298 122.356 275.09 122.356ZM274.61 123.808H275.57V130H274.61V123.808ZM279.914 130.144C279.482 130.144 279.094 130.068 278.75 129.916C278.406 129.764 278.114 129.548 277.874 129.268C277.642 128.988 277.462 128.648 277.334 128.248C277.214 127.848 277.154 127.4 277.154 126.904C277.154 126.408 277.214 125.96 277.334 125.56C277.462 125.16 277.642 124.82 277.874 124.54C278.114 124.26 278.406 124.044 278.75 123.892C279.094 123.74 279.482 123.664 279.914 123.664C280.53 123.664 281.022 123.8 281.39 124.072C281.766 124.336 282.046 124.684 282.23 125.116L281.426 125.524C281.314 125.204 281.13 124.956 280.874 124.78C280.618 124.604 280.298 124.516 279.914 124.516C279.626 124.516 279.374 124.564 279.158 124.66C278.942 124.748 278.762 124.876 278.618 125.044C278.474 125.204 278.366 125.4 278.294 125.632C278.222 125.856 278.186 126.104 278.186 126.376V127.432C278.186 127.976 278.33 128.424 278.618 128.776C278.914 129.12 279.346 129.292 279.914 129.292C280.69 129.292 281.25 128.932 281.594 128.212L282.29 128.68C282.09 129.128 281.79 129.484 281.39 129.748C280.998 130.012 280.506 130.144 279.914 130.144ZM288.145 130C287.785 130 287.525 129.904 287.365 129.712C287.213 129.52 287.117 129.28 287.077 128.992H287.017C286.881 129.376 286.657 129.664 286.345 129.856C286.033 130.048 285.661 130.144 285.229 130.144C284.573 130.144 284.061 129.976 283.693 129.64C283.333 129.304 283.153 128.848 283.153 128.272C283.153 127.688 283.365 127.24 283.789 126.928C284.221 126.616 284.889 126.46 285.793 126.46H287.017V125.848C287.017 125.408 286.897 125.072 286.657 124.84C286.417 124.608 286.049 124.492 285.553 124.492C285.177 124.492 284.861 124.576 284.605 124.744C284.357 124.912 284.149 125.136 283.981 125.416L283.405 124.876C283.573 124.54 283.841 124.256 284.209 124.024C284.577 123.784 285.041 123.664 285.601 123.664C286.353 123.664 286.937 123.848 287.353 124.216C287.769 124.584 287.977 125.096 287.977 125.752V129.16H288.685V130H288.145ZM285.385 129.328C285.625 129.328 285.845 129.3 286.045 129.244C286.245 129.188 286.417 129.108 286.561 129.004C286.705 128.9 286.817 128.78 286.897 128.644C286.977 128.508 287.017 128.36 287.017 128.2V127.18H285.745C285.193 127.18 284.789 127.26 284.533 127.42C284.285 127.58 284.161 127.812 284.161 128.116V128.368C284.161 128.672 284.269 128.908 284.485 129.076C284.709 129.244 285.009 129.328 285.385 129.328ZM291.423 130C291.087 130 290.831 129.908 290.655 129.724C290.487 129.532 290.403 129.284 290.403 128.98V124.648H289.383V123.808H289.959C290.167 123.808 290.307 123.768 290.379 123.688C290.459 123.6 290.499 123.452 290.499 123.244V122.092H291.363V123.808H292.719V124.648H291.363V129.16H292.623V130H291.423ZM294.742 122.356C294.534 122.356 294.382 122.308 294.286 122.212C294.198 122.108 294.154 121.976 294.154 121.816V121.66C294.154 121.5 294.198 121.372 294.286 121.276C294.382 121.172 294.534 121.12 294.742 121.12C294.95 121.12 295.098 121.172 295.186 121.276C295.282 121.372 295.33 121.5 295.33 121.66V121.816C295.33 121.976 295.282 122.108 295.186 122.212C295.098 122.308 294.95 122.356 294.742 122.356ZM294.262 123.808H295.222V130H294.262V123.808ZM299.602 130.144C299.186 130.144 298.806 130.068 298.462 129.916C298.118 129.764 297.822 129.548 297.574 129.268C297.334 128.98 297.146 128.64 297.01 128.248C296.874 127.848 296.806 127.4 296.806 126.904C296.806 126.416 296.874 125.972 297.01 125.572C297.146 125.172 297.334 124.832 297.574 124.552C297.822 124.264 298.118 124.044 298.462 123.892C298.806 123.74 299.186 123.664 299.602 123.664C300.018 123.664 300.394 123.74 300.73 123.892C301.074 124.044 301.37 124.264 301.618 124.552C301.866 124.832 302.058 125.172 302.194 125.572C302.33 125.972 302.398 126.416 302.398 126.904C302.398 127.4 302.33 127.848 302.194 128.248C302.058 128.64 301.866 128.98 301.618 129.268C301.37 129.548 301.074 129.764 300.73 129.916C300.394 130.068 300.018 130.144 299.602 130.144ZM299.602 129.292C300.122 129.292 300.546 129.132 300.874 128.812C301.202 128.492 301.366 128.004 301.366 127.348V126.46C301.366 125.804 301.202 125.316 300.874 124.996C300.546 124.676 300.122 124.516 299.602 124.516C299.082 124.516 298.658 124.676 298.33 124.996C298.002 125.316 297.838 125.804 297.838 126.46V127.348C297.838 128.004 298.002 128.492 298.33 128.812C298.658 129.132 299.082 129.292 299.602 129.292ZM303.977 130V123.808H304.937V124.816H304.985C305.137 124.464 305.349 124.184 305.621 123.976C305.901 123.768 306.273 123.664 306.737 123.664C307.377 123.664 307.881 123.872 308.249 124.288C308.625 124.696 308.813 125.276 308.813 126.028V130H307.853V126.196C307.853 125.084 307.385 124.528 306.449 124.528C306.257 124.528 306.069 124.552 305.885 124.6C305.709 124.648 305.549 124.72 305.405 124.816C305.261 124.912 305.145 125.036 305.057 125.188C304.977 125.332 304.937 125.504 304.937 125.704V130H303.977ZM312.657 130.144C312.081 130.144 311.597 130.036 311.205 129.82C310.821 129.596 310.489 129.3 310.209 128.932L310.893 128.38C311.133 128.684 311.401 128.92 311.697 129.088C311.993 129.248 312.337 129.328 312.729 129.328C313.137 129.328 313.453 129.24 313.677 129.064C313.909 128.888 314.025 128.64 314.025 128.32C314.025 128.08 313.945 127.876 313.785 127.708C313.633 127.532 313.353 127.412 312.945 127.348L312.453 127.276C312.165 127.236 311.901 127.176 311.661 127.096C311.421 127.008 311.209 126.896 311.025 126.76C310.849 126.616 310.709 126.44 310.605 126.232C310.509 126.024 310.461 125.776 310.461 125.488C310.461 125.184 310.517 124.92 310.629 124.696C310.741 124.464 310.893 124.272 311.085 124.12C311.285 123.968 311.521 123.856 311.793 123.784C312.065 123.704 312.357 123.664 312.669 123.664C313.173 123.664 313.593 123.752 313.929 123.928C314.273 124.104 314.573 124.348 314.829 124.66L314.193 125.236C314.057 125.044 313.857 124.872 313.593 124.72C313.329 124.56 312.997 124.48 312.597 124.48C312.197 124.48 311.893 124.568 311.685 124.744C311.485 124.912 311.385 125.144 311.385 125.44C311.385 125.744 311.485 125.964 311.685 126.1C311.893 126.236 312.189 126.336 312.573 126.4L313.053 126.472C313.741 126.576 314.229 126.776 314.517 127.072C314.805 127.36 314.949 127.74 314.949 128.212C314.949 128.812 314.745 129.284 314.337 129.628C313.929 129.972 313.369 130.144 312.657 130.144ZM323.981 130C323.621 130 323.361 129.904 323.201 129.712C323.049 129.52 322.953 129.28 322.913 128.992H322.853C322.717 129.376 322.493 129.664 322.181 129.856C321.869 130.048 321.497 130.144 321.065 130.144C320.409 130.144 319.897 129.976 319.529 129.64C319.169 129.304 318.989 128.848 318.989 128.272C318.989 127.688 319.201 127.24 319.625 126.928C320.057 126.616 320.725 126.46 321.629 126.46H322.853V125.848C322.853 125.408 322.733 125.072 322.493 124.84C322.253 124.608 321.885 124.492 321.389 124.492C321.013 124.492 320.697 124.576 320.441 124.744C320.193 124.912 319.985 125.136 319.817 125.416L319.241 124.876C319.409 124.54 319.677 124.256 320.045 124.024C320.413 123.784 320.877 123.664 321.437 123.664C322.189 123.664 322.773 123.848 323.189 124.216C323.605 124.584 323.813 125.096 323.813 125.752V129.16H324.521V130H323.981ZM321.221 129.328C321.461 129.328 321.681 129.3 321.881 129.244C322.081 129.188 322.253 129.108 322.397 129.004C322.541 128.9 322.653 128.78 322.733 128.644C322.813 128.508 322.853 128.36 322.853 128.2V127.18H321.581C321.029 127.18 320.625 127.26 320.369 127.42C320.121 127.58 319.997 127.812 319.997 128.116V128.368C319.997 128.672 320.105 128.908 320.321 129.076C320.545 129.244 320.845 129.328 321.221 129.328ZM325.891 130V123.808H326.851V124.816H326.899C327.051 124.464 327.263 124.184 327.535 123.976C327.815 123.768 328.187 123.664 328.651 123.664C329.291 123.664 329.795 123.872 330.163 124.288C330.539 124.696 330.727 125.276 330.727 126.028V130H329.767V126.196C329.767 125.084 329.299 124.528 328.363 124.528C328.171 124.528 327.983 124.552 327.799 124.6C327.623 124.648 327.463 124.72 327.319 124.816C327.175 124.912 327.059 125.036 326.971 125.188C326.891 125.332 326.851 125.504 326.851 125.704V130H325.891ZM336.671 128.992H336.623C336.247 129.76 335.643 130.144 334.811 130.144C334.427 130.144 334.079 130.068 333.767 129.916C333.455 129.764 333.187 129.548 332.963 129.268C332.747 128.988 332.579 128.648 332.459 128.248C332.347 127.848 332.291 127.4 332.291 126.904C332.291 126.408 332.347 125.96 332.459 125.56C332.579 125.16 332.747 124.82 332.963 124.54C333.187 124.26 333.455 124.044 333.767 123.892C334.079 123.74 334.427 123.664 334.811 123.664C335.243 123.664 335.611 123.76 335.915 123.952C336.227 124.136 336.463 124.424 336.623 124.816H336.671V121.12H337.631V130H336.671V128.992ZM335.075 129.28C335.291 129.28 335.495 129.252 335.687 129.196C335.887 129.14 336.059 129.06 336.203 128.956C336.347 128.844 336.459 128.712 336.539 128.56C336.627 128.4 336.671 128.22 336.671 128.02V125.716C336.671 125.548 336.627 125.392 336.539 125.248C336.459 125.096 336.347 124.968 336.203 124.864C336.059 124.76 335.887 124.68 335.687 124.624C335.495 124.56 335.291 124.528 335.075 124.528C334.531 124.528 334.103 124.7 333.791 125.044C333.479 125.38 333.323 125.824 333.323 126.376V127.432C333.323 127.984 333.479 128.432 333.791 128.776C334.103 129.112 334.531 129.28 335.075 129.28ZM347.848 130L347.008 127.528H343.624L342.784 130H341.764L344.692 121.624H345.976L348.904 130H347.848ZM345.34 122.56H345.28L343.864 126.64H346.756L345.34 122.56ZM350.292 130V121.624H353.628C354.38 121.624 354.956 121.84 355.356 122.272C355.764 122.696 355.968 123.28 355.968 124.024C355.968 124.768 355.764 125.356 355.356 125.788C354.956 126.212 354.38 126.424 353.628 126.424H351.3V130H350.292ZM351.3 125.536H353.628C354.028 125.536 354.336 125.432 354.552 125.224C354.776 125.016 354.888 124.72 354.888 124.336V123.712C354.888 123.328 354.776 123.032 354.552 122.824C354.336 122.616 354.028 122.512 353.628 122.512H351.3V125.536ZM357.173 130V129.16H358.349V122.464H357.173V121.624H360.533V122.464H359.357V129.16H360.533V130H357.173ZM364.138 130.144C363.562 130.144 363.078 130.036 362.686 129.82C362.302 129.596 361.97 129.3 361.69 128.932L362.374 128.38C362.614 128.684 362.882 128.92 363.178 129.088C363.474 129.248 363.818 129.328 364.21 129.328C364.618 129.328 364.934 129.24 365.158 129.064C365.39 128.888 365.506 128.64 365.506 128.32C365.506 128.08 365.426 127.876 365.266 127.708C365.114 127.532 364.834 127.412 364.426 127.348L363.934 127.276C363.646 127.236 363.382 127.176 363.142 127.096C362.902 127.008 362.69 126.896 362.506 126.76C362.33 126.616 362.19 126.44 362.086 126.232C361.99 126.024 361.942 125.776 361.942 125.488C361.942 125.184 361.998 124.92 362.11 124.696C362.222 124.464 362.374 124.272 362.566 124.12C362.766 123.968 363.002 123.856 363.274 123.784C363.546 123.704 363.838 123.664 364.15 123.664C364.654 123.664 365.074 123.752 365.41 123.928C365.754 124.104 366.054 124.348 366.31 124.66L365.674 125.236C365.538 125.044 365.338 124.872 365.074 124.72C364.81 124.56 364.478 124.48 364.078 124.48C363.678 124.48 363.374 124.568 363.166 124.744C362.966 124.912 362.866 125.144 362.866 125.44C362.866 125.744 362.966 125.964 363.166 126.1C363.374 126.236 363.67 126.336 364.054 126.4L364.534 126.472C365.222 126.576 365.71 126.776 365.998 127.072C366.286 127.36 366.43 127.74 366.43 128.212C366.43 128.812 366.226 129.284 365.818 129.628C365.41 129.972 364.85 130.144 364.138 130.144ZM370.313 123.808H371.249L371.909 126.484L372.569 129.196H372.593L373.349 126.484L374.129 123.808H374.981L375.785 126.484L376.553 129.196H376.577L377.213 126.484L377.885 123.808H378.785L377.141 130H375.953L375.089 127.024L374.549 125.14H374.525L373.997 127.024L373.133 130H371.969L370.313 123.808ZM380.652 122.356C380.444 122.356 380.292 122.308 380.196 122.212C380.108 122.108 380.064 121.976 380.064 121.816V121.66C380.064 121.5 380.108 121.372 380.196 121.276C380.292 121.172 380.444 121.12 380.652 121.12C380.86 121.12 381.008 121.172 381.096 121.276C381.192 121.372 381.24 121.5 381.24 121.66V121.816C381.24 121.976 381.192 122.108 381.096 122.212C381.008 122.308 380.86 122.356 380.652 122.356ZM380.172 123.808H381.132V130H380.172V123.808ZM384.54 130C384.204 130 383.948 129.908 383.772 129.724C383.604 129.532 383.52 129.284 383.52 128.98V124.648H382.5V123.808H383.076C383.284 123.808 383.424 123.768 383.496 123.688C383.576 123.6 383.616 123.452 383.616 123.244V122.092H384.48V123.808H385.836V124.648H384.48V129.16H385.74V130H384.54ZM387.379 121.12H388.339V124.816H388.387C388.539 124.464 388.751 124.184 389.023 123.976C389.303 123.768 389.675 123.664 390.139 123.664C390.779 123.664 391.283 123.872 391.651 124.288C392.027 124.696 392.215 125.276 392.215 126.028V130H391.255V126.196C391.255 125.084 390.787 124.528 389.851 124.528C389.659 124.528 389.471 124.552 389.287 124.6C389.111 124.648 388.951 124.72 388.807 124.816C388.663 124.912 388.547 125.036 388.459 125.188C388.379 125.332 388.339 125.504 388.339 125.704V130H387.379V121.12ZM400.264 130.144C399.72 130.144 399.228 130.052 398.788 129.868C398.356 129.676 397.984 129.4 397.672 129.04C397.368 128.672 397.132 128.22 396.964 127.684C396.796 127.14 396.712 126.516 396.712 125.812C396.712 125.108 396.796 124.488 396.964 123.952C397.132 123.416 397.368 122.964 397.672 122.596C397.984 122.228 398.356 121.952 398.788 121.768C399.228 121.576 399.72 121.48 400.264 121.48C400.8 121.48 401.288 121.576 401.728 121.768C402.168 121.952 402.54 122.228 402.844 122.596C403.156 122.964 403.396 123.416 403.564 123.952C403.732 124.488 403.816 125.108 403.816 125.812C403.816 126.516 403.732 127.14 403.564 127.684C403.396 128.22 403.156 128.672 402.844 129.04C402.54 129.4 402.168 129.676 401.728 129.868C401.288 130.052 400.8 130.144 400.264 130.144ZM400.264 129.244C400.624 129.244 400.956 129.18 401.26 129.052C401.564 128.924 401.824 128.74 402.04 128.5C402.264 128.26 402.436 127.972 402.556 127.636C402.676 127.3 402.736 126.924 402.736 126.508V125.116C402.736 124.7 402.676 124.324 402.556 123.988C402.436 123.652 402.264 123.364 402.04 123.124C401.824 122.884 401.564 122.7 401.26 122.572C400.956 122.444 400.624 122.38 400.264 122.38C399.904 122.38 399.572 122.444 399.268 122.572C398.964 122.7 398.7 122.884 398.476 123.124C398.26 123.364 398.092 123.652 397.972 123.988C397.852 124.324 397.792 124.7 397.792 125.116V126.508C397.792 126.924 397.852 127.3 397.972 127.636C398.092 127.972 398.26 128.26 398.476 128.5C398.7 128.74 398.964 128.924 399.268 129.052C399.572 129.18 399.904 129.244 400.264 129.244ZM410.696 130L409.856 127.528H406.472L405.632 130H404.612L407.54 121.624H408.824L411.752 130H410.696ZM408.188 122.56H408.128L406.712 126.64H409.604L408.188 122.56ZM416.859 128.992H416.811C416.747 129.136 416.667 129.28 416.571 129.424C416.483 129.56 416.371 129.684 416.235 129.796C416.099 129.9 415.935 129.984 415.743 130.048C415.551 130.112 415.327 130.144 415.071 130.144C414.431 130.144 413.923 129.94 413.547 129.532C413.171 129.116 412.983 128.532 412.983 127.78V123.808H413.943V127.612C413.943 128.724 414.415 129.28 415.359 129.28C415.551 129.28 415.735 129.256 415.911 129.208C416.095 129.16 416.255 129.088 416.391 128.992C416.535 128.896 416.647 128.776 416.727 128.632C416.815 128.48 416.859 128.3 416.859 128.092V123.808H417.819V130H416.859V128.992ZM421.232 130C420.896 130 420.64 129.908 420.464 129.724C420.296 129.532 420.212 129.284 420.212 128.98V124.648H419.192V123.808H419.768C419.976 123.808 420.116 123.768 420.188 123.688C420.268 123.6 420.308 123.452 420.308 123.244V122.092H421.172V123.808H422.528V124.648H421.172V129.16H422.432V130H421.232ZM424.071 121.12H425.031V124.816H425.079C425.231 124.464 425.443 124.184 425.715 123.976C425.995 123.768 426.367 123.664 426.831 123.664C427.471 123.664 427.975 123.872 428.343 124.288C428.719 124.696 428.907 125.276 428.907 126.028V130H427.947V126.196C427.947 125.084 427.479 124.528 426.543 124.528C426.351 124.528 426.163 124.552 425.979 124.6C425.803 124.648 425.643 124.72 425.499 124.816C425.355 124.912 425.239 125.036 425.151 125.188C425.071 125.332 425.031 125.504 425.031 125.704V130H424.071V121.12ZM439.103 130H433.607V128.968L436.343 126.448C436.735 126.088 437.063 125.708 437.327 125.308C437.591 124.9 437.723 124.492 437.723 124.084V123.94C437.723 123.476 437.595 123.1 437.339 122.812C437.083 122.524 436.695 122.38 436.175 122.38C435.919 122.38 435.695 122.416 435.503 122.488C435.311 122.56 435.143 122.66 434.999 122.788C434.863 122.916 434.747 123.068 434.651 123.244C434.563 123.412 434.491 123.596 434.435 123.796L433.535 123.448C433.615 123.2 433.723 122.96 433.859 122.728C434.003 122.488 434.179 122.276 434.387 122.092C434.603 121.908 434.859 121.76 435.155 121.648C435.459 121.536 435.815 121.48 436.223 121.48C436.631 121.48 436.995 121.54 437.315 121.66C437.635 121.78 437.903 121.948 438.119 122.164C438.335 122.38 438.499 122.636 438.611 122.932C438.731 123.228 438.791 123.556 438.791 123.916C438.791 124.244 438.743 124.548 438.647 124.828C438.559 125.108 438.435 125.376 438.275 125.632C438.115 125.88 437.919 126.124 437.687 126.364C437.463 126.604 437.219 126.844 436.955 127.084L434.699 129.112H439.103V130ZM441.534 130.144C441.278 130.144 441.09 130.08 440.97 129.952C440.858 129.824 440.802 129.656 440.802 129.448V129.292C440.802 129.084 440.858 128.916 440.97 128.788C441.09 128.66 441.278 128.596 441.534 128.596C441.79 128.596 441.974 128.66 442.086 128.788C442.206 128.916 442.266 129.084 442.266 129.292V129.448C442.266 129.656 442.206 129.824 442.086 129.952C441.974 130.08 441.79 130.144 441.534 130.144ZM446.772 130.144C445.772 130.144 445.04 129.764 444.576 129.004C444.12 128.244 443.892 127.18 443.892 125.812C443.892 124.444 444.12 123.38 444.576 122.62C445.04 121.86 445.772 121.48 446.772 121.48C447.772 121.48 448.5 121.86 448.956 122.62C449.42 123.38 449.652 124.444 449.652 125.812C449.652 127.18 449.42 128.244 448.956 129.004C448.5 129.764 447.772 130.144 446.772 130.144ZM446.772 129.268C447.1 129.268 447.38 129.2 447.612 129.064C447.844 128.928 448.032 128.736 448.176 128.488C448.32 128.24 448.424 127.948 448.488 127.612C448.56 127.276 448.596 126.904 448.596 126.496V125.128C448.596 124.72 448.56 124.348 448.488 124.012C448.424 123.676 448.32 123.384 448.176 123.136C448.032 122.888 447.844 122.696 447.612 122.56C447.38 122.424 447.1 122.356 446.772 122.356C446.444 122.356 446.164 122.424 445.932 122.56C445.7 122.696 445.512 122.888 445.368 123.136C445.224 123.384 445.116 123.676 445.044 124.012C444.98 124.348 444.948 124.72 444.948 125.128V126.496C444.948 126.904 444.98 127.276 445.044 127.612C445.116 127.948 445.224 128.24 445.368 128.488C445.512 128.736 445.7 128.928 445.932 129.064C446.164 129.2 446.444 129.268 446.772 129.268ZM458.723 130C458.363 130 458.103 129.904 457.943 129.712C457.791 129.52 457.695 129.28 457.655 128.992H457.595C457.459 129.376 457.235 129.664 456.923 129.856C456.611 130.048 456.239 130.144 455.807 130.144C455.151 130.144 454.639 129.976 454.271 129.64C453.911 129.304 453.731 128.848 453.731 128.272C453.731 127.688 453.943 127.24 454.367 126.928C454.799 126.616 455.467 126.46 456.371 126.46H457.595V125.848C457.595 125.408 457.475 125.072 457.235 124.84C456.995 124.608 456.627 124.492 456.131 124.492C455.755 124.492 455.439 124.576 455.183 124.744C454.935 124.912 454.727 125.136 454.559 125.416L453.983 124.876C454.151 124.54 454.419 124.256 454.787 124.024C455.155 123.784 455.619 123.664 456.179 123.664C456.931 123.664 457.515 123.848 457.931 124.216C458.347 124.584 458.555 125.096 458.555 125.752V129.16H459.263V130H458.723ZM455.963 129.328C456.203 129.328 456.423 129.3 456.623 129.244C456.823 129.188 456.995 129.108 457.139 129.004C457.283 128.9 457.395 128.78 457.475 128.644C457.555 128.508 457.595 128.36 457.595 128.2V127.18H456.323C455.771 127.18 455.367 127.26 455.111 127.42C454.863 127.58 454.739 127.812 454.739 128.116V128.368C454.739 128.672 454.847 128.908 455.063 129.076C455.287 129.244 455.587 129.328 455.963 129.328ZM460.633 130V123.808H461.593V124.816H461.641C461.793 124.464 462.005 124.184 462.277 123.976C462.557 123.768 462.929 123.664 463.393 123.664C464.033 123.664 464.537 123.872 464.905 124.288C465.281 124.696 465.469 125.276 465.469 126.028V130H464.509V126.196C464.509 125.084 464.041 124.528 463.105 124.528C462.913 124.528 462.725 124.552 462.541 124.6C462.365 124.648 462.205 124.72 462.061 124.816C461.917 124.912 461.801 125.036 461.713 125.188C461.633 125.332 461.593 125.504 461.593 125.704V130H460.633ZM471.414 128.992H471.366C470.99 129.76 470.386 130.144 469.554 130.144C469.17 130.144 468.822 130.068 468.51 129.916C468.198 129.764 467.93 129.548 467.706 129.268C467.49 128.988 467.322 128.648 467.202 128.248C467.09 127.848 467.034 127.4 467.034 126.904C467.034 126.408 467.09 125.96 467.202 125.56C467.322 125.16 467.49 124.82 467.706 124.54C467.93 124.26 468.198 124.044 468.51 123.892C468.822 123.74 469.17 123.664 469.554 123.664C469.986 123.664 470.354 123.76 470.658 123.952C470.97 124.136 471.206 124.424 471.366 124.816H471.414V121.12H472.374V130H471.414V128.992ZM469.818 129.28C470.034 129.28 470.238 129.252 470.43 129.196C470.63 129.14 470.802 129.06 470.946 128.956C471.09 128.844 471.202 128.712 471.282 128.56C471.37 128.4 471.414 128.22 471.414 128.02V125.716C471.414 125.548 471.37 125.392 471.282 125.248C471.202 125.096 471.09 124.968 470.946 124.864C470.802 124.76 470.63 124.68 470.43 124.624C470.238 124.56 470.034 124.528 469.818 124.528C469.274 124.528 468.846 124.7 468.534 125.044C468.222 125.38 468.066 125.824 468.066 126.376V127.432C468.066 127.984 468.222 128.432 468.534 128.776C468.846 129.112 469.274 129.28 469.818 129.28ZM480.478 130.144C479.934 130.144 479.442 130.052 479.002 129.868C478.57 129.676 478.198 129.4 477.886 129.04C477.582 128.672 477.346 128.22 477.178 127.684C477.01 127.14 476.926 126.516 476.926 125.812C476.926 125.108 477.01 124.488 477.178 123.952C477.346 123.416 477.582 122.964 477.886 122.596C478.198 122.228 478.57 121.952 479.002 121.768C479.442 121.576 479.934 121.48 480.478 121.48C481.014 121.48 481.502 121.576 481.942 121.768C482.382 121.952 482.754 122.228 483.058 122.596C483.37 122.964 483.61 123.416 483.778 123.952C483.946 124.488 484.03 125.108 484.03 125.812C484.03 126.516 483.946 127.14 483.778 127.684C483.61 128.22 483.37 128.672 483.058 129.04C482.754 129.4 482.382 129.676 481.942 129.868C481.502 130.052 481.014 130.144 480.478 130.144ZM480.478 129.244C480.838 129.244 481.17 129.18 481.474 129.052C481.778 128.924 482.038 128.74 482.254 128.5C482.478 128.26 482.65 127.972 482.77 127.636C482.89 127.3 482.95 126.924 482.95 126.508V125.116C482.95 124.7 482.89 124.324 482.77 123.988C482.65 123.652 482.478 123.364 482.254 123.124C482.038 122.884 481.778 122.7 481.474 122.572C481.17 122.444 480.838 122.38 480.478 122.38C480.118 122.38 479.786 122.444 479.482 122.572C479.178 122.7 478.914 122.884 478.69 123.124C478.474 123.364 478.306 123.652 478.186 123.988C478.066 124.324 478.006 124.7 478.006 125.116V126.508C478.006 126.924 478.066 127.3 478.186 127.636C478.306 127.972 478.474 128.26 478.69 128.5C478.914 128.74 479.178 128.924 479.482 129.052C479.786 129.18 480.118 129.244 480.478 129.244ZM485.747 123.808H486.707V124.816H486.755C486.915 124.424 487.147 124.136 487.451 123.952C487.763 123.76 488.135 123.664 488.567 123.664C488.951 123.664 489.299 123.74 489.611 123.892C489.923 124.044 490.187 124.26 490.403 124.54C490.627 124.82 490.795 125.16 490.907 125.56C491.027 125.96 491.087 126.408 491.087 126.904C491.087 127.4 491.027 127.848 490.907 128.248C490.795 128.648 490.627 128.988 490.403 129.268C490.187 129.548 489.923 129.764 489.611 129.916C489.299 130.068 488.951 130.144 488.567 130.144C487.727 130.144 487.123 129.76 486.755 128.992H486.707V132.4H485.747V123.808ZM488.303 129.28C488.847 129.28 489.275 129.112 489.587 128.776C489.899 128.432 490.055 127.984 490.055 127.432V126.376C490.055 125.824 489.899 125.38 489.587 125.044C489.275 124.7 488.847 124.528 488.303 124.528C488.087 124.528 487.879 124.56 487.679 124.624C487.487 124.68 487.319 124.76 487.175 124.864C487.031 124.968 486.915 125.096 486.827 125.248C486.747 125.392 486.707 125.548 486.707 125.716V128.02C486.707 128.22 486.747 128.4 486.827 128.56C486.915 128.712 487.031 128.844 487.175 128.956C487.319 129.06 487.487 129.14 487.679 129.196C487.879 129.252 488.087 129.28 488.303 129.28ZM495.036 130.144C494.612 130.144 494.228 130.068 493.884 129.916C493.548 129.764 493.256 129.548 493.008 129.268C492.768 128.98 492.58 128.64 492.444 128.248C492.316 127.848 492.252 127.4 492.252 126.904C492.252 126.416 492.316 125.972 492.444 125.572C492.58 125.172 492.768 124.832 493.008 124.552C493.256 124.264 493.548 124.044 493.884 123.892C494.228 123.74 494.612 123.664 495.036 123.664C495.452 123.664 495.824 123.74 496.152 123.892C496.48 124.044 496.76 124.256 496.992 124.528C497.224 124.792 497.4 125.108 497.52 125.476C497.648 125.844 497.712 126.248 497.712 126.688V127.144H493.26V127.432C493.26 127.696 493.3 127.944 493.38 128.176C493.468 128.4 493.588 128.596 493.74 128.764C493.9 128.932 494.092 129.064 494.316 129.16C494.548 129.256 494.808 129.304 495.096 129.304C495.488 129.304 495.828 129.212 496.116 129.028C496.412 128.844 496.64 128.58 496.8 128.236L497.484 128.728C497.284 129.152 496.972 129.496 496.548 129.76C496.124 130.016 495.62 130.144 495.036 130.144ZM495.036 124.468C494.772 124.468 494.532 124.516 494.316 124.612C494.1 124.7 493.912 124.828 493.752 124.996C493.6 125.164 493.48 125.364 493.392 125.596C493.304 125.82 493.26 126.068 493.26 126.34V126.424H496.68V126.292C496.68 125.74 496.528 125.3 496.224 124.972C495.928 124.636 495.532 124.468 495.036 124.468ZM499.293 130V123.808H500.253V124.816H500.301C500.453 124.464 500.665 124.184 500.937 123.976C501.217 123.768 501.589 123.664 502.053 123.664C502.693 123.664 503.197 123.872 503.565 124.288C503.941 124.696 504.129 125.276 504.129 126.028V130H503.169V126.196C503.169 125.084 502.701 124.528 501.765 124.528C501.573 124.528 501.385 124.552 501.201 124.6C501.025 124.648 500.865 124.72 500.721 124.816C500.577 124.912 500.461 125.036 500.373 125.188C500.293 125.332 500.253 125.504 500.253 125.704V130H499.293ZM505.814 130V129.16H506.99V122.464H505.814V121.624H509.174V122.464H507.998V129.16H509.174V130H505.814ZM511.014 121.624H513.822C514.342 121.624 514.814 121.712 515.238 121.888C515.662 122.064 516.022 122.328 516.318 122.68C516.622 123.024 516.854 123.46 517.014 123.988C517.174 124.508 517.254 125.116 517.254 125.812C517.254 126.508 517.174 127.12 517.014 127.648C516.854 128.168 516.622 128.604 516.318 128.956C516.022 129.3 515.662 129.56 515.238 129.736C514.814 129.912 514.342 130 513.822 130H511.014V121.624ZM513.822 129.112C514.166 129.112 514.482 129.056 514.77 128.944C515.058 128.824 515.306 128.652 515.514 128.428C515.722 128.204 515.882 127.932 515.994 127.612C516.114 127.284 516.174 126.912 516.174 126.496V125.128C516.174 124.712 516.114 124.344 515.994 124.024C515.882 123.696 515.722 123.42 515.514 123.196C515.306 122.972 515.058 122.804 514.77 122.692C514.482 122.572 514.166 122.512 513.822 122.512H512.022V129.112H513.822ZM524.853 130.144C523.789 130.144 522.961 129.784 522.369 129.064C521.777 128.336 521.481 127.268 521.481 125.86C521.481 124.452 521.777 123.372 522.369 122.62C522.961 121.86 523.789 121.48 524.853 121.48C525.557 121.48 526.145 121.64 526.617 121.96C527.097 122.28 527.469 122.732 527.733 123.316L526.917 123.808C526.749 123.376 526.493 123.032 526.149 122.776C525.805 122.512 525.373 122.38 524.853 122.38C524.493 122.38 524.169 122.448 523.881 122.584C523.601 122.72 523.361 122.916 523.161 123.172C522.969 123.42 522.821 123.72 522.717 124.072C522.613 124.416 522.561 124.804 522.561 125.236V126.484C522.561 127.348 522.761 128.024 523.161 128.512C523.561 129 524.125 129.244 524.853 129.244C525.389 129.244 525.837 129.108 526.197 128.836C526.557 128.556 526.821 128.188 526.989 127.732L527.793 128.236C527.529 128.828 527.149 129.296 526.653 129.64C526.157 129.976 525.557 130.144 524.853 130.144ZM531.598 130.144C531.182 130.144 530.802 130.068 530.458 129.916C530.114 129.764 529.818 129.548 529.57 129.268C529.33 128.98 529.142 128.64 529.006 128.248C528.87 127.848 528.802 127.4 528.802 126.904C528.802 126.416 528.87 125.972 529.006 125.572C529.142 125.172 529.33 124.832 529.57 124.552C529.818 124.264 530.114 124.044 530.458 123.892C530.802 123.74 531.182 123.664 531.598 123.664C532.014 123.664 532.39 123.74 532.726 123.892C533.07 124.044 533.366 124.264 533.614 124.552C533.862 124.832 534.054 125.172 534.19 125.572C534.326 125.972 534.394 126.416 534.394 126.904C534.394 127.4 534.326 127.848 534.19 128.248C534.054 128.64 533.862 128.98 533.614 129.268C533.366 129.548 533.07 129.764 532.726 129.916C532.39 130.068 532.014 130.144 531.598 130.144ZM531.598 129.292C532.118 129.292 532.542 129.132 532.87 128.812C533.198 128.492 533.362 128.004 533.362 127.348V126.46C533.362 125.804 533.198 125.316 532.87 124.996C532.542 124.676 532.118 124.516 531.598 124.516C531.078 124.516 530.654 124.676 530.326 124.996C529.998 125.316 529.834 125.804 529.834 126.46V127.348C529.834 128.004 529.998 128.492 530.326 128.812C530.654 129.132 531.078 129.292 531.598 129.292ZM535.973 130V123.808H536.933V124.816H536.981C537.133 124.464 537.345 124.184 537.617 123.976C537.897 123.768 538.269 123.664 538.733 123.664C539.373 123.664 539.877 123.872 540.245 124.288C540.621 124.696 540.809 125.276 540.809 126.028V130H539.849V126.196C539.849 125.084 539.381 124.528 538.445 124.528C538.253 124.528 538.065 124.552 537.881 124.6C537.705 124.648 537.545 124.72 537.401 124.816C537.257 124.912 537.141 125.036 537.053 125.188C536.973 125.332 536.933 125.504 536.933 125.704V130H535.973ZM542.793 130V123.808H543.753V124.816H543.801C543.953 124.464 544.165 124.184 544.437 123.976C544.717 123.768 545.089 123.664 545.553 123.664C546.193 123.664 546.697 123.872 547.065 124.288C547.441 124.696 547.629 125.276 547.629 126.028V130H546.669V126.196C546.669 125.084 546.201 124.528 545.265 124.528C545.073 124.528 544.885 124.552 544.701 124.6C544.525 124.648 544.365 124.72 544.221 124.816C544.077 124.912 543.961 125.036 543.873 125.188C543.793 125.332 543.753 125.504 543.753 125.704V130H542.793ZM551.942 130.144C551.518 130.144 551.134 130.068 550.79 129.916C550.454 129.764 550.162 129.548 549.914 129.268C549.674 128.98 549.486 128.64 549.35 128.248C549.222 127.848 549.158 127.4 549.158 126.904C549.158 126.416 549.222 125.972 549.35 125.572C549.486 125.172 549.674 124.832 549.914 124.552C550.162 124.264 550.454 124.044 550.79 123.892C551.134 123.74 551.518 123.664 551.942 123.664C552.358 123.664 552.73 123.74 553.058 123.892C553.386 124.044 553.666 124.256 553.898 124.528C554.13 124.792 554.306 125.108 554.426 125.476C554.554 125.844 554.618 126.248 554.618 126.688V127.144H550.166V127.432C550.166 127.696 550.206 127.944 550.286 128.176C550.374 128.4 550.494 128.596 550.646 128.764C550.806 128.932 550.998 129.064 551.222 129.16C551.454 129.256 551.714 129.304 552.002 129.304C552.394 129.304 552.734 129.212 553.022 129.028C553.318 128.844 553.546 128.58 553.706 128.236L554.39 128.728C554.19 129.152 553.878 129.496 553.454 129.76C553.03 130.016 552.526 130.144 551.942 130.144ZM551.942 124.468C551.678 124.468 551.438 124.516 551.222 124.612C551.006 124.7 550.818 124.828 550.658 124.996C550.506 125.164 550.386 125.364 550.298 125.596C550.21 125.82 550.166 126.068 550.166 126.34V126.424H553.586V126.292C553.586 125.74 553.434 125.3 553.13 124.972C552.834 124.636 552.438 124.468 551.942 124.468ZM558.504 130.144C558.072 130.144 557.684 130.068 557.34 129.916C556.996 129.764 556.704 129.548 556.464 129.268C556.232 128.988 556.052 128.648 555.924 128.248C555.804 127.848 555.744 127.4 555.744 126.904C555.744 126.408 555.804 125.96 555.924 125.56C556.052 125.16 556.232 124.82 556.464 124.54C556.704 124.26 556.996 124.044 557.34 123.892C557.684 123.74 558.072 123.664 558.504 123.664C559.12 123.664 559.612 123.8 559.98 124.072C560.356 124.336 560.636 124.684 560.82 125.116L560.016 125.524C559.904 125.204 559.72 124.956 559.464 124.78C559.208 124.604 558.888 124.516 558.504 124.516C558.216 124.516 557.964 124.564 557.748 124.66C557.532 124.748 557.352 124.876 557.208 125.044C557.064 125.204 556.956 125.4 556.884 125.632C556.812 125.856 556.776 126.104 556.776 126.376V127.432C556.776 127.976 556.92 128.424 557.208 128.776C557.504 129.12 557.936 129.292 558.504 129.292C559.28 129.292 559.84 128.932 560.184 128.212L560.88 128.68C560.68 129.128 560.38 129.484 559.98 129.748C559.588 130.012 559.096 130.144 558.504 130.144ZM563.603 130C563.267 130 563.011 129.908 562.835 129.724C562.667 129.532 562.583 129.284 562.583 128.98V124.648H561.563V123.808H562.139C562.347 123.808 562.487 123.768 562.559 123.688C562.639 123.6 562.679 123.452 562.679 123.244V122.092H563.543V123.808H564.899V124.648H563.543V129.16H564.803V130H563.603ZM567.054 130.144C566.798 130.144 566.61 130.08 566.49 129.952C566.378 129.824 566.322 129.656 566.322 129.448V129.292C566.322 129.084 566.378 128.916 566.49 128.788C566.61 128.66 566.798 128.596 567.054 128.596C567.31 128.596 567.494 128.66 567.606 128.788C567.726 128.916 567.786 129.084 567.786 129.292V129.448C567.786 129.656 567.726 129.824 567.606 129.952C567.494 130.08 567.31 130.144 567.054 130.144Z" fill="#470B25"/>
        <line opacity="0.5" x1="702" y1="214.322" x2="702" y2="-15.6778" stroke="#FF6B8F" stroke-width="4"/>
    </g>
    <defs>
        <clipPath id="clip0">
            <rect width="800" height="200" fill="white"/>
        </clipPath>
    </defs>
</svg>
