<svg width="800" height="200" viewBox="0 0 800 200" fill="none" xmlns="http://www.w3.org/2000/svg">
    <g clip-path="url(#clip0)">
        <rect width="800" height="200" fill="white"/>
        <path d="M201.599 76.4965L189.924 99.763C189.724 100.164 189.606 100.412 189.606 100.412H184.294C184.294 100.412 184.554 99.9516 184.742 99.5625L190.526 88.0413L184.294 75.6474C184.294 75.6474 184.837 75.6474 185.274 75.6474H189.606C189.606 75.6474 189.712 75.895 189.913 76.296L193.159 82.77L196.417 76.296C196.617 75.895 196.719 75.6474 196.719 75.6474H202C202 75.6474 201.787 76.1073 201.599 76.4965Z" fill="#00A571"/>
        <path d="M172.419 90.6946C175.642 89.8101 178.014 86.862 178.038 83.3715C178.038 83.3479 178.038 83.3361 178.038 83.3125C178.038 83.2889 178.038 83.2771 178.038 83.2535C178.002 79.0436 174.579 75.6474 170.365 75.6474L160.332 75.6474V80.1083C160.332 80.1083 160.367 80.1757 160.414 80.27L162.716 83.9965L164.109 86.2488H160.934H160.344V99.8101C160.344 100.14 160.344 100.412 160.344 100.412H165.065C165.065 100.412 165.065 100.14 165.065 99.8101V90.9658H167.048L172.537 99.8455L172.856 100.4H178.404C178.404 100.4 178.12 99.8927 177.884 99.5035L172.419 90.6946ZM170.377 86.2606H169.681L169.622 86.1663L167.485 82.7111L166.033 80.3644H170.377C172.006 80.3644 173.328 81.6851 173.328 83.3125C173.328 84.9398 172.006 86.2606 170.377 86.2606Z" fill="#00A571"/>
        <path d="M142.036 75.6474C135.189 75.6474 129.641 81.1898 129.641 88.0295C129.641 94.8691 135.189 100.412 142.036 100.412C148.882 100.412 154.43 94.8691 154.43 88.0295C154.43 81.1898 148.882 75.6474 142.036 75.6474ZM142.036 95.6946C137.798 95.6946 134.363 92.263 134.363 88.0295C134.363 83.796 137.798 80.3644 142.036 80.3644C146.273 80.3644 149.708 83.796 149.708 88.0295C149.708 92.263 146.273 95.6946 142.036 95.6946Z" fill="#00A571"/>
        <path d="M108.135 63.1356L108.394 63L111.038 64.3266L113.671 65.6474L120.788 69.2205C120.788 69.2205 120.788 69.4917 120.788 69.928L120.788 74.4681C120.788 74.4681 120.328 74.2441 119.939 74.0554L108.406 68.2771L96.8499 74.0554C96.4604 74.2441 96 74.4681 96 74.4681L96 69.2205C96 69.2205 96.2479 69.0908 96.6492 68.8903L103.13 65.6474L105.762 64.3266L108.135 63.1356Z" fill="#00A571"/>
        <path d="M108.654 112.864L108.394 113L105.75 111.673L103.118 110.353L96 106.78C96 106.78 96 106.508 96 106.072L96 101.532C96 101.532 96.4604 101.756 96.8499 101.945L108.382 107.723L119.939 101.945C120.328 101.756 120.788 101.532 120.788 101.532L120.788 106.78C120.788 106.78 120.541 106.909 120.139 107.11L113.659 110.353L111.027 111.673L108.654 112.864Z" fill="#00A571"/>
        <path d="M108.394 75.6179C101.548 75.6179 96 81.1604 96 88C96 94.8396 101.548 100.382 108.394 100.382C115.241 100.382 120.788 94.8396 120.788 88C120.788 81.1604 115.241 75.6179 108.394 75.6179ZM108.394 95.6651C104.157 95.6651 100.722 92.2335 100.722 88C100.722 83.7665 104.157 80.3349 108.394 80.3349C112.632 80.3349 116.067 83.7665 116.067 88C116.067 92.2335 112.632 95.6651 108.394 95.6651Z" fill="#00A571"/>
        <path d="M225.746 75.3008L216.184 101H212.281L221.861 75.3008H225.746ZM258.424 101H253.555L245.486 89.3633L243.008 91.3848V101H238.807V75.3008H243.008V87.5703C244.156 86.1641 245.299 84.8105 246.436 83.5098L253.379 75.3008H258.16C253.672 80.5742 250.455 84.3301 248.51 86.5684L258.424 101ZM269.885 101.352C266.861 101.352 264.494 100.473 262.783 98.7148C261.084 96.9453 260.234 94.5137 260.234 91.4199C260.234 88.2441 261.025 85.748 262.607 83.9316C264.189 82.1152 266.363 81.207 269.129 81.207C271.695 81.207 273.723 81.9863 275.211 83.5449C276.699 85.1035 277.443 87.248 277.443 89.9785V92.2109H264.488C264.547 94.0977 265.057 95.5508 266.018 96.5703C266.979 97.5781 268.332 98.082 270.078 98.082C271.227 98.082 272.293 97.9766 273.277 97.7656C274.273 97.543 275.34 97.1797 276.477 96.6758V100.033C275.469 100.514 274.449 100.854 273.418 101.053C272.387 101.252 271.209 101.352 269.885 101.352ZM269.129 84.3359C267.816 84.3359 266.762 84.752 265.965 85.584C265.18 86.416 264.711 87.6289 264.559 89.2227H273.383C273.359 87.6172 272.973 86.4043 272.223 85.584C271.473 84.752 270.441 84.3359 269.129 84.3359ZM289.379 98.0117C290.387 98.0117 291.395 97.8535 292.402 97.5371V100.648C291.945 100.848 291.354 101.012 290.627 101.141C289.912 101.281 289.168 101.352 288.395 101.352C284.48 101.352 282.523 99.2891 282.523 95.1641V84.6875H279.869V82.8594L282.717 81.3477L284.123 77.2344H286.672V81.5586H292.209V84.6875H286.672V95.0938C286.672 96.0898 286.918 96.8281 287.41 97.3086C287.914 97.7773 288.57 98.0117 289.379 98.0117ZM313.549 91.2441C313.549 94.4199 312.734 96.8984 311.105 98.6797C309.477 100.461 307.209 101.352 304.303 101.352C302.486 101.352 300.881 100.941 299.486 100.121C298.092 99.3008 297.02 98.123 296.27 96.5879C295.52 95.0527 295.145 93.2715 295.145 91.2441C295.145 88.0918 295.953 85.6309 297.57 83.8613C299.188 82.0918 301.467 81.207 304.408 81.207C307.221 81.207 309.447 82.1152 311.088 83.9316C312.729 85.7363 313.549 88.1738 313.549 91.2441ZM299.398 91.2441C299.398 95.7324 301.057 97.9766 304.373 97.9766C307.654 97.9766 309.295 95.7324 309.295 91.2441C309.295 86.8027 307.643 84.582 304.338 84.582C302.604 84.582 301.344 85.1562 300.559 86.3047C299.785 87.4531 299.398 89.0996 299.398 91.2441Z" fill="#6BE2BD"/>
        <path d="M134.248 130.144C133.704 130.144 133.212 130.052 132.772 129.868C132.34 129.676 131.968 129.4 131.656 129.04C131.352 128.672 131.116 128.22 130.948 127.684C130.78 127.14 130.696 126.516 130.696 125.812C130.696 125.108 130.78 124.488 130.948 123.952C131.116 123.416 131.352 122.964 131.656 122.596C131.968 122.228 132.34 121.952 132.772 121.768C133.212 121.576 133.704 121.48 134.248 121.48C134.784 121.48 135.272 121.576 135.712 121.768C136.152 121.952 136.524 122.228 136.828 122.596C137.14 122.964 137.38 123.416 137.548 123.952C137.716 124.488 137.8 125.108 137.8 125.812C137.8 126.516 137.716 127.14 137.548 127.684C137.38 128.22 137.14 128.672 136.828 129.04C136.524 129.4 136.152 129.676 135.712 129.868C135.272 130.052 134.784 130.144 134.248 130.144ZM134.248 129.244C134.608 129.244 134.94 129.18 135.244 129.052C135.548 128.924 135.808 128.74 136.024 128.5C136.248 128.26 136.42 127.972 136.54 127.636C136.66 127.3 136.72 126.924 136.72 126.508V125.116C136.72 124.7 136.66 124.324 136.54 123.988C136.42 123.652 136.248 123.364 136.024 123.124C135.808 122.884 135.548 122.7 135.244 122.572C134.94 122.444 134.608 122.38 134.248 122.38C133.888 122.38 133.556 122.444 133.252 122.572C132.948 122.7 132.684 122.884 132.46 123.124C132.244 123.364 132.076 123.652 131.956 123.988C131.836 124.324 131.776 124.7 131.776 125.116V126.508C131.776 126.924 131.836 127.3 131.956 127.636C132.076 127.972 132.244 128.26 132.46 128.5C132.684 128.74 132.948 128.924 133.252 129.052C133.556 129.18 133.888 129.244 134.248 129.244ZM139.516 123.808H140.476V124.816H140.524C140.684 124.424 140.916 124.136 141.22 123.952C141.532 123.76 141.904 123.664 142.336 123.664C142.72 123.664 143.068 123.74 143.38 123.892C143.692 124.044 143.956 124.26 144.172 124.54C144.396 124.82 144.564 125.16 144.676 125.56C144.796 125.96 144.856 126.408 144.856 126.904C144.856 127.4 144.796 127.848 144.676 128.248C144.564 128.648 144.396 128.988 144.172 129.268C143.956 129.548 143.692 129.764 143.38 129.916C143.068 130.068 142.72 130.144 142.336 130.144C141.496 130.144 140.892 129.76 140.524 128.992H140.476V132.4H139.516V123.808ZM142.072 129.28C142.616 129.28 143.044 129.112 143.356 128.776C143.668 128.432 143.824 127.984 143.824 127.432V126.376C143.824 125.824 143.668 125.38 143.356 125.044C143.044 124.7 142.616 124.528 142.072 124.528C141.856 124.528 141.648 124.56 141.448 124.624C141.256 124.68 141.088 124.76 140.944 124.864C140.8 124.968 140.684 125.096 140.596 125.248C140.516 125.392 140.476 125.548 140.476 125.716V128.02C140.476 128.22 140.516 128.4 140.596 128.56C140.684 128.712 140.8 128.844 140.944 128.956C141.088 129.06 141.256 129.14 141.448 129.196C141.648 129.252 141.856 129.28 142.072 129.28ZM148.805 130.144C148.381 130.144 147.997 130.068 147.653 129.916C147.317 129.764 147.025 129.548 146.777 129.268C146.537 128.98 146.349 128.64 146.213 128.248C146.085 127.848 146.021 127.4 146.021 126.904C146.021 126.416 146.085 125.972 146.213 125.572C146.349 125.172 146.537 124.832 146.777 124.552C147.025 124.264 147.317 124.044 147.653 123.892C147.997 123.74 148.381 123.664 148.805 123.664C149.221 123.664 149.593 123.74 149.921 123.892C150.249 124.044 150.529 124.256 150.761 124.528C150.993 124.792 151.169 125.108 151.289 125.476C151.417 125.844 151.481 126.248 151.481 126.688V127.144H147.029V127.432C147.029 127.696 147.069 127.944 147.149 128.176C147.237 128.4 147.357 128.596 147.509 128.764C147.669 128.932 147.861 129.064 148.085 129.16C148.317 129.256 148.577 129.304 148.865 129.304C149.257 129.304 149.597 129.212 149.885 129.028C150.181 128.844 150.409 128.58 150.569 128.236L151.253 128.728C151.053 129.152 150.741 129.496 150.317 129.76C149.893 130.016 149.389 130.144 148.805 130.144ZM148.805 124.468C148.541 124.468 148.301 124.516 148.085 124.612C147.869 124.7 147.681 124.828 147.521 124.996C147.369 125.164 147.249 125.364 147.161 125.596C147.073 125.82 147.029 126.068 147.029 126.34V126.424H150.449V126.292C150.449 125.74 150.297 125.3 149.993 124.972C149.697 124.636 149.301 124.468 148.805 124.468ZM153.063 130V123.808H154.023V124.816H154.071C154.223 124.464 154.435 124.184 154.707 123.976C154.987 123.768 155.359 123.664 155.823 123.664C156.463 123.664 156.967 123.872 157.335 124.288C157.711 124.696 157.899 125.276 157.899 126.028V130H156.939V126.196C156.939 125.084 156.471 124.528 155.535 124.528C155.343 124.528 155.155 124.552 154.971 124.6C154.795 124.648 154.635 124.72 154.491 124.816C154.347 124.912 154.231 125.036 154.143 125.188C154.063 125.332 154.023 125.504 154.023 125.704V130H153.063ZM165.167 130.144C164.487 130.144 163.907 130.016 163.427 129.76C162.947 129.496 162.539 129.136 162.203 128.68L162.947 128.056C163.243 128.448 163.571 128.748 163.931 128.956C164.291 129.156 164.715 129.256 165.203 129.256C165.803 129.256 166.259 129.112 166.571 128.824C166.891 128.536 167.051 128.152 167.051 127.672C167.051 127.272 166.931 126.964 166.691 126.748C166.451 126.532 166.055 126.36 165.503 126.232L164.819 126.076C164.051 125.9 163.463 125.636 163.055 125.284C162.655 124.924 162.455 124.42 162.455 123.772C162.455 123.404 162.523 123.076 162.659 122.788C162.795 122.5 162.983 122.26 163.223 122.068C163.471 121.876 163.763 121.732 164.099 121.636C164.443 121.532 164.819 121.48 165.227 121.48C165.859 121.48 166.399 121.596 166.847 121.828C167.303 122.06 167.687 122.4 167.999 122.848L167.243 123.4C167.011 123.08 166.731 122.828 166.403 122.644C166.075 122.46 165.667 122.368 165.179 122.368C164.643 122.368 164.219 122.484 163.907 122.716C163.603 122.94 163.451 123.28 163.451 123.736C163.451 124.136 163.579 124.44 163.835 124.648C164.099 124.848 164.495 125.008 165.023 125.128L165.707 125.284C166.531 125.468 167.127 125.748 167.495 126.124C167.863 126.5 168.047 127 168.047 127.624C168.047 128.008 167.979 128.356 167.843 128.668C167.715 128.98 167.527 129.244 167.279 129.46C167.031 129.676 166.727 129.844 166.367 129.964C166.015 130.084 165.615 130.144 165.167 130.144ZM172.032 130.144C171.616 130.144 171.236 130.068 170.892 129.916C170.548 129.764 170.252 129.548 170.004 129.268C169.764 128.98 169.576 128.64 169.44 128.248C169.304 127.848 169.236 127.4 169.236 126.904C169.236 126.416 169.304 125.972 169.44 125.572C169.576 125.172 169.764 124.832 170.004 124.552C170.252 124.264 170.548 124.044 170.892 123.892C171.236 123.74 171.616 123.664 172.032 123.664C172.448 123.664 172.824 123.74 173.16 123.892C173.504 124.044 173.8 124.264 174.048 124.552C174.296 124.832 174.488 125.172 174.624 125.572C174.76 125.972 174.828 126.416 174.828 126.904C174.828 127.4 174.76 127.848 174.624 128.248C174.488 128.64 174.296 128.98 174.048 129.268C173.8 129.548 173.504 129.764 173.16 129.916C172.824 130.068 172.448 130.144 172.032 130.144ZM172.032 129.292C172.552 129.292 172.976 129.132 173.304 128.812C173.632 128.492 173.796 128.004 173.796 127.348V126.46C173.796 125.804 173.632 125.316 173.304 124.996C172.976 124.676 172.552 124.516 172.032 124.516C171.512 124.516 171.088 124.676 170.76 124.996C170.432 125.316 170.268 125.804 170.268 126.46V127.348C170.268 128.004 170.432 128.492 170.76 128.812C171.088 129.132 171.512 129.292 172.032 129.292ZM180.223 128.992H180.175C180.111 129.136 180.031 129.28 179.935 129.424C179.847 129.56 179.735 129.684 179.599 129.796C179.463 129.9 179.299 129.984 179.107 130.048C178.915 130.112 178.691 130.144 178.435 130.144C177.795 130.144 177.287 129.94 176.911 129.532C176.535 129.116 176.347 128.532 176.347 127.78V123.808H177.307V127.612C177.307 128.724 177.779 129.28 178.723 129.28C178.915 129.28 179.099 129.256 179.275 129.208C179.459 129.16 179.619 129.088 179.755 128.992C179.899 128.896 180.011 128.776 180.091 128.632C180.179 128.48 180.223 128.3 180.223 128.092V123.808H181.183V130H180.223V128.992ZM183.227 130V123.808H184.187V124.948H184.247C184.359 124.652 184.559 124.388 184.847 124.156C185.135 123.924 185.531 123.808 186.035 123.808H186.407V124.768H185.843C185.323 124.768 184.915 124.868 184.619 125.068C184.331 125.26 184.187 125.504 184.187 125.8V130H183.227ZM189.879 130.144C189.447 130.144 189.059 130.068 188.715 129.916C188.371 129.764 188.079 129.548 187.839 129.268C187.607 128.988 187.427 128.648 187.299 128.248C187.179 127.848 187.119 127.4 187.119 126.904C187.119 126.408 187.179 125.96 187.299 125.56C187.427 125.16 187.607 124.82 187.839 124.54C188.079 124.26 188.371 124.044 188.715 123.892C189.059 123.74 189.447 123.664 189.879 123.664C190.495 123.664 190.987 123.8 191.355 124.072C191.731 124.336 192.011 124.684 192.195 125.116L191.391 125.524C191.279 125.204 191.095 124.956 190.839 124.78C190.583 124.604 190.263 124.516 189.879 124.516C189.591 124.516 189.339 124.564 189.123 124.66C188.907 124.748 188.727 124.876 188.583 125.044C188.439 125.204 188.331 125.4 188.259 125.632C188.187 125.856 188.151 126.104 188.151 126.376V127.432C188.151 127.976 188.295 128.424 188.583 128.776C188.879 129.12 189.311 129.292 189.879 129.292C190.655 129.292 191.215 128.932 191.559 128.212L192.255 128.68C192.055 129.128 191.755 129.484 191.355 129.748C190.963 130.012 190.471 130.144 189.879 130.144ZM195.868 130.144C195.444 130.144 195.06 130.068 194.716 129.916C194.38 129.764 194.088 129.548 193.84 129.268C193.6 128.98 193.412 128.64 193.276 128.248C193.148 127.848 193.084 127.4 193.084 126.904C193.084 126.416 193.148 125.972 193.276 125.572C193.412 125.172 193.6 124.832 193.84 124.552C194.088 124.264 194.38 124.044 194.716 123.892C195.06 123.74 195.444 123.664 195.868 123.664C196.284 123.664 196.656 123.74 196.984 123.892C197.312 124.044 197.592 124.256 197.824 124.528C198.056 124.792 198.232 125.108 198.352 125.476C198.48 125.844 198.544 126.248 198.544 126.688V127.144H194.092V127.432C194.092 127.696 194.132 127.944 194.212 128.176C194.3 128.4 194.42 128.596 194.572 128.764C194.732 128.932 194.924 129.064 195.148 129.16C195.38 129.256 195.64 129.304 195.928 129.304C196.32 129.304 196.66 129.212 196.948 129.028C197.244 128.844 197.472 128.58 197.632 128.236L198.316 128.728C198.116 129.152 197.804 129.496 197.38 129.76C196.956 130.016 196.452 130.144 195.868 130.144ZM195.868 124.468C195.604 124.468 195.364 124.516 195.148 124.612C194.932 124.7 194.744 124.828 194.584 124.996C194.432 125.164 194.312 125.364 194.224 125.596C194.136 125.82 194.092 126.068 194.092 126.34V126.424H197.512V126.292C197.512 125.74 197.36 125.3 197.056 124.972C196.76 124.636 196.364 124.468 195.868 124.468ZM207.809 129.016C207.721 129.12 207.609 129.24 207.473 129.376C207.337 129.504 207.169 129.624 206.969 129.736C206.777 129.848 206.545 129.944 206.273 130.024C206.009 130.104 205.709 130.144 205.373 130.144C204.957 130.144 204.589 130.084 204.269 129.964C203.949 129.844 203.681 129.68 203.465 129.472C203.249 129.256 203.085 129.008 202.973 128.728C202.861 128.448 202.805 128.148 202.805 127.828C202.805 127.516 202.853 127.24 202.949 127C203.045 126.76 203.173 126.548 203.333 126.364C203.501 126.172 203.685 126.004 203.885 125.86C204.093 125.716 204.305 125.584 204.521 125.464C204.233 125.16 204.001 124.852 203.825 124.54C203.657 124.22 203.573 123.872 203.573 123.496C203.573 123.216 203.625 122.952 203.729 122.704C203.833 122.456 203.977 122.244 204.161 122.068C204.353 121.884 204.581 121.74 204.845 121.636C205.117 121.532 205.417 121.48 205.745 121.48C206.041 121.48 206.313 121.524 206.561 121.612C206.809 121.7 207.021 121.824 207.197 121.984C207.373 122.136 207.509 122.324 207.605 122.548C207.709 122.772 207.761 123.016 207.761 123.28C207.761 123.56 207.709 123.812 207.605 124.036C207.509 124.252 207.373 124.452 207.197 124.636C207.021 124.82 206.817 124.992 206.585 125.152C206.353 125.304 206.105 125.452 205.841 125.596L207.725 127.624C207.845 127.32 207.937 126.996 208.001 126.652C208.065 126.308 208.105 125.956 208.121 125.596H209.753V126.412H208.901C208.845 126.764 208.769 127.096 208.673 127.408C208.577 127.712 208.461 127.996 208.325 128.26L209.957 130H208.709L207.809 129.016ZM205.697 122.284C205.353 122.284 205.069 122.392 204.845 122.608C204.629 122.824 204.521 123.092 204.521 123.412V123.556C204.521 123.796 204.593 124.04 204.737 124.288C204.889 124.528 205.085 124.784 205.325 125.056C205.517 124.952 205.701 124.844 205.877 124.732C206.061 124.612 206.221 124.484 206.357 124.348C206.501 124.212 206.617 124.072 206.705 123.928C206.793 123.776 206.837 123.616 206.837 123.448V123.304C206.837 122.976 206.721 122.724 206.489 122.548C206.265 122.372 206.001 122.284 205.697 122.284ZM205.457 129.304C205.865 129.304 206.217 129.228 206.513 129.076C206.809 128.916 207.061 128.704 207.269 128.44L205.025 126.016C204.865 126.104 204.709 126.196 204.557 126.292C204.413 126.388 204.285 126.504 204.173 126.64C204.061 126.768 203.969 126.92 203.897 127.096C203.833 127.264 203.801 127.464 203.801 127.696V127.876C203.801 128.316 203.949 128.664 204.245 128.92C204.549 129.176 204.953 129.304 205.457 129.304ZM217.177 130.144C216.113 130.144 215.285 129.784 214.693 129.064C214.101 128.336 213.805 127.268 213.805 125.86C213.805 124.452 214.101 123.372 214.693 122.62C215.285 121.86 216.113 121.48 217.177 121.48C217.881 121.48 218.469 121.64 218.941 121.96C219.421 122.28 219.793 122.732 220.057 123.316L219.241 123.808C219.073 123.376 218.817 123.032 218.473 122.776C218.129 122.512 217.697 122.38 217.177 122.38C216.817 122.38 216.493 122.448 216.205 122.584C215.925 122.72 215.685 122.916 215.485 123.172C215.293 123.42 215.145 123.72 215.041 124.072C214.937 124.416 214.885 124.804 214.885 125.236V126.484C214.885 127.348 215.085 128.024 215.485 128.512C215.885 129 216.449 129.244 217.177 129.244C217.713 129.244 218.161 129.108 218.521 128.836C218.881 128.556 219.145 128.188 219.313 127.732L220.117 128.236C219.853 128.828 219.473 129.296 218.977 129.64C218.481 129.976 217.881 130.144 217.177 130.144ZM222.603 130C222.267 130 222.011 129.908 221.835 129.724C221.667 129.532 221.583 129.292 221.583 129.004V121.12H222.543V129.16H223.455V130H222.603ZM227.192 130.144C226.776 130.144 226.396 130.068 226.052 129.916C225.708 129.764 225.412 129.548 225.164 129.268C224.924 128.98 224.736 128.64 224.6 128.248C224.464 127.848 224.396 127.4 224.396 126.904C224.396 126.416 224.464 125.972 224.6 125.572C224.736 125.172 224.924 124.832 225.164 124.552C225.412 124.264 225.708 124.044 226.052 123.892C226.396 123.74 226.776 123.664 227.192 123.664C227.608 123.664 227.984 123.74 228.32 123.892C228.664 124.044 228.96 124.264 229.208 124.552C229.456 124.832 229.648 125.172 229.784 125.572C229.92 125.972 229.988 126.416 229.988 126.904C229.988 127.4 229.92 127.848 229.784 128.248C229.648 128.64 229.456 128.98 229.208 129.268C228.96 129.548 228.664 129.764 228.32 129.916C227.984 130.068 227.608 130.144 227.192 130.144ZM227.192 129.292C227.712 129.292 228.136 129.132 228.464 128.812C228.792 128.492 228.956 128.004 228.956 127.348V126.46C228.956 125.804 228.792 125.316 228.464 124.996C228.136 124.676 227.712 124.516 227.192 124.516C226.672 124.516 226.248 124.676 225.92 124.996C225.592 125.316 225.428 125.804 225.428 126.46V127.348C225.428 128.004 225.592 128.492 225.92 128.812C226.248 129.132 226.672 129.292 227.192 129.292ZM235.383 128.992H235.335C235.271 129.136 235.191 129.28 235.095 129.424C235.007 129.56 234.895 129.684 234.759 129.796C234.623 129.9 234.459 129.984 234.267 130.048C234.075 130.112 233.851 130.144 233.595 130.144C232.955 130.144 232.447 129.94 232.071 129.532C231.695 129.116 231.507 128.532 231.507 127.78V123.808H232.467V127.612C232.467 128.724 232.939 129.28 233.883 129.28C234.075 129.28 234.259 129.256 234.435 129.208C234.619 129.16 234.779 129.088 234.915 128.992C235.059 128.896 235.171 128.776 235.251 128.632C235.339 128.48 235.383 128.3 235.383 128.092V123.808H236.343V130H235.383V128.992ZM242.347 128.992H242.299C241.923 129.76 241.319 130.144 240.487 130.144C240.103 130.144 239.755 130.068 239.443 129.916C239.131 129.764 238.863 129.548 238.639 129.268C238.423 128.988 238.255 128.648 238.135 128.248C238.023 127.848 237.967 127.4 237.967 126.904C237.967 126.408 238.023 125.96 238.135 125.56C238.255 125.16 238.423 124.82 238.639 124.54C238.863 124.26 239.131 124.044 239.443 123.892C239.755 123.74 240.103 123.664 240.487 123.664C240.919 123.664 241.287 123.76 241.591 123.952C241.903 124.136 242.139 124.424 242.299 124.816H242.347V121.12H243.307V130H242.347V128.992ZM240.751 129.28C240.967 129.28 241.171 129.252 241.363 129.196C241.563 129.14 241.735 129.06 241.879 128.956C242.023 128.844 242.135 128.712 242.215 128.56C242.303 128.4 242.347 128.22 242.347 128.02V125.716C242.347 125.548 242.303 125.392 242.215 125.248C242.135 125.096 242.023 124.968 241.879 124.864C241.735 124.76 241.563 124.68 241.363 124.624C241.171 124.56 240.967 124.528 240.751 124.528C240.207 124.528 239.779 124.7 239.467 125.044C239.155 125.38 238.999 125.824 238.999 126.376V127.432C238.999 127.984 239.155 128.432 239.467 128.776C239.779 129.112 240.207 129.28 240.751 129.28ZM250.308 124.888L249.3 123.028H249.264V130H248.28V121.624H249.444L252.504 126.736L253.512 128.596H253.548V121.624H254.532V130H253.368L250.308 124.888ZM261.168 130C260.808 130 260.548 129.904 260.388 129.712C260.236 129.52 260.14 129.28 260.1 128.992H260.04C259.904 129.376 259.68 129.664 259.368 129.856C259.056 130.048 258.684 130.144 258.252 130.144C257.596 130.144 257.084 129.976 256.716 129.64C256.356 129.304 256.176 128.848 256.176 128.272C256.176 127.688 256.388 127.24 256.812 126.928C257.244 126.616 257.912 126.46 258.816 126.46H260.04V125.848C260.04 125.408 259.92 125.072 259.68 124.84C259.44 124.608 259.072 124.492 258.576 124.492C258.2 124.492 257.884 124.576 257.628 124.744C257.38 124.912 257.172 125.136 257.004 125.416L256.428 124.876C256.596 124.54 256.864 124.256 257.232 124.024C257.6 123.784 258.064 123.664 258.624 123.664C259.376 123.664 259.96 123.848 260.376 124.216C260.792 124.584 261 125.096 261 125.752V129.16H261.708V130H261.168ZM258.408 129.328C258.648 129.328 258.868 129.3 259.068 129.244C259.268 129.188 259.44 129.108 259.584 129.004C259.728 128.9 259.84 128.78 259.92 128.644C260 128.508 260.04 128.36 260.04 128.2V127.18H258.768C258.216 127.18 257.812 127.26 257.556 127.42C257.308 127.58 257.184 127.812 257.184 128.116V128.368C257.184 128.672 257.292 128.908 257.508 129.076C257.732 129.244 258.032 129.328 258.408 129.328ZM264.447 130C264.111 130 263.855 129.908 263.679 129.724C263.511 129.532 263.427 129.284 263.427 128.98V124.648H262.407V123.808H262.983C263.191 123.808 263.331 123.768 263.403 123.688C263.483 123.6 263.523 123.452 263.523 123.244V122.092H264.387V123.808H265.743V124.648H264.387V129.16H265.647V130H264.447ZM267.766 122.356C267.558 122.356 267.406 122.308 267.31 122.212C267.222 122.108 267.178 121.976 267.178 121.816V121.66C267.178 121.5 267.222 121.372 267.31 121.276C267.406 121.172 267.558 121.12 267.766 121.12C267.974 121.12 268.122 121.172 268.21 121.276C268.306 121.372 268.354 121.5 268.354 121.66V121.816C268.354 121.976 268.306 122.108 268.21 122.212C268.122 122.308 267.974 122.356 267.766 122.356ZM267.286 123.808H268.246V130H267.286V123.808ZM271.654 130L269.482 123.808H270.442L271.522 126.88L272.194 128.992H272.254L272.926 126.88L274.03 123.808H274.954L272.77 130H271.654ZM278.426 130.144C278.002 130.144 277.618 130.068 277.274 129.916C276.938 129.764 276.646 129.548 276.398 129.268C276.158 128.98 275.97 128.64 275.834 128.248C275.706 127.848 275.642 127.4 275.642 126.904C275.642 126.416 275.706 125.972 275.834 125.572C275.97 125.172 276.158 124.832 276.398 124.552C276.646 124.264 276.938 124.044 277.274 123.892C277.618 123.74 278.002 123.664 278.426 123.664C278.842 123.664 279.214 123.74 279.542 123.892C279.87 124.044 280.15 124.256 280.382 124.528C280.614 124.792 280.79 125.108 280.91 125.476C281.038 125.844 281.102 126.248 281.102 126.688V127.144H276.65V127.432C276.65 127.696 276.69 127.944 276.77 128.176C276.858 128.4 276.978 128.596 277.13 128.764C277.29 128.932 277.482 129.064 277.706 129.16C277.938 129.256 278.198 129.304 278.486 129.304C278.878 129.304 279.218 129.212 279.506 129.028C279.802 128.844 280.03 128.58 280.19 128.236L280.874 128.728C280.674 129.152 280.362 129.496 279.938 129.76C279.514 130.016 279.01 130.144 278.426 130.144ZM278.426 124.468C278.162 124.468 277.922 124.516 277.706 124.612C277.49 124.7 277.302 124.828 277.142 124.996C276.99 125.164 276.87 125.364 276.782 125.596C276.694 125.82 276.65 126.068 276.65 126.34V126.424H280.07V126.292C280.07 125.74 279.918 125.3 279.614 124.972C279.318 124.636 278.922 124.468 278.426 124.468ZM290.86 130L290.02 127.528H286.636L285.796 130H284.776L287.704 121.624H288.988L291.916 130H290.86ZM288.352 122.56H288.292L286.876 126.64H289.768L288.352 122.56ZM295.512 130.144C295.08 130.144 294.692 130.068 294.348 129.916C294.004 129.764 293.712 129.548 293.472 129.268C293.24 128.988 293.06 128.648 292.932 128.248C292.812 127.848 292.752 127.4 292.752 126.904C292.752 126.408 292.812 125.96 292.932 125.56C293.06 125.16 293.24 124.82 293.472 124.54C293.712 124.26 294.004 124.044 294.348 123.892C294.692 123.74 295.08 123.664 295.512 123.664C296.128 123.664 296.62 123.8 296.988 124.072C297.364 124.336 297.644 124.684 297.828 125.116L297.024 125.524C296.912 125.204 296.728 124.956 296.472 124.78C296.216 124.604 295.896 124.516 295.512 124.516C295.224 124.516 294.972 124.564 294.756 124.66C294.54 124.748 294.36 124.876 294.216 125.044C294.072 125.204 293.964 125.4 293.892 125.632C293.82 125.856 293.784 126.104 293.784 126.376V127.432C293.784 127.976 293.928 128.424 294.216 128.776C294.512 129.12 294.944 129.292 295.512 129.292C296.288 129.292 296.848 128.932 297.192 128.212L297.888 128.68C297.688 129.128 297.388 129.484 296.988 129.748C296.596 130.012 296.104 130.144 295.512 130.144ZM301.476 130.144C301.044 130.144 300.656 130.068 300.312 129.916C299.968 129.764 299.676 129.548 299.436 129.268C299.204 128.988 299.024 128.648 298.896 128.248C298.776 127.848 298.716 127.4 298.716 126.904C298.716 126.408 298.776 125.96 298.896 125.56C299.024 125.16 299.204 124.82 299.436 124.54C299.676 124.26 299.968 124.044 300.312 123.892C300.656 123.74 301.044 123.664 301.476 123.664C302.092 123.664 302.584 123.8 302.952 124.072C303.328 124.336 303.608 124.684 303.792 125.116L302.988 125.524C302.876 125.204 302.692 124.956 302.436 124.78C302.18 124.604 301.86 124.516 301.476 124.516C301.188 124.516 300.936 124.564 300.72 124.66C300.504 124.748 300.324 124.876 300.18 125.044C300.036 125.204 299.928 125.4 299.856 125.632C299.784 125.856 299.748 126.104 299.748 126.376V127.432C299.748 127.976 299.892 128.424 300.18 128.776C300.476 129.12 300.908 129.292 301.476 129.292C302.252 129.292 302.812 128.932 303.156 128.212L303.852 128.68C303.652 129.128 303.352 129.484 302.952 129.748C302.56 130.012 302.068 130.144 301.476 130.144ZM307.465 130.144C307.041 130.144 306.657 130.068 306.313 129.916C305.977 129.764 305.685 129.548 305.437 129.268C305.197 128.98 305.009 128.64 304.873 128.248C304.745 127.848 304.681 127.4 304.681 126.904C304.681 126.416 304.745 125.972 304.873 125.572C305.009 125.172 305.197 124.832 305.437 124.552C305.685 124.264 305.977 124.044 306.313 123.892C306.657 123.74 307.041 123.664 307.465 123.664C307.881 123.664 308.253 123.74 308.581 123.892C308.909 124.044 309.189 124.256 309.421 124.528C309.653 124.792 309.829 125.108 309.949 125.476C310.077 125.844 310.141 126.248 310.141 126.688V127.144H305.689V127.432C305.689 127.696 305.729 127.944 305.809 128.176C305.897 128.4 306.017 128.596 306.169 128.764C306.329 128.932 306.521 129.064 306.745 129.16C306.977 129.256 307.237 129.304 307.525 129.304C307.917 129.304 308.257 129.212 308.545 129.028C308.841 128.844 309.069 128.58 309.229 128.236L309.913 128.728C309.713 129.152 309.401 129.496 308.977 129.76C308.553 130.016 308.049 130.144 307.465 130.144ZM307.465 124.468C307.201 124.468 306.961 124.516 306.745 124.612C306.529 124.7 306.341 124.828 306.181 124.996C306.029 125.164 305.909 125.364 305.821 125.596C305.733 125.82 305.689 126.068 305.689 126.34V126.424H309.109V126.292C309.109 125.74 308.957 125.3 308.653 124.972C308.357 124.636 307.961 124.468 307.465 124.468ZM313.583 130.144C313.007 130.144 312.523 130.036 312.131 129.82C311.747 129.596 311.415 129.3 311.135 128.932L311.819 128.38C312.059 128.684 312.327 128.92 312.623 129.088C312.919 129.248 313.263 129.328 313.655 129.328C314.063 129.328 314.379 129.24 314.603 129.064C314.835 128.888 314.951 128.64 314.951 128.32C314.951 128.08 314.871 127.876 314.711 127.708C314.559 127.532 314.279 127.412 313.871 127.348L313.379 127.276C313.091 127.236 312.827 127.176 312.587 127.096C312.347 127.008 312.135 126.896 311.951 126.76C311.775 126.616 311.635 126.44 311.531 126.232C311.435 126.024 311.387 125.776 311.387 125.488C311.387 125.184 311.443 124.92 311.555 124.696C311.667 124.464 311.819 124.272 312.011 124.12C312.211 123.968 312.447 123.856 312.719 123.784C312.991 123.704 313.283 123.664 313.595 123.664C314.099 123.664 314.519 123.752 314.855 123.928C315.199 124.104 315.499 124.348 315.755 124.66L315.119 125.236C314.983 125.044 314.783 124.872 314.519 124.72C314.255 124.56 313.923 124.48 313.523 124.48C313.123 124.48 312.819 124.568 312.611 124.744C312.411 124.912 312.311 125.144 312.311 125.44C312.311 125.744 312.411 125.964 312.611 126.1C312.819 126.236 313.115 126.336 313.499 126.4L313.979 126.472C314.667 126.576 315.155 126.776 315.443 127.072C315.731 127.36 315.875 127.74 315.875 128.212C315.875 128.812 315.671 129.284 315.263 129.628C314.855 129.972 314.295 130.144 313.583 130.144ZM319.36 130.144C318.784 130.144 318.3 130.036 317.908 129.82C317.524 129.596 317.192 129.3 316.912 128.932L317.596 128.38C317.836 128.684 318.104 128.92 318.4 129.088C318.696 129.248 319.04 129.328 319.432 129.328C319.84 129.328 320.156 129.24 320.38 129.064C320.612 128.888 320.728 128.64 320.728 128.32C320.728 128.08 320.648 127.876 320.488 127.708C320.336 127.532 320.056 127.412 319.648 127.348L319.156 127.276C318.868 127.236 318.604 127.176 318.364 127.096C318.124 127.008 317.912 126.896 317.728 126.76C317.552 126.616 317.412 126.44 317.308 126.232C317.212 126.024 317.164 125.776 317.164 125.488C317.164 125.184 317.22 124.92 317.332 124.696C317.444 124.464 317.596 124.272 317.788 124.12C317.988 123.968 318.224 123.856 318.496 123.784C318.768 123.704 319.06 123.664 319.372 123.664C319.876 123.664 320.296 123.752 320.632 123.928C320.976 124.104 321.276 124.348 321.532 124.66L320.896 125.236C320.76 125.044 320.56 124.872 320.296 124.72C320.032 124.56 319.7 124.48 319.3 124.48C318.9 124.48 318.596 124.568 318.388 124.744C318.188 124.912 318.088 125.144 318.088 125.44C318.088 125.744 318.188 125.964 318.388 126.1C318.596 126.236 318.892 126.336 319.276 126.4L319.756 126.472C320.444 126.576 320.932 126.776 321.22 127.072C321.508 127.36 321.652 127.74 321.652 128.212C321.652 128.812 321.448 129.284 321.04 129.628C320.632 129.972 320.072 130.144 319.36 130.144ZM329.232 130.144C328.168 130.144 327.34 129.784 326.748 129.064C326.156 128.336 325.86 127.268 325.86 125.86C325.86 124.452 326.156 123.372 326.748 122.62C327.34 121.86 328.168 121.48 329.232 121.48C329.936 121.48 330.524 121.64 330.996 121.96C331.476 122.28 331.848 122.732 332.112 123.316L331.296 123.808C331.128 123.376 330.872 123.032 330.528 122.776C330.184 122.512 329.752 122.38 329.232 122.38C328.872 122.38 328.548 122.448 328.26 122.584C327.98 122.72 327.74 122.916 327.54 123.172C327.348 123.42 327.2 123.72 327.096 124.072C326.992 124.416 326.94 124.804 326.94 125.236V126.484C326.94 127.348 327.14 128.024 327.54 128.512C327.94 129 328.504 129.244 329.232 129.244C329.768 129.244 330.216 129.108 330.576 128.836C330.936 128.556 331.2 128.188 331.368 127.732L332.172 128.236C331.908 128.828 331.528 129.296 331.032 129.64C330.536 129.976 329.936 130.144 329.232 130.144ZM335.977 130.144C335.561 130.144 335.181 130.068 334.837 129.916C334.493 129.764 334.197 129.548 333.949 129.268C333.709 128.98 333.521 128.64 333.385 128.248C333.249 127.848 333.181 127.4 333.181 126.904C333.181 126.416 333.249 125.972 333.385 125.572C333.521 125.172 333.709 124.832 333.949 124.552C334.197 124.264 334.493 124.044 334.837 123.892C335.181 123.74 335.561 123.664 335.977 123.664C336.393 123.664 336.769 123.74 337.105 123.892C337.449 124.044 337.745 124.264 337.993 124.552C338.241 124.832 338.433 125.172 338.569 125.572C338.705 125.972 338.773 126.416 338.773 126.904C338.773 127.4 338.705 127.848 338.569 128.248C338.433 128.64 338.241 128.98 337.993 129.268C337.745 129.548 337.449 129.764 337.105 129.916C336.769 130.068 336.393 130.144 335.977 130.144ZM335.977 129.292C336.497 129.292 336.921 129.132 337.249 128.812C337.577 128.492 337.741 128.004 337.741 127.348V126.46C337.741 125.804 337.577 125.316 337.249 124.996C336.921 124.676 336.497 124.516 335.977 124.516C335.457 124.516 335.033 124.676 334.705 124.996C334.377 125.316 334.213 125.804 334.213 126.46V127.348C334.213 128.004 334.377 128.492 334.705 128.812C335.033 129.132 335.457 129.292 335.977 129.292ZM340.352 130V123.808H341.312V124.816H341.36C341.512 124.464 341.724 124.184 341.996 123.976C342.276 123.768 342.648 123.664 343.112 123.664C343.752 123.664 344.256 123.872 344.624 124.288C345 124.696 345.188 125.276 345.188 126.028V130H344.228V126.196C344.228 125.084 343.76 124.528 342.824 124.528C342.632 124.528 342.444 124.552 342.26 124.6C342.084 124.648 341.924 124.72 341.78 124.816C341.636 124.912 341.52 125.036 341.432 125.188C341.352 125.332 341.312 125.504 341.312 125.704V130H340.352ZM348.54 130C348.204 130 347.948 129.908 347.772 129.724C347.604 129.532 347.52 129.284 347.52 128.98V124.648H346.5V123.808H347.076C347.284 123.808 347.424 123.768 347.496 123.688C347.576 123.6 347.616 123.452 347.616 123.244V122.092H348.48V123.808H349.836V124.648H348.48V129.16H349.74V130H348.54ZM351.379 130V123.808H352.339V124.948H352.399C352.511 124.652 352.711 124.388 352.999 124.156C353.287 123.924 353.683 123.808 354.187 123.808H354.559V124.768H353.995C353.475 124.768 353.067 124.868 352.771 125.068C352.483 125.26 352.339 125.504 352.339 125.8V130H351.379ZM358.067 130.144C357.651 130.144 357.271 130.068 356.927 129.916C356.583 129.764 356.287 129.548 356.039 129.268C355.799 128.98 355.611 128.64 355.475 128.248C355.339 127.848 355.271 127.4 355.271 126.904C355.271 126.416 355.339 125.972 355.475 125.572C355.611 125.172 355.799 124.832 356.039 124.552C356.287 124.264 356.583 124.044 356.927 123.892C357.271 123.74 357.651 123.664 358.067 123.664C358.483 123.664 358.859 123.74 359.195 123.892C359.539 124.044 359.835 124.264 360.083 124.552C360.331 124.832 360.523 125.172 360.659 125.572C360.795 125.972 360.863 126.416 360.863 126.904C360.863 127.4 360.795 127.848 360.659 128.248C360.523 128.64 360.331 128.98 360.083 129.268C359.835 129.548 359.539 129.764 359.195 129.916C358.859 130.068 358.483 130.144 358.067 130.144ZM358.067 129.292C358.587 129.292 359.011 129.132 359.339 128.812C359.667 128.492 359.831 128.004 359.831 127.348V126.46C359.831 125.804 359.667 125.316 359.339 124.996C359.011 124.676 358.587 124.516 358.067 124.516C357.547 124.516 357.123 124.676 356.795 124.996C356.467 125.316 356.303 125.804 356.303 126.46V127.348C356.303 128.004 356.467 128.492 356.795 128.812C357.123 129.132 357.547 129.292 358.067 129.292ZM363.462 130C363.126 130 362.87 129.908 362.694 129.724C362.526 129.532 362.442 129.292 362.442 129.004V121.12H363.402V129.16H364.314V130H363.462ZM370.995 130.144C370.315 130.144 369.735 130.016 369.255 129.76C368.775 129.496 368.367 129.136 368.031 128.68L368.775 128.056C369.071 128.448 369.399 128.748 369.759 128.956C370.119 129.156 370.543 129.256 371.031 129.256C371.631 129.256 372.087 129.112 372.399 128.824C372.719 128.536 372.879 128.152 372.879 127.672C372.879 127.272 372.759 126.964 372.519 126.748C372.279 126.532 371.883 126.36 371.331 126.232L370.647 126.076C369.879 125.9 369.291 125.636 368.883 125.284C368.483 124.924 368.283 124.42 368.283 123.772C368.283 123.404 368.351 123.076 368.487 122.788C368.623 122.5 368.811 122.26 369.051 122.068C369.299 121.876 369.591 121.732 369.927 121.636C370.271 121.532 370.647 121.48 371.055 121.48C371.687 121.48 372.227 121.596 372.675 121.828C373.131 122.06 373.515 122.4 373.827 122.848L373.071 123.4C372.839 123.08 372.559 122.828 372.231 122.644C371.903 122.46 371.495 122.368 371.007 122.368C370.471 122.368 370.047 122.484 369.735 122.716C369.431 122.94 369.279 123.28 369.279 123.736C369.279 124.136 369.407 124.44 369.663 124.648C369.927 124.848 370.323 125.008 370.851 125.128L371.535 125.284C372.359 125.468 372.955 125.748 373.323 126.124C373.691 126.5 373.875 127 373.875 127.624C373.875 128.008 373.807 128.356 373.671 128.668C373.543 128.98 373.355 129.244 373.107 129.46C372.859 129.676 372.555 129.844 372.195 129.964C371.843 130.084 371.443 130.144 370.995 130.144ZM377.848 130.144C377.424 130.144 377.04 130.068 376.696 129.916C376.36 129.764 376.068 129.548 375.82 129.268C375.58 128.98 375.392 128.64 375.256 128.248C375.128 127.848 375.064 127.4 375.064 126.904C375.064 126.416 375.128 125.972 375.256 125.572C375.392 125.172 375.58 124.832 375.82 124.552C376.068 124.264 376.36 124.044 376.696 123.892C377.04 123.74 377.424 123.664 377.848 123.664C378.264 123.664 378.636 123.74 378.964 123.892C379.292 124.044 379.572 124.256 379.804 124.528C380.036 124.792 380.212 125.108 380.332 125.476C380.46 125.844 380.524 126.248 380.524 126.688V127.144H376.072V127.432C376.072 127.696 376.112 127.944 376.192 128.176C376.28 128.4 376.4 128.596 376.552 128.764C376.712 128.932 376.904 129.064 377.128 129.16C377.36 129.256 377.62 129.304 377.908 129.304C378.3 129.304 378.64 129.212 378.928 129.028C379.224 128.844 379.452 128.58 379.612 128.236L380.296 128.728C380.096 129.152 379.784 129.496 379.36 129.76C378.936 130.016 378.432 130.144 377.848 130.144ZM377.848 124.468C377.584 124.468 377.344 124.516 377.128 124.612C376.912 124.7 376.724 124.828 376.564 124.996C376.412 125.164 376.292 125.364 376.204 125.596C376.116 125.82 376.072 126.068 376.072 126.34V126.424H379.492V126.292C379.492 125.74 379.34 125.3 379.036 124.972C378.74 124.636 378.344 124.468 377.848 124.468ZM382.106 130V123.808H383.066V124.948H383.126C383.238 124.652 383.438 124.388 383.726 124.156C384.014 123.924 384.41 123.808 384.914 123.808H385.286V124.768H384.722C384.202 124.768 383.794 124.868 383.498 125.068C383.21 125.26 383.066 125.504 383.066 125.8V130H382.106ZM387.997 130L385.825 123.808H386.785L387.865 126.88L388.537 128.992H388.597L389.269 126.88L390.373 123.808H391.297L389.113 130H387.997ZM394.77 130.144C394.346 130.144 393.962 130.068 393.618 129.916C393.282 129.764 392.99 129.548 392.742 129.268C392.502 128.98 392.314 128.64 392.178 128.248C392.05 127.848 391.986 127.4 391.986 126.904C391.986 126.416 392.05 125.972 392.178 125.572C392.314 125.172 392.502 124.832 392.742 124.552C392.99 124.264 393.282 124.044 393.618 123.892C393.962 123.74 394.346 123.664 394.77 123.664C395.186 123.664 395.558 123.74 395.886 123.892C396.214 124.044 396.494 124.256 396.726 124.528C396.958 124.792 397.134 125.108 397.254 125.476C397.382 125.844 397.446 126.248 397.446 126.688V127.144H392.994V127.432C392.994 127.696 393.034 127.944 393.114 128.176C393.202 128.4 393.322 128.596 393.474 128.764C393.634 128.932 393.826 129.064 394.05 129.16C394.282 129.256 394.542 129.304 394.83 129.304C395.222 129.304 395.562 129.212 395.85 129.028C396.146 128.844 396.374 128.58 396.534 128.236L397.218 128.728C397.018 129.152 396.706 129.496 396.282 129.76C395.858 130.016 395.354 130.144 394.77 130.144ZM394.77 124.468C394.506 124.468 394.266 124.516 394.05 124.612C393.834 124.7 393.646 124.828 393.486 124.996C393.334 125.164 393.214 125.364 393.126 125.596C393.038 125.82 392.994 126.068 392.994 126.34V126.424H396.414V126.292C396.414 125.74 396.262 125.3 395.958 124.972C395.662 124.636 395.266 124.468 394.77 124.468ZM399.028 130V123.808H399.988V124.948H400.048C400.16 124.652 400.36 124.388 400.648 124.156C400.936 123.924 401.332 123.808 401.836 123.808H402.208V124.768H401.644C401.124 124.768 400.716 124.868 400.42 125.068C400.132 125.26 399.988 125.504 399.988 125.8V130H399.028Z" fill="#002E1D"/>
        <line opacity="0.5" x1="702" y1="214.322" x2="702" y2="-15.6778" stroke="#6BE2BD" stroke-width="4"/>
    </g>
    <defs>
        <clipPath id="clip0">
            <rect width="800" height="200" fill="white"/>
        </clipPath>
    </defs>
</svg>
