<svg version="1.0" xmlns="http://www.w3.org/2000/svg"
     width="4167.000000pt" height="1458.000000pt" viewBox="0 0 4167.000000 1458.000000"
     preserveAspectRatio="xMidYMid meet">
    <g transform="translate(0.000000,1458.000000) scale(0.100000,-0.100000)"
       fill="#000000" stroke="none">
        <path d="M3240 11555 c0 -3 108 -221 240 -485 l240 -480 3127 -3 c3486 -3
3205 3 3578 -72 497 -99 872 -289 1160 -587 262 -269 415 -603 470 -1023 20
-152 23 -472 6 -610 -56 -439 -210 -784 -473 -1060 -405 -424 -987 -637 -1835
-671 -95 -4 -173 -9 -173 -11 0 -2 563 -809 1251 -1794 l1251 -1789 610 0
c485 0 608 3 602 13 -4 6 -461 654 -1016 1439 -554 785 -1008 1431 -1008 1435
0 5 42 23 93 41 908 329 1514 971 1742 1847 123 472 136 1040 33 1540 -245
1201 -1215 2010 -2658 2219 -367 53 -121 50 -3822 53 -1880 2 -3418 1 -3418
-2z"/>
        <path d="M5995 8830 c-467 -572 -851 -1044 -853 -1048 -1 -5 81 -173 183 -374
l185 -365 287 -7 c551 -13 837 -52 1155 -156 419 -138 702 -352 889 -672 231
-395 246 -1001 37 -1423 -114 -228 -301 -434 -523 -572 -60 -38 -295 -153
-312 -153 -6 0 -15 -5 -18 -10 -5 -9 434 -890 455 -913 18 -20 328 122 504
231 411 253 704 562 905 955 376 736 356 1711 -49 2383 -169 279 -417 533
-700 717 -385 249 -942 424 -1517 478 -73 7 -133 15 -133 19 0 3 353 439 785
969 432 529 785 966 785 972 0 5 -236 9 -607 9 l-608 -1 -850 -1039z"/>
        <path d="M17010 8915 l0 -165 733 1 c402 0 766 4 808 7 l76 7 -107 -115 c-59
-63 -296 -335 -525 -605 -230 -269 -423 -497 -431 -505 -10 -12 -5 -33 33
-122 l45 -108 183 0 c198 0 303 -13 420 -53 270 -92 454 -276 511 -512 23 -95
23 -278 1 -365 -40 -151 -127 -287 -246 -384 -278 -228 -657 -255 -1031 -75
-135 65 -248 141 -343 229 l-75 70 -111 -137 -111 -137 43 -44 c196 -203 533
-374 842 -428 134 -23 369 -23 489 0 251 49 439 147 611 321 188 189 291 407
315 666 31 331 -71 633 -282 835 -154 148 -406 263 -674 307 l-132 22 524 607
524 607 0 121 0 120 -1045 0 -1045 0 0 -165z"/>
        <path d="M22070 7296 l0 -1786 175 0 175 0 0 750 0 750 446 -2 445 -3 398
-745 398 -745 206 -3 c114 -1 207 1 207 6 0 16 -772 1439 -819 1508 l-47 70
75 27 c200 71 388 248 491 461 156 323 144 756 -28 1049 -43 74 -157 196 -238
253 -124 88 -284 146 -484 174 -55 8 -314 14 -742 17 l-658 5 0 -1786z m1390
1430 c236 -53 412 -225 477 -466 24 -89 24 -307 -1 -405 -49 -202 -185 -374
-361 -456 -132 -62 -135 -62 -667 -67 l-488 -3 0 711 0 712 483 -5 c405 -3
494 -7 557 -21z"/>
        <path d="M27300 7295 l0 -1785 1055 0 1055 0 0 165 0 165 -875 0 -875 0 0 655
0 655 675 0 675 0 0 160 0 160 -675 0 -675 0 0 640 0 640 825 0 825 0 0 165 0
165 -1005 0 -1005 0 0 -1785z"/>
        <path d="M32250 7295 l0 -1785 180 0 180 0 0 1785 0 1785 -180 0 -180 0 0
-1785z"/>
        <path d="M35750 7295 l0 -1785 175 0 175 0 0 1381 c0 914 -4 1421 -11 1500 -6
65 -9 124 -7 130 2 6 66 -92 143 -218 104 -171 374 -559 1049 -1511 l909
-1282 174 0 173 0 0 1785 0 1785 -180 0 -181 0 5 -1432 c2 -842 8 -1466 14
-1513 5 -44 9 -81 7 -83 -1 -1 -66 103 -144 232 -110 181 -347 522 -1049 1512
l-908 1279 -172 3 -172 2 0 -1785z"/>
    </g>
</svg>
