<svg width="70" height="48" viewBox="0 0 70 48" fill="none" xmlns="http://www.w3.org/2000/svg">
    <path d="M52.5857 33.3264C61.8672 33.2853 69.4056 25.826 69.4056 16.6632C69.4056 7.47492 61.8258 0 52.5097 0C47.4113 0 43.1185 1.71827 39.3878 5.25283C37.5956 6.95052 36.0826 8.91972 34.7023 10.9801C33.323 8.91972 31.81 6.95052 30.0178 5.25283C26.2871 1.71827 21.9953 0 16.8959 0C7.57976 0 0 7.47492 0 16.6632C0 25.826 7.53837 33.2853 16.8199 33.3264C21.6873 33.5695 25.7962 32.061 29.3806 28.7156C31.4413 26.7925 33.1402 24.4371 34.7033 21.9876C36.2664 24.4371 37.9652 26.7925 40.026 28.7156C43.362 31.8287 47.1524 33.3509 51.5857 33.3509C51.9149 33.3519 52.2489 33.3431 52.5857 33.3264ZM25.4786 24.3802C23.0107 26.6827 20.411 27.6306 17.048 27.4492L16.8959 27.4453C10.7637 27.4453 5.77506 22.6081 5.77506 16.6632C5.77506 10.7184 10.7637 5.88114 16.8959 5.88114C20.5159 5.88114 23.4361 7.04952 26.084 9.55881C28.062 11.4329 29.6953 13.8334 31.3075 16.4417C29.4595 19.496 27.6644 22.3395 25.4786 24.3802ZM43.927 24.3802C41.7411 22.3405 39.9461 19.4969 38.0971 16.4417C39.7103 13.8344 41.3427 11.4329 43.3206 9.55881C45.9695 7.04952 48.8887 5.88114 52.5087 5.88114C58.6409 5.88114 63.6296 10.7184 63.6296 16.6632C63.6296 22.6081 58.6409 27.4453 52.5087 27.4453L52.3567 27.4492C48.9946 27.6306 46.3949 26.6827 43.927 24.3802Z" fill="#000000"/>
    <path d="M53.2729 17.8282H56.404V14.525H53.2729V11.3364H50.0129V14.525H46.8819V17.8282H50.0129V21.0413H53.2729V17.8282Z" fill="#000000"/>
    <path d="M66.9588 1.85979L67.287 2.91938H67.5883L67.9002 1.88724V2.91938H68.2293V1.2609H67.777L67.4382 2.39105L67.0868 1.2609H66.6268V2.91938H66.9588V1.85979Z" fill="#000000"/>
    <path d="M65.7009 2.91938H66.0522V1.59024H66.5527V1.2609H65.2043V1.59024H65.7009V2.91938Z" fill="#000000"/>
    <path d="M4.21678 36.3586L0.773886 47.8033H3.14262L3.7875 45.59H7.58845L8.21601 47.8033H10.8292L7.3844 36.3586H4.21678ZM7.04175 43.6316H4.36886L5.71252 38.9551L7.04175 43.6316Z" fill="#000000"/>
    <path d="M17.6745 42.7465C17.5378 42.5975 17.3925 42.4789 17.2385 42.3917C17.4599 42.3338 17.6707 42.2584 17.8689 42.1652C18.1856 42.0172 18.4628 41.8192 18.6919 41.5781C18.9229 41.336 19.1038 41.0449 19.2309 40.7106C19.357 40.3784 19.4215 39.9951 19.4215 39.5707C19.4215 38.9826 19.3194 38.4778 19.1173 38.0681C18.9142 37.6574 18.6216 37.3192 18.2463 37.0624C17.8747 36.8095 17.4214 36.6252 16.8978 36.5174C16.3809 36.4106 15.7986 36.3566 15.1672 36.3566H11.7329V47.8013H14.1075V43.1611H14.402C14.7437 43.1611 15.044 43.2425 15.2942 43.4042C15.5435 43.565 15.7418 43.809 15.8823 44.1295L17.5167 47.8013H20.2954L18.3926 43.8747C18.1548 43.3885 17.9142 43.0082 17.6745 42.7465ZM16.944 39.7775C16.944 40.0206 16.8958 40.2372 16.8006 40.4225C16.7053 40.6077 16.5676 40.7655 16.3925 40.891C16.2134 41.0194 15.993 41.1174 15.738 41.1821C15.4781 41.2478 15.1845 41.2811 14.864 41.2811H14.1084V38.3513H14.9343C15.6167 38.3513 16.1316 38.466 16.4646 38.6915C16.7861 38.91 16.944 39.2659 16.944 39.7775Z" fill="#000000"/>
    <path d="M28.6779 37.7054C28.2313 37.2476 27.6663 36.9046 26.9973 36.686C26.3351 36.4684 25.5536 36.3586 24.6748 36.3586H21.1876V47.8033H24.1964C25.2099 47.8033 26.0945 47.6641 26.8241 47.3887C27.5575 47.1122 28.1697 46.7123 28.6413 46.2007C29.1129 45.69 29.4652 45.0637 29.6866 44.3413C29.907 43.6238 30.0186 42.8161 30.0186 41.9388C30.0186 40.9821 29.907 40.1441 29.6866 39.4501C29.4633 38.7503 29.1245 38.1631 28.6779 37.7054ZM23.5612 38.3601H24.5352C25.1031 38.3601 25.5834 38.4435 25.9626 38.6081C26.3361 38.7708 26.6383 39.01 26.8597 39.3197C27.0839 39.6334 27.2466 40.0235 27.3409 40.4803C27.4372 40.9449 27.4863 41.482 27.4863 42.077C27.4863 43.3669 27.2206 44.3216 26.697 44.9147C26.1763 45.5038 25.3986 45.8017 24.387 45.8017H23.5612V38.3601Z" fill="#000000"/>
    <path d="M37.1769 43.6978C37.1769 44.1261 37.1374 44.4937 37.0585 44.7907C36.9815 45.0808 36.866 45.322 36.7158 45.5043C36.5676 45.6846 36.3789 45.817 36.1556 45.8983C35.9256 45.9816 35.6359 46.0248 35.2971 46.0248C34.9361 46.0248 34.6339 45.9757 34.3991 45.8787C34.168 45.7836 33.9736 45.6405 33.8215 45.4533C33.6685 45.2651 33.5588 45.0318 33.4962 44.7593C33.4317 44.478 33.399 44.1497 33.399 43.7831V36.3581H31.0245V43.9115C31.0245 44.5319 31.0996 45.1004 31.2468 45.6003C31.397 46.1081 31.6434 46.5452 31.9803 46.9001C32.3171 47.2549 32.7599 47.5303 33.2979 47.7185C33.8302 47.9048 34.4761 47.9998 35.2172 47.9998C35.8775 47.9998 36.4819 47.9057 37.0152 47.7185C37.5522 47.5303 38.0133 47.247 38.3867 46.8765C38.7602 46.505 39.0518 46.0365 39.2511 45.4817C39.4493 44.9309 39.5504 44.2839 39.5504 43.5586V36.3562H37.1759L37.1769 43.6978Z" fill="#000000"/>
    <path d="M41.4034 38.318H43.9127V45.8272H41.4034V47.8033H48.8321V45.8272H46.3218V38.318H48.8321V36.3586H41.4034V38.318Z" fill="#000000"/>
    <path d="M57.0355 43.9453L56.7063 43.1591L53.5647 36.3586H50.7445V47.8033H52.9275V40.1108L53.3346 41.0459L56.4156 47.8033H59.2185V36.3586H57.0355V43.9453Z" fill="#000000"/>
    <path d="M68.3169 37.6815C67.5421 36.6778 66.3745 36.1691 64.8451 36.1691C64.1887 36.1691 63.563 36.2877 62.9855 36.52C62.4051 36.7543 61.8921 37.1199 61.4609 37.6051C61.0307 38.0893 60.689 38.7156 60.4435 39.4655C60.2 40.2114 60.0759 41.1102 60.0759 42.1355C60.0759 44.0234 60.4657 45.4868 61.2338 46.4836C62.0086 47.4893 63.1761 48 64.7055 48C65.362 48 65.9876 47.8814 66.5651 47.6491C67.1455 47.4148 67.6585 47.0492 68.0897 46.564C68.52 46.0798 68.8616 45.4535 69.1071 44.7036C69.3506 43.9577 69.4748 43.0589 69.4748 42.0336C69.4748 40.1399 69.085 38.6755 68.3169 37.6815ZM65.7778 45.624C65.5035 45.7818 65.1666 45.8622 64.7758 45.8622C63.9942 45.8622 63.4475 45.5623 63.103 44.9438C62.7516 44.3125 62.5736 43.3343 62.5736 42.0346C62.5736 41.4268 62.6169 40.8819 62.7026 40.4133C62.7873 39.9517 62.921 39.5596 63.103 39.2469C63.2801 38.9401 63.5082 38.7049 63.7796 38.5471C64.051 38.3892 64.3869 38.3098 64.7768 38.3098C65.5641 38.3098 66.1127 38.6098 66.4535 39.2273C66.8019 39.8585 66.979 40.8368 66.979 42.1375C66.979 42.7452 66.9357 43.2902 66.85 43.7587C66.7653 44.2204 66.6325 44.6134 66.4544 44.9261C66.2792 45.231 66.0511 45.4662 65.7778 45.624Z" fill="#000000"/>
    <path d="M22.5006 14.4863H12.2075V17.8934H22.5006V14.4863Z" fill="#000000"/>
</svg>
