<svg id="Ebene_1" data-name="Ebene 1" xmlns="http://www.w3.org/2000/svg" viewBox="0 0 406.73 96.38"><title>test</title><path d="M67.62,50a8.38,8.38,0,0,0-6.48.34A8.66,8.66,0,0,0,60,51L16.88,24.07a8.62,8.62,0,0,0,0-2.27L34.36,11.24a2.15,2.15,0,0,0,.32.13,5.76,5.76,0,0,0,4.23-.13L56.38,21.8a8.42,8.42,0,0,0,0,2.35l-9.89,6.24a3.43,3.43,0,1,0,3.66,5.8l9.92-6.25a8.51,8.51,0,0,0,8.35.6,8.49,8.49,0,1,0-7.3-15.32,7.67,7.67,0,0,0-1.21.71L42.47,5.37A5.85,5.85,0,0,0,31.12,3.9a6.34,6.34,0,0,0-.32,1.47L13.35,15.93a8.31,8.31,0,0,0-2-1,8.49,8.49,0,1,0,.81,15.65,7.13,7.13,0,0,0,1.11-.64l43.15,27a8.29,8.29,0,0,0,0,2.28L38.91,69.7a1.79,1.79,0,0,0-.32-.13,5.83,5.83,0,0,0-4.23.12L16.89,59.12a8.47,8.47,0,0,0,0-2.25l9.92-6.25a3.44,3.44,0,1,0-3.67-5.81L13.26,51A8.48,8.48,0,1,0,8.5,66.53a8.4,8.4,0,0,0,3.63-.83A8.53,8.53,0,0,0,13.34,65L30.8,75.56a5.86,5.86,0,0,0,3.88,5A5.85,5.85,0,0,0,42.15,77a6.23,6.23,0,0,0,.32-1.47L59.94,65a8,8,0,0,0,2,1,8.48,8.48,0,1,0,5.67-16Z" style="fill:#1d1d1b"/><path d="M249.55,90.06a1.21,1.21,0,0,0-.5-1,4.84,4.84,0,0,0-1.75-.64,7.93,7.93,0,0,1-2-.64,2.85,2.85,0,0,1-1.08-.88,2.14,2.14,0,0,1-.35-1.22,2.48,2.48,0,0,1,1-2,3.9,3.9,0,0,1,2.55-.81,4,4,0,0,1,2.64.84,2.67,2.67,0,0,1,1,2.15h-1.65a1.49,1.49,0,0,0-.57-1.16,2.16,2.16,0,0,0-1.44-.49,2.22,2.22,0,0,0-1.4.39,1.22,1.22,0,0,0-.51,1,1,1,0,0,0,.47.9,5.83,5.83,0,0,0,1.7.57,9.42,9.42,0,0,1,2,.66,2.87,2.87,0,0,1,1.13.92,2.26,2.26,0,0,1,.37,1.3,2.46,2.46,0,0,1-1,2.06,4.32,4.32,0,0,1-2.67.78,4.86,4.86,0,0,1-2-.41,3.34,3.34,0,0,1-1.39-1.14,2.73,2.73,0,0,1-.49-1.58h1.63a1.7,1.7,0,0,0,.66,1.31,3.09,3.09,0,0,0,3.12.11A1.17,1.17,0,0,0,249.55,90.06Z" style="fill:#1d1d1b"/><path d="M255.84,83l0,1.07a3.54,3.54,0,0,1,2.85-1.24,2.75,2.75,0,0,1,2.74,1.54,3.62,3.62,0,0,1,1.24-1.12,3.72,3.72,0,0,1,1.81-.42q3.17,0,3.21,3.34V92.6h-1.64V86.27a2.16,2.16,0,0,0-.47-1.53,2.07,2.07,0,0,0-1.58-.51,2.18,2.18,0,0,0-1.51.54,2.21,2.21,0,0,0-.7,1.47V92.6h-1.65V86.32a1.83,1.83,0,0,0-2.05-2.09,2.18,2.18,0,0,0-2.2,1.37v7h-1.64V83Z" style="fill:#1d1d1b"/><path d="M277,92.6a3.27,3.27,0,0,1-.23-1A3.68,3.68,0,0,1,274,92.78a3.42,3.42,0,0,1-2.33-.8,2.64,2.64,0,0,1-.91-2,2.71,2.71,0,0,1,1.14-2.32,5.33,5.33,0,0,1,3.21-.83h1.59V86a1.84,1.84,0,0,0-.51-1.37,2.08,2.08,0,0,0-1.52-.51,2.37,2.37,0,0,0-1.47.44,1.29,1.29,0,0,0-.59,1.07H271a2.28,2.28,0,0,1,.51-1.39,3.52,3.52,0,0,1,1.38-1,4.64,4.64,0,0,1,1.92-.39,3.78,3.78,0,0,1,2.59.82,3,3,0,0,1,1,2.29v4.41a5.29,5.29,0,0,0,.34,2.1v.14Zm-2.72-1.25a2.84,2.84,0,0,0,1.46-.4,2.41,2.41,0,0,0,1-1V88h-1.29c-2,0-3,.59-3,1.76a1.48,1.48,0,0,0,.52,1.21A2,2,0,0,0,274.28,91.35Z" style="fill:#1d1d1b"/><path d="M286.53,84.48a5.13,5.13,0,0,0-.81-.06,2.17,2.17,0,0,0-2.19,1.38v6.8h-1.64V83h1.6l0,1.11a2.53,2.53,0,0,1,2.28-1.28,1.75,1.75,0,0,1,.73.12Z" style="fill:#1d1d1b"/><path d="M291.87,80.69V83h1.79v1.27h-1.79v6a1.33,1.33,0,0,0,.24.87,1,1,0,0,0,.82.29,4.3,4.3,0,0,0,.78-.11V92.6a4.79,4.79,0,0,1-1.26.18,2,2,0,0,1-1.66-.67,2.85,2.85,0,0,1-.56-1.88v-6h-1.75V83h1.75V80.69Z" style="fill:#1d1d1b"/><path d="M307.8,91.65a3.46,3.46,0,0,1-2.8,1.13,3,3,0,0,1-2.34-.89,3.84,3.84,0,0,1-.81-2.64V83h1.64v6.2c0,1.45.59,2.18,1.77,2.18a2.46,2.46,0,0,0,2.5-1.4V83h1.64V92.6h-1.56Z" style="fill:#1d1d1b"/><path d="M317.51,84.48a4.92,4.92,0,0,0-.8-.06,2.15,2.15,0,0,0-2.19,1.38v6.8h-1.64V83h1.59l0,1.11a2.55,2.55,0,0,1,2.29-1.28,1.67,1.67,0,0,1,.72.12Z" style="fill:#1d1d1b"/><path d="M328.18,87.91a5.74,5.74,0,0,1-1,3.54,3.26,3.26,0,0,1-2.72,1.33,3.32,3.32,0,0,1-2.8-1.29l-.08,1.11h-1.51V79h1.64v5.08a3.32,3.32,0,0,1,2.74-1.23,3.24,3.24,0,0,1,2.74,1.32,5.88,5.88,0,0,1,1,3.61Zm-1.64-.18a4.44,4.44,0,0,0-.65-2.59,2.13,2.13,0,0,0-1.86-.91,2.41,2.41,0,0,0-2.33,1.5v4.15a2.46,2.46,0,0,0,2.35,1.51,2.15,2.15,0,0,0,1.83-.91A4.71,4.71,0,0,0,326.54,87.73Z" style="fill:#1d1d1b"/><path d="M337,92.6a3.27,3.27,0,0,1-.23-1,3.66,3.66,0,0,1-2.73,1.19,3.42,3.42,0,0,1-2.33-.8,2.64,2.64,0,0,1-.91-2A2.71,2.71,0,0,1,332,87.62a5.33,5.33,0,0,1,3.21-.83h1.59V86a1.84,1.84,0,0,0-.51-1.37,2.08,2.08,0,0,0-1.52-.51,2.37,2.37,0,0,0-1.47.44,1.32,1.32,0,0,0-.59,1.07H331a2.28,2.28,0,0,1,.51-1.39,3.52,3.52,0,0,1,1.38-1,4.64,4.64,0,0,1,1.92-.39,3.82,3.82,0,0,1,2.6.82,3,3,0,0,1,1,2.29v4.41a5.29,5.29,0,0,0,.34,2.1v.14Zm-2.72-1.25a2.84,2.84,0,0,0,1.46-.4,2.41,2.41,0,0,0,1-1V88h-1.28c-2,0-3,.59-3,1.76a1.51,1.51,0,0,0,.52,1.21A2,2,0,0,0,334.3,91.35Z" style="fill:#1d1d1b"/><path d="M343.47,83l0,1.21a3.49,3.49,0,0,1,2.87-1.38q3,0,3.07,3.43V92.6h-1.64V86.26a2.25,2.25,0,0,0-.48-1.54,1.89,1.89,0,0,0-1.44-.49,2.37,2.37,0,0,0-1.4.42,2.84,2.84,0,0,0-.94,1.12V92.6h-1.64V83Z" style="fill:#1d1d1b"/><path d="M360,92.6h-1.64V79H360Z" style="fill:#1d1d1b"/><path d="M363.51,80.47a1,1,0,0,1,.24-.67.92.92,0,0,1,.73-.28.89.89,0,0,1,.72.28.93.93,0,0,1,.25.67.89.89,0,0,1-.25.66.91.91,0,0,1-.72.27,1,1,0,0,1-.73-.27A.92.92,0,0,1,363.51,80.47Zm1.77,12.13h-1.64V83h1.64Z" style="fill:#1d1d1b"/><path d="M372,90.38,374.4,83h1.68l-3.44,9.59h-1.25L367.92,83h1.67Z" style="fill:#1d1d1b"/><path d="M378.6,80.47a1,1,0,0,1,.24-.67.89.89,0,0,1,.72-.28.91.91,0,0,1,1,1,.89.89,0,0,1-.25.66,1,1,0,0,1-.73.27.91.91,0,0,1-.72-.27A.92.92,0,0,1,378.6,80.47Zm1.77,12.13h-1.64V83h1.64Z" style="fill:#1d1d1b"/><path d="M385.48,83l0,1.21a3.49,3.49,0,0,1,2.87-1.38q3,0,3.07,3.43V92.6h-1.64V86.26a2.3,2.3,0,0,0-.47-1.54,1.94,1.94,0,0,0-1.46-.49,2.41,2.41,0,0,0-1.4.42,2.91,2.91,0,0,0-.93,1.12V92.6h-1.64V83Z" style="fill:#1d1d1b"/><path d="M394.51,87.73a5.64,5.64,0,0,1,1-3.57,3.58,3.58,0,0,1,5.49-.08l.08-1.07h1.49v9.36a3.91,3.91,0,0,1-1.1,2.94,4.08,4.08,0,0,1-3,1.07,4.82,4.82,0,0,1-2-.45A3.45,3.45,0,0,1,395,94.72l.85-1a3.19,3.19,0,0,0,2.58,1.3,2.56,2.56,0,0,0,1.87-.67,2.62,2.62,0,0,0,.67-1.9v-.82a3.41,3.41,0,0,1-2.69,1.13,3.28,3.28,0,0,1-2.73-1.36A5.93,5.93,0,0,1,394.51,87.73Zm1.65.18a4.24,4.24,0,0,0,.67,2.55,2.15,2.15,0,0,0,1.86.93A2.41,2.41,0,0,0,401,90V85.6a2.44,2.44,0,0,0-2.27-1.37,2.16,2.16,0,0,0-1.86.93A4.67,4.67,0,0,0,396.16,87.91Z" style="fill:#1d1d1b"/><path d="M90.63,58.77a5.84,5.84,0,0,1,2.45-3s4.91,4.83,14.18,4.83c7.13,0,11.49-3.48,11.49-8.79,0-3.57-3.33-6.26-9-7.68l-7.61-2c-7-1.83-13-5.63-13-13.95,0-8.87,7.13-15.84,19-15.84,7.53,0,12.36,2.06,14.34,3.25,2.14,1.35,3.25,3.17,1.74,5.86a7.19,7.19,0,0,1-2.06,2.38,26.22,26.22,0,0,0-14-4.28c-7,0-10.21,3.56-10.21,8.56,0,4,4.43,5.78,8.63,7l7.37,2c10,2.85,13.62,7.76,13.62,14.73,0,9.9-8.48,16-20.28,16-7.28,0-12.51-2-14.26-3C90.47,63.2,89.68,61.22,90.63,58.77Z" style="fill:#1d1d1b"/><path d="M137.44,18.45c0-2.22-1-5.31,2.85-5.31h16.16c13.46,0,21,8.08,20.91,18.46-.08,10.22-7.29,18.77-20.44,18.77H146.15c0,2.06.08,10.7.16,11.33.08,2.22,1.11,5.31-2.77,5.31h-3.17c-2.93,0-3-2.7-2.93-4.76C137.59,57,137.44,20,137.44,18.45Zm19,25.51c8.24,0,12.12-4.68,12.19-11.81s-3.56-12.59-12.11-12.59H146c-.32,3.72.16,20.44.08,24.4Z" style="fill:#1d1d1b"/><path d="M188.28,18.45c0-2.22-1.1-5.31,2.78-5.31h3.17c2.93,0,3,2.62,2.93,4.68-.32,8.31.15,40.55.23,43.88.16,2.22,1.19,5.31-2.69,5.31h-3.09c-2.93,0-3-2.7-2.93-4.76C188.84,57,188.28,26.45,188.28,18.45Z" style="fill:#1d1d1b"/><path d="M211.89,18.37c0-2.22-.24-5.23,3.56-5.23h16.32c13.23,0,20.12,7.29,20.12,17.91,0,8.39-5.39,13.94-12,16.31l8.87,11.41c1.27,1.82,2.69,1.82,4.67,1.82,1.19,5.31-1.11,7.21-4.75,7.21-4,0-5.46-2-7.21-4.44L231.29,48.71H220.44c0,2.06-.16,12.67,0,14.57.24,2.78-.47,3.73-2.61,3.73h-3.09c-2.93,0-2.93-2.7-2.93-4.76C212,57,211.89,20,211.89,18.37Zm20,24c6.41,0,11.25-4,11.25-11.32,0-5.55-3.33-11.49-11.33-11.49H220.28c-.16,4.75,0,19.8,0,22.81Z" style="fill:#1d1d1b"/><path d="M264.79,18.45c0-2.22-1.1-5.31,2.78-5.31h3.17c2.92,0,3,2.62,2.92,4.68-.31,8.31.16,40.55.24,43.88.16,2.22,1.19,5.31-2.69,5.31h-3.09c-2.93,0-3-2.7-2.93-4.76C265.35,57,264.79,26.45,264.79,18.45Z" style="fill:#1d1d1b"/><path d="M293.07,54.41c3.41,0,6.34.72,6.34,6.74s-2.78,6.65-6.26,6.65-6.42-.71-6.34-6.65C286.65,55.13,289.43,54.41,293.07,54.41Z" style="fill:#1d1d1b"/><path d="M311.21,16.87c0-2.22-.32-3.73,3.8-3.73h14.73c13.63,0,19,6,19,13.71,0,9.5-9.9,11.4-9.9,11.4v.48s12.36,1.11,12.36,12.83c0,8.87-6.18,15.45-20,15.45H314.22c-3,0-3-2.7-3-4.76C311.44,57,311.21,18.45,311.21,16.87Zm19.88,43.72c6.1,0,11.25-2.85,11.25-9.5,0-5.87-4.6-9-11.33-9H319.76l.08,18.53Zm-1.35-24.87c6.42,0,10.38-2.77,10.38-8.4,0-5-4.28-7.76-10.38-7.76h-9.82l-.08,16.16Z" style="fill:#1d1d1b"/><path d="M383,12.35c15.28,0,23.68,12,23.76,27.73S398.25,67.8,382.89,67.8c-16.4,0-24-11.88-24-27.72C358.89,24.47,366.57,12.35,383,12.35Zm15,27.65c0-10.93-4-20.44-15.05-20.44-11.33,0-15.29,9.51-15.29,20.44,0,10.77,3.88,20.59,15.29,20.59C393.9,60.59,397.94,50.61,397.94,40Z" style="fill:#1d1d1b"/></svg>
