<svg width="104" height="40" viewBox="0 0 104 40" fill="none" xmlns="http://www.w3.org/2000/svg">
    <path d="M48.4896 31.4834H45.8313V7.37513H36.923V5.00013H57.3646V7.37513H48.4896V31.4834Z" fill="#000000"/>
    <path d="M65.773 31.4834C65.723 31.0084 65.6896 30.4834 65.6646 29.9084C65.6396 29.3334 65.6646 28.8584 65.6646 28.4834H65.598C65.0587 29.5466 64.2066 30.4191 63.1563 30.9834C62.0752 31.6104 60.8478 31.941 59.598 31.9417C58.6681 32.0111 57.7345 31.8678 56.8682 31.5227C56.0019 31.1776 55.2255 30.6398 54.598 29.95C53.4318 28.4625 52.8401 26.6047 52.9314 24.7167V13.9668H55.4813V23.6584C55.4748 24.4967 55.5474 25.3337 55.698 26.1584C55.8261 26.8437 56.0865 27.4976 56.4647 28.0834C56.8303 28.625 57.3337 29.0594 57.923 29.3417C58.6453 29.6645 59.4325 29.8156 60.223 29.7834C60.9029 29.7897 61.5763 29.6504 62.198 29.375C62.8377 29.0842 63.4064 28.6577 63.8646 28.125C64.3992 27.4985 64.8068 26.7739 65.0646 25.9917C65.3803 25.0065 65.5323 23.9761 65.5146 22.9417V13.9668H68.0146V27.6167C68.0146 28.0917 68.0146 28.7084 68.0146 29.4584C68.0146 30.2084 68.073 30.8834 68.123 31.475L65.773 31.4834Z" fill="#000000"/>
    <path d="M74.6064 31.4834H72.1064V5.00013H74.6064V31.4834Z" fill="#000000"/>
    <path d="M81.7146 6.78346C81.7213 7.02645 81.6749 7.26797 81.5784 7.4911C81.482 7.71423 81.3379 7.91356 81.1562 8.07512C80.8247 8.41437 80.372 8.60804 79.8977 8.61351C79.4234 8.61898 78.9664 8.43581 78.6271 8.10429C78.2878 7.77277 78.0942 7.32006 78.0887 6.84575C78.0832 6.37144 78.2664 5.91438 78.5979 5.57513L78.6896 5.4918C78.8519 5.32447 79.0462 5.19144 79.261 5.10059C79.4757 5.00975 79.7065 4.96294 79.9396 4.96294C80.1727 4.96294 80.4035 5.00975 80.6182 5.10059C80.8329 5.19144 81.0272 5.32447 81.1896 5.4918C81.3652 5.65642 81.503 5.85712 81.5937 6.08009C81.6843 6.30306 81.7255 6.54302 81.7146 6.78346ZM81.1979 31.4917H78.6479V13.9918H81.1979V31.4917Z" fill="#000000"/>
    <path d="M87.7064 40H85.1564V13.9584H87.7064V16.9917H87.8147C88.5143 15.8637 89.524 14.961 90.7231 14.3918C91.8667 13.8185 93.1271 13.5162 94.4064 13.5084C95.683 13.4925 96.9497 13.7334 98.1314 14.2168C99.2041 14.6616 100.172 15.3258 100.973 16.1667C101.773 17.0085 102.398 17.9996 102.815 19.0834C103.681 21.4253 103.681 23.9999 102.815 26.3417C102.398 27.428 101.773 28.4218 100.973 29.2667C100.169 30.1018 99.2016 30.7627 98.1314 31.2084C96.9521 31.6996 95.6837 31.9408 94.4064 31.9167C93.1313 31.9221 91.8717 31.6371 90.7231 31.0834C89.5445 30.5297 88.539 29.6654 87.8147 28.5834H87.7064V40ZM100.765 22.7167C100.769 21.7787 100.617 20.8464 100.315 19.9584C100.035 19.134 99.5958 18.3724 99.023 17.7167C98.4487 17.0676 97.7409 16.5503 96.948 16.2001C95.6786 15.6234 94.2612 15.4556 92.8922 15.7199C91.5231 15.9841 90.2701 16.6674 89.3064 17.6751C88.6979 18.3269 88.2224 19.0912 87.9064 19.9251C87.2312 21.7221 87.2312 23.7031 87.9064 25.5C88.2227 26.3263 88.6984 27.0823 89.3064 27.725C89.932 28.3746 90.683 28.8904 91.5138 29.2414C92.3445 29.5923 93.2379 29.771 94.1397 29.7667C95.1057 29.7799 96.0642 29.5956 96.9564 29.225C97.7483 28.8808 98.4562 28.3691 99.0314 27.725C99.6011 27.0654 100.037 26.3012 100.315 25.475C100.622 24.5882 100.774 23.6552 100.765 22.7167Z" fill="#000000"/>
    <path d="M32.0648 22.8499C30.528 21.3447 28.8091 20.0374 26.9482 18.9583C27.2648 18.4083 27.5732 17.8416 27.8815 17.2416C28.7148 15.6999 31.1732 10.5 29.8815 8.64997C29.2815 7.81664 27.6815 7.34997 25.1065 7.34997C23.0458 7.3731 20.9919 7.59355 18.9732 8.00831C18.2399 3.90832 16.9649 0.633331 15.5149 0.0999997C15.316 0.0337422 15.1078 -2.41953e-05 14.8982 1.30076e-08C11.1066 1.30076e-08 1.66494 10.0416 0.19828 18.2666C-0.360052 21.4083 0.0316138 25.4582 4.4066 28.1249C4.8169 29.029 5.3808 29.8551 6.07326 30.5666C7.94825 32.4999 10.8316 33.5332 14.6149 33.5332C22.2982 33.5332 33.4315 28.7916 33.5315 25.4916C33.5482 24.7582 33.0565 23.8999 32.0648 22.8499ZM25.1065 8.59164C27.6648 8.59164 28.6815 9.07497 28.8815 9.3583C29.2815 9.9333 28.8815 12.5833 26.7982 16.6749C26.5149 17.2249 26.2065 17.7833 25.8899 18.3416C23.8993 17.2079 21.8169 16.2434 19.6649 15.4583C19.6444 13.3769 19.4774 11.2995 19.1649 9.24163C21.1142 8.83382 23.0985 8.61613 25.0899 8.59164H25.1065ZM10.9399 28.8666C10.6732 28.8666 10.4066 28.8666 10.1066 28.8666C8.54367 28.0654 7.21668 26.8705 6.25659 25.3999C5.60535 24.4874 5.08373 23.489 4.7066 22.4333C5.01493 17.6416 7.50659 15.2166 12.0982 15.2166C14.2476 15.2734 16.3754 15.6613 18.4065 16.3666C18.3802 17.7992 18.2493 19.228 18.0149 20.6416C17.4149 24.3666 15.6482 28.8666 10.9649 28.8666H10.9399ZM12.1232 13.9416C9.47325 13.9416 6.45659 14.6916 4.77326 17.6249C4.84617 17.437 4.92964 17.2534 5.02326 17.0749C6.68992 13.8833 10.6816 11.8666 13.7482 10.7333C15.1306 10.2336 16.5414 9.81618 17.9732 9.4833C18.2507 11.3293 18.4038 13.1918 18.4315 15.0583C16.3972 14.3697 14.2703 13.9932 12.1232 13.9416ZM5.30659 26.0749C5.78739 26.7582 6.32544 27.3994 6.91492 27.9916C6.38844 27.7838 5.87622 27.5417 5.38159 27.2666C5.1592 26.6819 4.99725 26.0759 4.89826 25.4582C5.0316 25.6582 5.16493 25.8666 5.30659 26.0666V26.0749ZM19.2732 20.8333C19.4938 19.4882 19.6192 18.1293 19.6482 16.7666C21.5864 17.4963 23.4643 18.3767 25.2649 19.3999C22.4232 23.9583 18.5399 28.0499 14.6982 29.1416C16.9982 27.7416 18.5565 24.9332 19.2732 20.8333ZM1.40661 18.4833C2.87327 10.2 12.2982 1.23333 14.9149 1.23333C14.9782 1.22137 15.0432 1.22137 15.1066 1.23333C15.9982 1.55833 17.1149 4.41665 17.8065 8.2333C12.0482 9.59997 6.08159 12.3916 3.96493 16.4999C3.54288 17.2929 3.26096 18.1527 3.1316 19.0416C3.1316 19.0416 3.07327 19.5583 3.07327 19.9416C2.97742 21.9512 3.19103 23.9636 3.7066 25.9082C3.7066 25.9916 3.7066 26.0749 3.76493 26.1582C1.66494 24.3082 0.831611 21.7416 1.40661 18.4833ZM14.6066 32.2916C11.1732 32.2916 8.58158 31.4582 6.91492 29.6999C6.81492 29.5999 6.71492 29.4916 6.62326 29.3832C8.28769 29.9989 10.024 30.3993 11.7899 30.5749C12.0149 30.5749 12.6232 30.6416 12.7566 30.6416C16.1732 30.6416 21.5732 27.7916 26.3315 20.0083C28.0923 21.0402 29.721 22.2827 31.1815 23.7083C32.0148 24.5833 32.3065 25.1832 32.2982 25.4499C32.2482 27.1582 23.0065 32.2916 14.6066 32.2916Z" fill="#000000"/>
</svg>
