<svg xmlns="http://www.w3.org/2000/svg" width="120" height="60" fill="#000000">
    <path d="M22.705 22.003h-2.452V34.9h2.452v-6.5c.455-.5 1.028-1.014 1.742-1.014 1.06 0 1 1.178 1 1.924v5.6H27.9v-6.578c0-2.274-1.424-2.898-2.438-2.898a4.47 4.47 0 0 0-2.766 1.16zm10.3 3.412c-2.73 0-4.094 2.37-4.094 4.836s1.365 4.84 4.094 4.84 4.094-2.388 4.094-4.84-1.365-4.836-4.094-4.836m0 7.87c-1.328 0-1.56-1.874-1.56-3.034s.232-3.03 1.56-3.03 1.57 1.87 1.57 3.03-.232 3.034-1.556 3.034m12.78-7.67h-2.452v6.5c-.455.496-1.028 1-1.742 1-1.06 0-1-1.174-1-1.92v-5.582h-2.452v6.573c0 2.274 1.424 2.902 2.438 2.902a4.47 4.47 0 0 0 2.766-1.137v.96H45.8zm8.88-.315a2.27 2.27 0 0 0-1.674.76 4.46 4.46 0 0 0-2.274-.646c-2.002 0-3.744 1.192-3.744 3.248a3.5 3.5 0 0 0 1.146 2.552c-.7.455-1.2.942-1.2 1.85a1.46 1.46 0 0 0 .732 1.178c-.564.332-1.014.696-1.014 1.4 0 1.205 1.096 2.334 4.294 2.334 3.676 0 4.604-1.456 4.604-2.834 0-2.22-2.406-2.274-4.276-2.274h-.4c-.996 0-1.76-.023-1.76-.455a.63.63 0 0 1 .696-.578l.9.068c2.006 0 3.73-1.196 3.73-3.248a3.69 3.69 0 0 0-.5-1.574 1.34 1.34 0 0 1 .664-.2 2.14 2.14 0 0 1 .778.2v-1.738a3.42 3.42 0 0 0-.7-.064m-3.962 5.004c-.942 0-1.365-.696-1.365-1.542s.318-1.738 1.365-1.738c.9 0 1.328.7 1.328 1.556s-.3 1.724-1.328 1.724m.25 6.1c-.582 0-2.32-.05-2.32-.9a.63.63 0 0 1 .382-.578l2.73.182c1.46.082 1.788.032 1.788.514 0 .74-2.152.792-2.566.792m7.917-14.4h-2.45V34.9h2.45v-6.5c.455-.5 1.028-1.014 1.742-1.014 1.06 0 1 1.178 1 1.924v5.6h2.452v-6.578c0-2.274-1.424-2.898-2.434-2.898a4.47 4.47 0 0 0-2.77 1.16zm9.66 1.292h-2.447v2.32h-1.146v2.038h1.146v4.55c0 2.02 1.256 2.884 2.78 2.884a5.7 5.7 0 0 0 1.574-.282v-1.87a1.74 1.74 0 0 1-.978.35c-.792 0-.9-.455-.9-.9v-4.722h1.906v-2.038H68.6zm18.158 2.188c-2.038 0-3.662 1.406-3.662 4.836s1.624 4.836 3.662 4.836 3.64-1.406 3.64-4.836-1.624-4.836-3.64-4.836m0 8.58c-1.988 0-2.37-2.188-2.37-3.744s.382-3.744 2.37-3.744 2.365 2.188 2.365 3.744-.378 3.744-2.365 3.744m9.026-8.448h-.496c-1.365 0-2.02 1-2.534 2.102h-.032v-1.952H91.4v9.143h1.292v-5.204c.455-1.246 1.274-2.934 2.775-2.934a2.02 2.02 0 0 1 .287 0z"/>
    <path d="M106.76 25.483c-1.506 0-2.798.96-2.798 2.534 0 3.28 4.817 2.184 4.817 4.5 0 1.042-.842 1.556-1.788 1.556a2.56 2.56 0 0 1-2.375-1.474l-1.028.646a3.76 3.76 0 0 0 3.412 1.92c1.724 0 2.998-1.092 2.998-2.88 0-3.084-4.822-2.106-4.822-4.344 0-.9.796-1.365 1.642-1.365a2.36 2.36 0 0 1 2.088 1.21l.9-.714a3.5 3.5 0 0 0-3.048-1.588M10 24.2v-2.188h9.275V24.2h-3.343v10.7h-2.584V24.2z"/>
    <path d="M70.797 22.003h1.292l2.12 10.403 2.352-10.403h1.278l2.234 10.403 2.27-10.403h1.278L80.668 34.9h-1.324l-2.188-10.535L74.823 34.9H73.5zm26.003 0h1.292v7.983l3.394-4.24h1.442l-2.516 3.13L103.3 34.9h-1.392l-2.334-4.967-1.492 1.838v3.13H96.8z"/>
</svg>
