<svg width="108" height="55" viewBox="0 0 108 55" fill="none" xmlns="http://www.w3.org/2000/svg">
<path d="M49.9722 14.375C42.6715 14.375 36.7554 20.25 36.7554 27.5C36.7554 34.75 42.6715 40.625 49.9722 40.625C57.2729 40.625 63.1889 34.75 63.1889 27.5C63.1889 20.25 57.2729 14.375 49.9722 14.375ZM49.9722 35.625C45.4533 35.625 41.7903 31.9875 41.7903 27.5C41.7903 23.0125 45.4533 19.375 49.9722 19.375C54.491 19.375 58.154 23.0125 58.154 27.5C58.154 31.9875 54.491 35.625 49.9722 35.625Z" fill="#5528FF"/>
<path d="M79.8464 30.325C83.2805 29.3875 85.809 26.2625 85.8341 22.5625C85.8341 22.5375 85.8341 22.525 85.8341 22.5C85.8341 22.475 85.8341 22.4625 85.8341 22.4375C85.7964 17.975 82.1484 14.375 77.6576 14.375H66.9653V19.1L70.9907 25.6125H66.9779V40.625H72.0096V30.6125H74.1229L80.308 40.625H86.2241L79.8464 30.325ZM77.6702 25.625H76.9281L73.0411 19.375H77.6702C79.4062 19.375 80.815 20.775 80.815 22.5C80.815 24.225 79.4062 25.625 77.6702 25.625Z" fill="#5528FF"/>
<path d="M94.7835 40.625H89.1191L95.7653 27.5125L89.1191 14.375H94.7835L98.5723 21.925L102.462 14.375H108L94.7835 40.625Z" fill="#5528FF"/>
<path d="M13.2168 14.375C5.91608 14.375 0 20.25 0 27.5C0 34.75 5.91608 40.625 13.2168 40.625C20.5175 40.625 26.4336 34.75 26.4336 27.5C26.4336 20.25 20.5175 14.375 13.2168 14.375Z" fill="#5528FF"/>
<path d="M13.2168 -5.73712e-07L26.4336 6.5L26.4336 12.125L13.2168 5.625L0 12.125L-2.47596e-07 6.5L13.2168 -5.73712e-07Z" fill="#5528FF"/>
<path d="M13.2168 55L2.89289e-05 48.5L2.91765e-05 42.875L13.2168 49.375L26.4336 42.875L26.4336 48.5L13.2168 55Z" fill="#5528FF"/>
</svg>
