<svg width="252" height="50" viewBox="0 0 252 50" fill="none" xmlns="http://www.w3.org/2000/svg">
  <path d="M105.599 13.4965L93.9245 36.763C93.7238 37.164 93.6058 37.4116 93.6058 37.4116H88.2939C88.2939 37.4116 88.5536 36.9517 88.7425 36.5625L94.5265 25.0413L88.2939 12.6475C88.2939 12.6475 88.8369 12.6475 89.2737 12.6475H93.6058C93.6058 12.6475 93.712 12.8951 93.9127 13.296L97.1588 19.7701L100.417 13.296C100.617 12.8951 100.719 12.6475 100.719 12.6475H106C106 12.6475 105.787 13.1074 105.599 13.4965Z" fill="#FB8200"/>
  <path d="M76.4192 27.6946C79.6416 26.8102 82.0143 23.8621 82.0379 20.3715C82.0379 20.3479 82.0379 20.3361 82.0379 20.3126C82.0379 20.289 82.0379 20.2772 82.0379 20.2536C82.0025 16.0437 78.5793 12.6475 74.3653 12.6475L64.3318 12.6475V17.1084C64.3318 17.1084 64.3673 17.1758 64.4145 17.2701L66.7163 20.9965L68.1091 23.2489H64.9339H64.3437V36.8102C64.3437 37.1404 64.3437 37.4116 64.3437 37.4116H69.0653C69.0653 37.4116 69.0653 37.1404 69.0653 36.8102V27.9658H71.0483L76.5372 36.8456L76.8559 37.3998H82.4038C82.4038 37.3998 82.1205 36.8927 81.8844 36.5036L76.4192 27.6946ZM74.3771 23.2607H73.6806L73.6216 23.1663L71.4851 19.7111L70.0332 17.3644H74.3771C76.006 17.3644 77.3281 18.6852 77.3281 20.3126C77.3281 21.9399 76.006 23.2607 74.3771 23.2607Z" fill="#FB8200"/>
  <path d="M46.0356 12.6475C39.1893 12.6475 33.6414 18.1899 33.6414 25.0295C33.6414 31.8691 39.1893 37.4116 46.0356 37.4116C52.882 37.4116 58.4298 31.8691 58.4298 25.0295C58.4298 18.1899 52.882 12.6475 46.0356 12.6475ZM46.0356 32.6946C41.798 32.6946 38.363 29.263 38.363 25.0295C38.363 20.796 41.798 17.3644 46.0356 17.3644C50.2733 17.3644 53.7082 20.796 53.7082 25.0295C53.7082 29.263 50.2733 32.6946 46.0356 32.6946Z" fill="#FB8200"/>
  <path d="M12.1345 0.135589L12.3942 -2.15221e-05L15.0383 1.32663L17.6706 2.64738L24.7884 6.2205C24.7884 6.2205 24.7884 6.49172 24.7884 6.92804L24.7884 11.4681C24.7884 11.4681 24.3281 11.2441 23.9385 11.0554L12.406 5.2771L0.849889 11.0554C0.460356 11.2441 0 11.4681 0 11.4681L-2.29606e-07 6.2205C-2.29606e-07 6.2205 0.247884 6.09078 0.64922 5.89031L7.12962 2.64738L9.76191 1.32663L12.1345 0.135589Z" fill="#FB8200"/>
  <path d="M12.6539 49.8644L12.3942 50L9.75011 48.6734L7.11782 47.3526L1.67774e-06 43.7795C1.67774e-06 43.7795 1.68961e-06 43.5083 1.7087e-06 43.072L1.90735e-06 38.5319C1.90735e-06 38.5319 0.460358 38.7559 0.84989 38.9446L12.3824 44.7229L23.9385 38.9446C24.3281 38.7559 24.7884 38.5319 24.7884 38.5319L24.7884 43.7795C24.7884 43.7795 24.5405 43.9092 24.1392 44.1097L17.6588 47.3526L15.0265 48.6734L12.6539 49.8644Z" fill="#FB8200"/>
  <path d="M12.3942 12.6179C5.54788 12.6179 0 18.1604 0 25C0 31.8396 5.54788 37.3821 12.3942 37.3821C19.2405 37.3821 24.7884 31.8396 24.7884 25C24.7884 18.1604 19.2405 12.6179 12.3942 12.6179ZM12.3942 32.6651C8.15657 32.6651 4.7216 29.2335 4.7216 25C4.7216 20.7665 8.15657 17.3349 12.3942 17.3349C16.6318 17.3349 20.0668 20.7665 20.0668 25C20.0668 29.2335 16.6318 32.6651 12.3942 32.6651Z" fill="#FB8200"/>
  <path d="M129.746 12.3008L120.184 38H116.281L125.861 12.3008H129.746ZM162.424 38H157.555L149.486 26.3633L147.008 28.3848V38H142.807V12.3008H147.008V24.5703C148.156 23.1641 149.299 21.8105 150.436 20.5098L157.379 12.3008H162.16C157.672 17.5742 154.455 21.3301 152.51 23.5684L162.424 38ZM175.256 18.207C176.088 18.207 176.773 18.2656 177.312 18.3828L176.908 22.2324C176.322 22.0918 175.713 22.0215 175.08 22.0215C173.428 22.0215 172.086 22.5605 171.055 23.6387C170.035 24.7168 169.525 26.1172 169.525 27.8398V38H165.395V18.5586H168.629L169.174 21.9863H169.385C170.029 20.8262 170.867 19.9062 171.898 19.2266C172.941 18.5469 174.061 18.207 175.256 18.207ZM193.098 38L192.271 35.293H192.131C191.193 36.4766 190.25 37.2852 189.301 37.7188C188.352 38.1406 187.133 38.3516 185.645 38.3516C183.734 38.3516 182.24 37.8359 181.162 36.8047C180.096 35.7734 179.562 34.3145 179.562 32.4277C179.562 30.4238 180.307 28.9121 181.795 27.8926C183.283 26.873 185.551 26.3164 188.598 26.2227L191.955 26.1172V25.0801C191.955 23.8379 191.662 22.9121 191.076 22.3027C190.502 21.6816 189.605 21.3711 188.387 21.3711C187.391 21.3711 186.436 21.5176 185.521 21.8105C184.607 22.1035 183.729 22.4492 182.885 22.8477L181.549 19.8945C182.604 19.3438 183.758 18.9277 185.012 18.6465C186.266 18.3535 187.449 18.207 188.562 18.207C191.035 18.207 192.898 18.7461 194.152 19.8242C195.418 20.9023 196.051 22.5957 196.051 24.9043V38H193.098ZM186.945 35.1875C188.445 35.1875 189.646 34.7715 190.549 33.9395C191.463 33.0957 191.92 31.918 191.92 30.4062V28.7188L189.424 28.8242C187.479 28.8945 186.061 29.2227 185.17 29.8086C184.291 30.3828 183.852 31.2676 183.852 32.4629C183.852 33.3301 184.109 34.0039 184.625 34.4844C185.141 34.9531 185.914 35.1875 186.945 35.1875ZM209.059 35.0117C210.066 35.0117 211.074 34.8535 212.082 34.5371V37.6484C211.625 37.8477 211.033 38.0117 210.307 38.1406C209.592 38.2812 208.848 38.3516 208.074 38.3516C204.16 38.3516 202.203 36.2891 202.203 32.1641V21.6875H199.549V19.8594L202.396 18.3477L203.803 14.2344H206.352V18.5586H211.889V21.6875H206.352V32.0938C206.352 33.0898 206.598 33.8281 207.09 34.3086C207.594 34.7773 208.25 35.0117 209.059 35.0117ZM233.229 28.2441C233.229 31.4199 232.414 33.8984 230.785 35.6797C229.156 37.4609 226.889 38.3516 223.982 38.3516C222.166 38.3516 220.561 37.9414 219.166 37.1211C217.771 36.3008 216.699 35.123 215.949 33.5879C215.199 32.0527 214.824 30.2715 214.824 28.2441C214.824 25.0918 215.633 22.6309 217.25 20.8613C218.867 19.0918 221.146 18.207 224.088 18.207C226.9 18.207 229.127 19.1152 230.768 20.9316C232.408 22.7363 233.229 25.1738 233.229 28.2441ZM219.078 28.2441C219.078 32.7324 220.736 34.9766 224.053 34.9766C227.334 34.9766 228.975 32.7324 228.975 28.2441C228.975 23.8027 227.322 21.582 224.018 21.582C222.283 21.582 221.023 22.1562 220.238 23.3047C219.465 24.4531 219.078 26.0996 219.078 28.2441ZM251.053 32.4629C251.053 34.3613 250.361 35.8203 248.979 36.8398C247.596 37.8477 245.615 38.3516 243.037 38.3516C240.447 38.3516 238.367 37.959 236.797 37.1738V33.6055C239.082 34.6602 241.209 35.1875 243.178 35.1875C245.721 35.1875 246.992 34.4199 246.992 32.8848C246.992 32.3926 246.852 31.9824 246.57 31.6543C246.289 31.3262 245.826 30.9863 245.182 30.6348C244.537 30.2832 243.641 29.8848 242.492 29.4395C240.254 28.5723 238.736 27.7051 237.939 26.8379C237.154 25.9707 236.762 24.8457 236.762 23.4629C236.762 21.7988 237.43 20.5098 238.766 19.5957C240.113 18.6699 241.941 18.207 244.25 18.207C246.535 18.207 248.697 18.6699 250.736 19.5957L249.4 22.707C247.303 21.8398 245.539 21.4062 244.109 21.4062C241.93 21.4062 240.84 22.0273 240.84 23.2695C240.84 23.8789 241.121 24.3945 241.684 24.8164C242.258 25.2383 243.5 25.8184 245.41 26.5566C247.016 27.1777 248.182 27.7461 248.908 28.2617C249.635 28.7773 250.174 29.375 250.525 30.0547C250.877 30.7227 251.053 31.5254 251.053 32.4629Z" fill="#FFB86C"/>
</svg>
