<svg width="233" height="55" viewBox="0 0 233 55" fill="none" xmlns="http://www.w3.org/2000/svg">
<path d="M49.9722 14.375C42.6715 14.375 36.7554 20.25 36.7554 27.5C36.7554 34.75 42.6715 40.625 49.9722 40.625C57.2729 40.625 63.1889 34.75 63.1889 27.5C63.1889 20.25 57.2729 14.375 49.9722 14.375ZM49.9722 35.625C45.4533 35.625 41.7903 31.9875 41.7903 27.5C41.7903 23.0125 45.4533 19.375 49.9722 19.375C54.491 19.375 58.154 23.0125 58.154 27.5C58.154 31.9875 54.491 35.625 49.9722 35.625Z" fill="#1DE9B6"/>
<path d="M79.8464 30.325C83.2805 29.3875 85.809 26.2625 85.8341 22.5625C85.8341 22.5375 85.8341 22.525 85.8341 22.5C85.8341 22.475 85.8341 22.4625 85.8341 22.4375C85.7964 17.975 82.1484 14.375 77.6576 14.375H66.9653V19.1L70.9907 25.6125H66.9779V40.625H72.0096V30.6125H74.1229L80.308 40.625H86.2241L79.8464 30.325ZM77.6702 25.625H76.9281L73.0411 19.375H77.6702C79.4062 19.375 80.815 20.775 80.815 22.5C80.815 24.225 79.4062 25.625 77.6702 25.625Z" fill="#1DE9B6"/>
<path d="M94.7835 40.625H89.1191L95.7653 27.5125L89.1191 14.375H94.7835L98.5723 21.925L102.462 14.375H108L94.7835 40.625Z" fill="#1DE9B6"/>
<path d="M13.2168 14.375C5.91608 14.375 0 20.25 0 27.5C0 34.75 5.91608 40.625 13.2168 40.625C20.5175 40.625 26.4336 34.75 26.4336 27.5C26.4336 20.25 20.5175 14.375 13.2168 14.375Z" fill="#1DE9B6"/>
<path d="M13.2168 -5.73712e-07L26.4336 6.5L26.4336 12.125L13.2168 5.625L0 12.125L-2.47596e-07 6.5L13.2168 -5.73712e-07Z" fill="#1DE9B6"/>
<path d="M13.2168 55L2.89289e-05 48.5L2.91765e-05 42.875L13.2168 49.375L26.4336 42.875L26.4336 48.5L13.2168 55Z" fill="#1DE9B6"/>
<path d="M135.277 12.4453L124.633 41H121.391L132.035 12.4453H135.277ZM154.719 30.043C155.279 29.2487 156.132 28.207 157.277 26.918L164.191 19.5938H168.039L159.367 28.7148L168.645 41H164.719L157.16 30.8828L154.719 32.9922V41H151.516V10.6094H154.719V26.7227C154.719 27.4388 154.667 28.5456 154.562 30.043H154.719ZM182.574 41.3906C179.41 41.3906 176.91 40.4271 175.074 38.5C173.251 36.5729 172.34 33.8971 172.34 30.4727C172.34 27.0221 173.186 24.2812 174.879 22.25C176.585 20.2188 178.87 19.2031 181.734 19.2031C184.417 19.2031 186.539 20.0885 188.102 21.8594C189.664 23.6172 190.445 25.9414 190.445 28.832V30.8828H175.699C175.764 33.3958 176.396 35.3034 177.594 36.6055C178.805 37.9076 180.504 38.5586 182.691 38.5586C184.996 38.5586 187.275 38.0768 189.527 37.1133V40.0039C188.382 40.4987 187.294 40.8503 186.266 41.0586C185.25 41.2799 184.02 41.3906 182.574 41.3906ZM181.695 21.918C179.977 21.918 178.603 22.4779 177.574 23.5977C176.559 24.7174 175.96 26.2669 175.777 28.2461H186.969C186.969 26.2018 186.513 24.6393 185.602 23.5586C184.69 22.4648 183.388 21.918 181.695 21.918ZM203.906 38.7148C204.479 38.7148 205.033 38.6758 205.566 38.5977C206.1 38.5065 206.523 38.4154 206.836 38.3242V40.8047C206.484 40.974 205.964 41.1107 205.273 41.2148C204.596 41.332 203.984 41.3906 203.438 41.3906C199.297 41.3906 197.227 39.2096 197.227 34.8477V22.1133H194.16V20.5508L197.227 19.2031L198.594 14.6328H200.469V19.5938H206.68V22.1133H200.469V34.7109C200.469 36 200.775 36.9896 201.387 37.6797C201.999 38.3698 202.839 38.7148 203.906 38.7148ZM230.609 30.2773C230.609 33.7669 229.73 36.4948 227.973 38.4609C226.215 40.4141 223.786 41.3906 220.688 41.3906C218.773 41.3906 217.074 40.9414 215.59 40.043C214.105 39.1445 212.96 37.8555 212.152 36.1758C211.345 34.4961 210.941 32.5299 210.941 30.2773C210.941 26.7878 211.814 24.0729 213.559 22.1328C215.303 20.1797 217.725 19.2031 220.824 19.2031C223.819 19.2031 226.195 20.1992 227.953 22.1914C229.724 24.1836 230.609 26.8789 230.609 30.2773ZM214.301 30.2773C214.301 33.0117 214.848 35.0951 215.941 36.5273C217.035 37.9596 218.643 38.6758 220.766 38.6758C222.888 38.6758 224.496 37.9661 225.59 36.5469C226.697 35.1146 227.25 33.0247 227.25 30.2773C227.25 27.556 226.697 25.4922 225.59 24.0859C224.496 22.6667 222.875 21.957 220.727 21.957C218.604 21.957 217.003 22.6536 215.922 24.0469C214.841 25.4401 214.301 27.5169 214.301 30.2773Z" fill="#1DE9B6"/>
</svg>
