<?xml version="1.0" encoding="utf-8"?>
<!-- Generator: Adobe Illustrator 22.0.1, SVG Export Plug-In . SVG Version: 6.00 Build 0)  -->
<svg version="1.1" id="Ebene_1" xmlns="http://www.w3.org/2000/svg" xmlns:xlink="http://www.w3.org/1999/xlink" x="0px" y="0px"
	 viewBox="0 0 89 40" enable-background="new 0 0 89 40" xml:space="preserve">
<g id="Ory_x2F_logo_x5F_white_x5F_40px_1_">
	<g id="Group_1_">
		<path id="Fill-12_1_" fill="#6274f3" d="M10.4,39.9c-0.1,0.1-0.3,0.1-0.4,0L8,39l-7.5-3.8C0.2,35,0,34.7,0,34.3v-3
			c0-0.4,0.4-0.6,0.7-0.4l9.5,4.8l9.5-4.8c0.3-0.2,0.7,0.1,0.7,0.4v3c0,0.4-0.2,0.7-0.5,0.9l-5.3,2.7L12.4,39L10.4,39.9"/>
		<path id="Fill-13_1_" fill="#6274f3" d="M10,0.1c0.1-0.1,0.3-0.1,0.4,0l1.9,1l7.5,3.8c0.3,0.2,0.5,0.5,0.5,0.9v3
			c0,0.4-0.4,0.6-0.7,0.4l-9.5-4.8L0.7,9.1C0.4,9.3,0,9,0,8.7v-3C0,5.3,0.2,5,0.5,4.8l5.3-2.7L8,1L10,0.1"/>
		<path id="Fill-14_1_" fill="#6274f3" d="M10.2,26.4c-3.5,0-6.3-2.8-6.3-6.3s2.8-6.3,6.3-6.3s6.3,2.8,6.3,6.3S13.7,26.4,10.2,26.4z
			 M10.2,9.8C4.6,9.8,0,14.4,0,20s4.6,10.3,10.2,10.3S20.4,25.7,20.4,20S15.8,9.8,10.2,9.8z"/>
		<path id="Fill-15_1_" fill="#6274f3" d="M40.5,26.4c-3.5,0-6.3-2.8-6.3-6.3s2.8-6.3,6.3-6.3c3.5,0,6.3,2.8,6.3,6.3
			S44,26.4,40.5,26.4z M40.5,9.8c-5.6,0-10.2,4.6-10.2,10.3s4.6,10.3,10.2,10.3S50.7,25.7,50.7,20S46.2,9.8,40.5,9.8z"/>
		<path id="Fill-16_1_" fill="#6274f3" d="M63.9,18.6h-0.6l-0.1-0.1l-3-4.8h3.6c1.3,0,2.4,1.1,2.4,2.4S65.3,18.6,63.9,18.6z
			 M65.6,22.2c2.7-0.7,4.6-3.2,4.6-6.1c0,0,0,0,0,0c0,0,0,0,0,0c0-3.5-2.8-6.3-6.3-6.3h-7.8c-0.3,0-0.5,0.2-0.5,0.5v3.1
			c0,0.1,0,0.2,0.1,0.3l3,5h-2.6c-0.3,0-0.5,0.2-0.5,0.5v10.7c0,0.3,0.2,0.5,0.5,0.5h2.9c0.3,0,0.5-0.2,0.5-0.5v-7.3h1.6l4.5,7.3
			c0.2,0.3,0.5,0.5,0.8,0.5h3.2c0.4,0,0.6-0.4,0.4-0.7L65.6,22.2z"/>
		<path id="Fill-17_1_" fill="#6274f3" d="M88.9,10.5l-9.5,19.3c-0.2,0.3-0.5,0.5-0.9,0.5h-2.9c-0.4,0-0.6-0.4-0.4-0.7L80,20
			l-4.7-9.5c-0.2-0.3,0.1-0.7,0.4-0.7h2.9c0.4,0,0.7,0.2,0.9,0.5l2.6,5.4l2.6-5.4c0.2-0.3,0.5-0.5,0.9-0.5h2.9
			C88.9,9.8,89.1,10.1,88.9,10.5"/>
	</g>
</g>
</svg>
