<svg width="218" height="50" viewBox="0 0 218 50" fill="none" xmlns="http://www.w3.org/2000/svg">
  <path
    d="M105.599 13.4965L93.9245 36.763C93.7238 37.1639 93.6058 37.4115 93.6058 37.4115H88.2939C88.2939 37.4115 88.5536 36.9516 88.7425 36.5625L94.5265 25.0413L88.2939 12.6474C88.2939 12.6474 88.8369 12.6474 89.2737 12.6474H93.6058C93.6058 12.6474 93.712 12.895 93.9127 13.296L97.1588 19.77L100.417 13.296C100.617 12.895 100.719 12.6474 100.719 12.6474H106C106 12.6474 105.787 13.1073 105.599 13.4965Z"
    fill="#00A571"/>
  <path
    d="M76.4192 27.6946C79.6416 26.8101 82.0143 23.862 82.0379 20.3715C82.0379 20.3479 82.0379 20.3361 82.0379 20.3125C82.0379 20.2889 82.0379 20.2771 82.0379 20.2535C82.0025 16.0436 78.5793 12.6474 74.3653 12.6474L64.3318 12.6474V17.1083C64.3318 17.1083 64.3673 17.1757 64.4145 17.27L66.7163 20.9965L68.1091 23.2488H64.9339H64.3437V36.8101C64.3437 37.1403 64.3437 37.4115 64.3437 37.4115H69.0653C69.0653 37.4115 69.0653 37.1403 69.0653 36.8101V27.9658H71.0483L76.5372 36.8455L76.8559 37.3997H82.4038C82.4038 37.3997 82.1205 36.8927 81.8844 36.5035L76.4192 27.6946ZM74.3771 23.2606H73.6806L73.6216 23.1663L71.4851 19.7111L70.0332 17.3644H74.3771C76.006 17.3644 77.3281 18.6851 77.3281 20.3125C77.3281 21.9398 76.006 23.2606 74.3771 23.2606Z"
    fill="#00A571"/>
  <path
    d="M46.0356 12.6474C39.1893 12.6474 33.6414 18.1898 33.6414 25.0295C33.6414 31.8691 39.1893 37.4115 46.0356 37.4115C52.882 37.4115 58.4298 31.8691 58.4298 25.0295C58.4298 18.1898 52.882 12.6474 46.0356 12.6474ZM46.0356 32.6946C41.798 32.6946 38.363 29.263 38.363 25.0295C38.363 20.796 41.798 17.3644 46.0356 17.3644C50.2733 17.3644 53.7082 20.796 53.7082 25.0295C53.7082 29.263 50.2733 32.6946 46.0356 32.6946Z"
    fill="#00A571"/>
  <path
    d="M12.1345 0.135589L12.3942 -2.15221e-05L15.0383 1.32663L17.6706 2.64738L24.7884 6.2205C24.7884 6.2205 24.7884 6.49172 24.7884 6.92804L24.7884 11.4681C24.7884 11.4681 24.3281 11.2441 23.9385 11.0554L12.406 5.2771L0.849889 11.0554C0.460356 11.2441 0 11.4681 0 11.4681L-2.29606e-07 6.2205C-2.29606e-07 6.2205 0.247884 6.09078 0.64922 5.89031L7.12962 2.64738L9.76191 1.32663L12.1345 0.135589Z"
    fill="#00A571"/>
  <path
    d="M12.6539 49.8644L12.3942 50L9.75011 48.6734L7.11782 47.3526L1.67774e-06 43.7795C1.67774e-06 43.7795 1.68961e-06 43.5083 1.7087e-06 43.072L1.90735e-06 38.5319C1.90735e-06 38.5319 0.460358 38.7559 0.84989 38.9446L12.3824 44.7229L23.9385 38.9446C24.3281 38.7559 24.7884 38.5319 24.7884 38.5319L24.7884 43.7795C24.7884 43.7795 24.5405 43.9092 24.1392 44.1097L17.6588 47.3526L15.0265 48.6734L12.6539 49.8644Z"
    fill="#00A571"/>
  <path
    d="M12.3942 12.6179C5.54788 12.6179 0 18.1604 0 25C0 31.8396 5.54788 37.3821 12.3942 37.3821C19.2405 37.3821 24.7884 31.8396 24.7884 25C24.7884 18.1604 19.2405 12.6179 12.3942 12.6179ZM12.3942 32.6651C8.15657 32.6651 4.7216 29.2335 4.7216 25C4.7216 20.7665 8.15657 17.3349 12.3942 17.3349C16.6318 17.3349 20.0668 20.7665 20.0668 25C20.0668 29.2335 16.6318 32.6651 12.3942 32.6651Z"
    fill="#00A571"/>
  <path
    d="M129.746 12.3008L120.184 38H116.281L125.861 12.3008H129.746ZM162.424 38H157.555L149.486 26.3633L147.008 28.3848V38H142.807V12.3008H147.008V24.5703C148.156 23.1641 149.299 21.8105 150.436 20.5098L157.379 12.3008H162.16C157.672 17.5742 154.455 21.3301 152.51 23.5684L162.424 38ZM173.885 38.3516C170.861 38.3516 168.494 37.4727 166.783 35.7148C165.084 33.9453 164.234 31.5137 164.234 28.4199C164.234 25.2441 165.025 22.748 166.607 20.9316C168.189 19.1152 170.363 18.207 173.129 18.207C175.695 18.207 177.723 18.9863 179.211 20.5449C180.699 22.1035 181.443 24.248 181.443 26.9785V29.2109H168.488C168.547 31.0977 169.057 32.5508 170.018 33.5703C170.979 34.5781 172.332 35.082 174.078 35.082C175.227 35.082 176.293 34.9766 177.277 34.7656C178.273 34.543 179.34 34.1797 180.477 33.6758V37.0332C179.469 37.5137 178.449 37.8535 177.418 38.0527C176.387 38.252 175.209 38.3516 173.885 38.3516ZM173.129 21.3359C171.816 21.3359 170.762 21.752 169.965 22.584C169.18 23.416 168.711 24.6289 168.559 26.2227H177.383C177.359 24.6172 176.973 23.4043 176.223 22.584C175.473 21.752 174.441 21.3359 173.129 21.3359ZM193.379 35.0117C194.387 35.0117 195.395 34.8535 196.402 34.5371V37.6484C195.945 37.8477 195.354 38.0117 194.627 38.1406C193.912 38.2812 193.168 38.3516 192.395 38.3516C188.48 38.3516 186.523 36.2891 186.523 32.1641V21.6875H183.869V19.8594L186.717 18.3477L188.123 14.2344H190.672V18.5586H196.209V21.6875H190.672V32.0938C190.672 33.0898 190.918 33.8281 191.41 34.3086C191.914 34.7773 192.57 35.0117 193.379 35.0117ZM217.549 28.2441C217.549 31.4199 216.734 33.8984 215.105 35.6797C213.477 37.4609 211.209 38.3516 208.303 38.3516C206.486 38.3516 204.881 37.9414 203.486 37.1211C202.092 36.3008 201.02 35.123 200.27 33.5879C199.52 32.0527 199.145 30.2715 199.145 28.2441C199.145 25.0918 199.953 22.6309 201.57 20.8613C203.188 19.0918 205.467 18.207 208.408 18.207C211.221 18.207 213.447 19.1152 215.088 20.9316C216.729 22.7363 217.549 25.1738 217.549 28.2441ZM203.398 28.2441C203.398 32.7324 205.057 34.9766 208.373 34.9766C211.654 34.9766 213.295 32.7324 213.295 28.2441C213.295 23.8027 211.643 21.582 208.338 21.582C206.604 21.582 205.344 22.1562 204.559 23.3047C203.785 24.4531 203.398 26.0996 203.398 28.2441Z"
    fill="#6BE2BD"/>
</svg>
