<svg width="242" height="50" viewBox="0 0 242 50" fill="none" xmlns="http://www.w3.org/2000/svg">
  <path d="M105.599 13.4965L93.9245 36.763C93.7238 37.164 93.6058 37.4116 93.6058 37.4116H88.2939C88.2939 37.4116 88.5536 36.9517 88.7425 36.5625L94.5265 25.0413L88.2939 12.6475C88.2939 12.6475 88.8369 12.6475 89.2737 12.6475H93.6058C93.6058 12.6475 93.712 12.8951 93.9127 13.296L97.1588 19.7701L100.417 13.296C100.617 12.8951 100.719 12.6475 100.719 12.6475H106C106 12.6475 105.787 13.1074 105.599 13.4965Z" fill="#DB2B56"/>
  <path d="M76.4192 27.6946C79.6416 26.8102 82.0143 23.8621 82.0379 20.3715C82.0379 20.3479 82.0379 20.3361 82.0379 20.3126C82.0379 20.289 82.0379 20.2772 82.0379 20.2536C82.0025 16.0437 78.5793 12.6475 74.3653 12.6475L64.3318 12.6475V17.1084C64.3318 17.1084 64.3673 17.1758 64.4145 17.2701L66.7163 20.9965L68.1091 23.2489H64.9339H64.3437V36.8102C64.3437 37.1404 64.3437 37.4116 64.3437 37.4116H69.0653C69.0653 37.4116 69.0653 37.1404 69.0653 36.8102V27.9658H71.0483L76.5372 36.8456L76.8559 37.3998H82.4038C82.4038 37.3998 82.1205 36.8927 81.8844 36.5036L76.4192 27.6946ZM74.3771 23.2607H73.6806L73.6216 23.1663L71.4851 19.7111L70.0332 17.3644H74.3771C76.006 17.3644 77.3281 18.6852 77.3281 20.3126C77.3281 21.9399 76.006 23.2607 74.3771 23.2607Z" fill="#DB2B56"/>
  <path d="M46.0356 12.6475C39.1893 12.6475 33.6414 18.1899 33.6414 25.0295C33.6414 31.8691 39.1893 37.4116 46.0356 37.4116C52.882 37.4116 58.4298 31.8691 58.4298 25.0295C58.4298 18.1899 52.882 12.6475 46.0356 12.6475ZM46.0356 32.6946C41.798 32.6946 38.363 29.263 38.363 25.0295C38.363 20.796 41.798 17.3644 46.0356 17.3644C50.2733 17.3644 53.7082 20.796 53.7082 25.0295C53.7082 29.263 50.2733 32.6946 46.0356 32.6946Z" fill="#DB2B56"/>
  <path d="M12.1345 0.135589L12.3942 -2.15221e-05L15.0383 1.32663L17.6706 2.64738L24.7884 6.2205C24.7884 6.2205 24.7884 6.49172 24.7884 6.92804L24.7884 11.4681C24.7884 11.4681 24.3281 11.2441 23.9385 11.0554L12.406 5.2771L0.849889 11.0554C0.460356 11.2441 0 11.4681 0 11.4681L-2.29606e-07 6.2205C-2.29606e-07 6.2205 0.247884 6.09078 0.64922 5.89031L7.12962 2.64738L9.76191 1.32663L12.1345 0.135589Z" fill="#DB2B56"/>
  <path d="M12.6539 49.8644L12.3942 50L9.75011 48.6734L7.11782 47.3526L1.67774e-06 43.7795C1.67774e-06 43.7795 1.68961e-06 43.5083 1.7087e-06 43.072L1.90735e-06 38.5319C1.90735e-06 38.5319 0.460358 38.7559 0.84989 38.9446L12.3824 44.7229L23.9385 38.9446C24.3281 38.7559 24.7884 38.5319 24.7884 38.5319L24.7884 43.7795C24.7884 43.7795 24.5405 43.9092 24.1392 44.1097L17.6588 47.3526L15.0265 48.6734L12.6539 49.8644Z" fill="#DB2B56"/>
  <path d="M12.3942 12.6179C5.54788 12.6179 0 18.1604 0 25C0 31.8396 5.54788 37.3821 12.3942 37.3821C19.2405 37.3821 24.7884 31.8396 24.7884 25C24.7884 18.1604 19.2405 12.6179 12.3942 12.6179ZM12.3942 32.6651C8.15657 32.6651 4.7216 29.2335 4.7216 25C4.7216 20.7665 8.15657 17.3349 12.3942 17.3349C16.6318 17.3349 20.0668 20.7665 20.0668 25C20.0668 29.2335 16.6318 32.6651 12.3942 32.6651Z" fill="#DB2B56"/>
  <path d="M129.746 12.3008L120.184 38H116.281L125.861 12.3008H129.746ZM163.074 38H158.855V26.416H147.008V38H142.807V12.3008H147.008V22.8125H158.855V12.3008H163.074V38ZM166.449 18.5586H170.949L174.904 29.5801C175.502 31.1504 175.9 32.627 176.1 34.0098H176.24C176.346 33.3652 176.539 32.5859 176.82 31.6719C177.102 30.7461 178.59 26.375 181.285 18.5586H185.75L177.436 40.584C175.924 44.627 173.404 46.6484 169.877 46.6484C168.963 46.6484 168.072 46.5488 167.205 46.3496V43.0801C167.826 43.2207 168.535 43.291 169.332 43.291C171.324 43.291 172.725 42.1367 173.533 39.8281L174.254 38L166.449 18.5586ZM195.26 38.3516C192.834 38.3516 190.941 37.4727 189.582 35.7148C188.223 33.957 187.543 31.4902 187.543 28.3145C187.543 25.127 188.229 22.6484 189.6 20.8789C190.982 19.0977 192.893 18.207 195.33 18.207C197.885 18.207 199.83 19.1504 201.166 21.0371H201.377C201.178 19.6426 201.078 18.541 201.078 17.7324V10.6484H205.227V38H201.992L201.271 35.4512H201.078C199.754 37.3848 197.814 38.3516 195.26 38.3516ZM196.367 35.0117C198.066 35.0117 199.303 34.5371 200.076 33.5879C200.85 32.627 201.248 31.0742 201.271 28.9297V28.3496C201.271 25.9004 200.873 24.1602 200.076 23.1289C199.279 22.0977 198.031 21.582 196.332 21.582C194.879 21.582 193.76 22.1738 192.975 23.3574C192.189 24.5293 191.797 26.2051 191.797 28.3848C191.797 30.541 192.178 32.1875 192.939 33.3242C193.701 34.4492 194.844 35.0117 196.367 35.0117ZM220.994 18.207C221.826 18.207 222.512 18.2656 223.051 18.3828L222.646 22.2324C222.061 22.0918 221.451 22.0215 220.818 22.0215C219.166 22.0215 217.824 22.5605 216.793 23.6387C215.773 24.7168 215.264 26.1172 215.264 27.8398V38H211.133V18.5586H214.367L214.912 21.9863H215.123C215.768 20.8262 216.605 19.9062 217.637 19.2266C218.68 18.5469 219.799 18.207 220.994 18.207ZM238.836 38L238.01 35.293H237.869C236.932 36.4766 235.988 37.2852 235.039 37.7188C234.09 38.1406 232.871 38.3516 231.383 38.3516C229.473 38.3516 227.979 37.8359 226.9 36.8047C225.834 35.7734 225.301 34.3145 225.301 32.4277C225.301 30.4238 226.045 28.9121 227.533 27.8926C229.021 26.873 231.289 26.3164 234.336 26.2227L237.693 26.1172V25.0801C237.693 23.8379 237.4 22.9121 236.814 22.3027C236.24 21.6816 235.344 21.3711 234.125 21.3711C233.129 21.3711 232.174 21.5176 231.26 21.8105C230.346 22.1035 229.467 22.4492 228.623 22.8477L227.287 19.8945C228.342 19.3438 229.496 18.9277 230.75 18.6465C232.004 18.3535 233.188 18.207 234.301 18.207C236.773 18.207 238.637 18.7461 239.891 19.8242C241.156 20.9023 241.789 22.5957 241.789 24.9043V38H238.836ZM232.684 35.1875C234.184 35.1875 235.385 34.7715 236.287 33.9395C237.201 33.0957 237.658 31.918 237.658 30.4062V28.7188L235.162 28.8242C233.217 28.8945 231.799 29.2227 230.908 29.8086C230.029 30.3828 229.59 31.2676 229.59 32.4629C229.59 33.3301 229.848 34.0039 230.363 34.4844C230.879 34.9531 231.652 35.1875 232.684 35.1875Z" fill="#FF6B8F"/>
</svg>
