<svg width="260" height="55" viewBox="0 0 260 55" fill="none" xmlns="http://www.w3.org/2000/svg">
<path d="M49.9722 14.375C42.6715 14.375 36.7554 20.25 36.7554 27.5C36.7554 34.75 42.6715 40.625 49.9722 40.625C57.2729 40.625 63.1889 34.75 63.1889 27.5C63.1889 20.25 57.2729 14.375 49.9722 14.375ZM49.9722 35.625C45.4533 35.625 41.7903 31.9875 41.7903 27.5C41.7903 23.0125 45.4533 19.375 49.9722 19.375C54.491 19.375 58.154 23.0125 58.154 27.5C58.154 31.9875 54.491 35.625 49.9722 35.625Z" fill="#FF6A85"/>
<path d="M79.8464 30.325C83.2805 29.3875 85.809 26.2625 85.8341 22.5625C85.8341 22.5375 85.8341 22.525 85.8341 22.5C85.8341 22.475 85.8341 22.4625 85.8341 22.4375C85.7964 17.975 82.1484 14.375 77.6576 14.375H66.9653V19.1L70.9907 25.6125H66.9779V40.625H72.0096V30.6125H74.1229L80.308 40.625H86.2241L79.8464 30.325ZM77.6702 25.625H76.9281L73.0411 19.375H77.6702C79.4062 19.375 80.815 20.775 80.815 22.5C80.815 24.225 79.4062 25.625 77.6702 25.625Z" fill="#FF6A85"/>
<path d="M94.7835 40.625H89.1191L95.7653 27.5125L89.1191 14.375H94.7835L98.5723 21.925L102.462 14.375H108L94.7835 40.625Z" fill="#FF6A85"/>
<path d="M13.2168 14.375C5.91608 14.375 0 20.25 0 27.5C0 34.75 5.91608 40.625 13.2168 40.625C20.5175 40.625 26.4336 34.75 26.4336 27.5C26.4336 20.25 20.5175 14.375 13.2168 14.375Z" fill="#FF6A85"/>
<path d="M13.2168 -5.73712e-07L26.4336 6.5L26.4336 12.125L13.2168 5.625L0 12.125L-2.47596e-07 6.5L13.2168 -5.73712e-07Z" fill="#FF6A85"/>
<path d="M13.2168 55L2.89289e-05 48.5L2.91765e-05 42.875L13.2168 49.375L26.4336 42.875L26.4336 48.5L13.2168 55Z" fill="#FF6A85"/>
<path d="M135.277 12.4453L124.633 41H121.391L132.035 12.4453H135.277ZM166.164 41V27.1523C166.164 25.4076 165.767 24.1055 164.973 23.2461C164.178 22.3867 162.935 21.957 161.242 21.957C158.99 21.957 157.342 22.569 156.301 23.793C155.272 25.0169 154.758 27.0221 154.758 29.8086V41H151.516V10.6094H154.758V19.8086C154.758 20.9154 154.706 21.8333 154.602 22.5625H154.797C155.435 21.5339 156.34 20.7266 157.512 20.1406C158.697 19.5417 160.044 19.2422 161.555 19.2422C164.172 19.2422 166.132 19.8672 167.434 21.1172C168.749 22.3542 169.406 24.3268 169.406 27.0352V41H166.164ZM173.688 19.5938H177.164L181.852 31.8008C182.88 34.5872 183.518 36.599 183.766 37.8359H183.922C184.091 37.1719 184.443 36.0391 184.977 34.4375C185.523 32.8229 187.294 27.875 190.289 19.5938H193.766L184.566 43.9688C183.655 46.3776 182.587 48.0833 181.363 49.0859C180.152 50.1016 178.661 50.6094 176.891 50.6094C175.901 50.6094 174.924 50.4987 173.961 50.2773V47.6797C174.677 47.8359 175.478 47.9141 176.363 47.9141C178.59 47.9141 180.178 46.6641 181.129 44.1641L182.32 41.1172L173.688 19.5938ZM212.812 38.1289H212.637C211.139 40.3034 208.9 41.3906 205.918 41.3906C203.118 41.3906 200.938 40.4336 199.375 38.5195C197.826 36.6055 197.051 33.8841 197.051 30.3555C197.051 26.8268 197.832 24.0859 199.395 22.1328C200.957 20.1797 203.132 19.2031 205.918 19.2031C208.822 19.2031 211.048 20.2578 212.598 22.3672H212.852L212.715 20.8242L212.637 19.3203V10.6094H215.879V41H213.242L212.812 38.1289ZM206.328 38.6758C208.542 38.6758 210.143 38.0768 211.133 36.8789C212.135 35.668 212.637 33.7214 212.637 31.0391V30.3555C212.637 27.3216 212.129 25.1602 211.113 23.8711C210.111 22.569 208.503 21.918 206.289 21.918C204.388 21.918 202.93 22.6602 201.914 24.1445C200.911 25.6159 200.41 27.6992 200.41 30.3945C200.41 33.1289 200.911 35.1927 201.914 36.5859C202.917 37.9792 204.388 38.6758 206.328 38.6758ZM233.539 19.2031C234.49 19.2031 235.342 19.2812 236.098 19.4375L235.648 22.4453C234.763 22.25 233.982 22.1523 233.305 22.1523C231.573 22.1523 230.089 22.8555 228.852 24.2617C227.628 25.668 227.016 27.4193 227.016 29.5156V41H223.773V19.5938H226.449L226.82 23.5586H226.977C227.771 22.1654 228.728 21.0911 229.848 20.3359C230.967 19.5807 232.198 19.2031 233.539 19.2031ZM254.266 41L253.621 37.9531H253.465C252.397 39.2943 251.329 40.2057 250.262 40.6875C249.207 41.1562 247.885 41.3906 246.297 41.3906C244.174 41.3906 242.508 40.8438 241.297 39.75C240.099 38.6562 239.5 37.1003 239.5 35.082C239.5 30.7591 242.957 28.4935 249.871 28.2852L253.504 28.168V26.8398C253.504 25.1602 253.139 23.9232 252.41 23.1289C251.694 22.3216 250.542 21.918 248.953 21.918C247.169 21.918 245.151 22.4648 242.898 23.5586L241.902 21.0781C242.957 20.5052 244.109 20.056 245.359 19.7305C246.622 19.4049 247.885 19.2422 249.148 19.2422C251.701 19.2422 253.589 19.8086 254.812 20.9414C256.049 22.0742 256.668 23.8906 256.668 26.3906V41H254.266ZM246.941 38.7148C248.96 38.7148 250.542 38.1615 251.688 37.0547C252.846 35.9479 253.426 34.3984 253.426 32.4062V30.4727L250.184 30.6094C247.605 30.7005 245.743 31.1042 244.598 31.8203C243.465 32.5234 242.898 33.6237 242.898 35.1211C242.898 36.293 243.25 37.1849 243.953 37.7969C244.669 38.4089 245.665 38.7148 246.941 38.7148Z" fill="#FF6A85"/>
</svg>
