<svg width="346" height="50" viewBox="0 0 346 50" fill="none" xmlns="http://www.w3.org/2000/svg">
  <path d="M105.599 13.4965L93.9245 36.763C93.7238 37.1639 93.6058 37.4115 93.6058 37.4115H88.2939C88.2939 37.4115 88.5536 36.9516 88.7425 36.5625L94.5265 25.0413L88.2939 12.6474C88.2939 12.6474 88.8369 12.6474 89.2737 12.6474H93.6058C93.6058 12.6474 93.712 12.895 93.9127 13.296L97.1588 19.77L100.417 13.296C100.617 12.895 100.719 12.6474 100.719 12.6474H106C106 12.6474 105.787 13.1073 105.599 13.4965Z" fill="#2979FF"/>
  <path d="M76.4192 27.6946C79.6416 26.8101 82.0143 23.862 82.0379 20.3715C82.0379 20.3479 82.0379 20.3361 82.0379 20.3125C82.0379 20.2889 82.0379 20.2771 82.0379 20.2535C82.0025 16.0436 78.5793 12.6474 74.3653 12.6474L64.3318 12.6474V17.1083C64.3318 17.1083 64.3673 17.1757 64.4145 17.27L66.7163 20.9965L68.1091 23.2488H64.9339H64.3437V36.8101C64.3437 37.1403 64.3437 37.4115 64.3437 37.4115H69.0653C69.0653 37.4115 69.0653 37.1403 69.0653 36.8101V27.9658H71.0483L76.5372 36.8455L76.8559 37.3997H82.4038C82.4038 37.3997 82.1205 36.8927 81.8844 36.5035L76.4192 27.6946ZM74.3771 23.2606H73.6806L73.6216 23.1663L71.4851 19.7111L70.0332 17.3644H74.3771C76.006 17.3644 77.3281 18.6851 77.3281 20.3125C77.3281 21.9398 76.006 23.2606 74.3771 23.2606Z" fill="#2979FF"/>
  <path d="M46.0356 12.6474C39.1893 12.6474 33.6414 18.1898 33.6414 25.0295C33.6414 31.8691 39.1893 37.4115 46.0356 37.4115C52.882 37.4115 58.4298 31.8691 58.4298 25.0295C58.4298 18.1898 52.882 12.6474 46.0356 12.6474ZM46.0356 32.6946C41.798 32.6946 38.363 29.263 38.363 25.0295C38.363 20.796 41.798 17.3644 46.0356 17.3644C50.2733 17.3644 53.7082 20.796 53.7082 25.0295C53.7082 29.263 50.2733 32.6946 46.0356 32.6946Z" fill="#2979FF"/>
  <path d="M12.1345 0.135589L12.3942 -2.15221e-05L15.0383 1.32663L17.6706 2.64738L24.7884 6.2205C24.7884 6.2205 24.7884 6.49172 24.7884 6.92804L24.7884 11.4681C24.7884 11.4681 24.3281 11.2441 23.9385 11.0554L12.406 5.2771L0.849889 11.0554C0.460356 11.2441 0 11.4681 0 11.4681L-2.29606e-07 6.2205C-2.29606e-07 6.2205 0.247884 6.09078 0.64922 5.89031L7.12962 2.64738L9.76191 1.32663L12.1345 0.135589Z" fill="#2979FF"/>
  <path d="M12.6539 49.8644L12.3942 50L9.75011 48.6734L7.11782 47.3526L1.67774e-06 43.7795C1.67774e-06 43.7795 1.68961e-06 43.5083 1.7087e-06 43.072L1.90735e-06 38.5319C1.90735e-06 38.5319 0.460358 38.7559 0.84989 38.9446L12.3824 44.7229L23.9385 38.9446C24.3281 38.7559 24.7884 38.5319 24.7884 38.5319L24.7884 43.7795C24.7884 43.7795 24.5405 43.9092 24.1392 44.1097L17.6588 47.3526L15.0265 48.6734L12.6539 49.8644Z" fill="#2979FF"/>
  <path d="M12.3942 12.6179C5.54788 12.6179 0 18.1604 0 25C0 31.8396 5.54788 37.3821 12.3942 37.3821C19.2405 37.3821 24.7884 31.8396 24.7884 25C24.7884 18.1604 19.2405 12.6179 12.3942 12.6179ZM12.3942 32.6651C8.15657 32.6651 4.7216 29.2335 4.7216 25C4.7216 20.7665 8.15657 17.3349 12.3942 17.3349C16.6318 17.3349 20.0668 20.7665 20.0668 25C20.0668 29.2335 16.6318 32.6651 12.3942 32.6651Z" fill="#2979FF"/>
  <path d="M129.746 12.3008L120.184 38H116.281L125.861 12.3008H129.746ZM165.623 25.1152C165.623 29.2988 164.574 32.5508 162.477 34.8711C160.391 37.1914 157.432 38.3516 153.6 38.3516C149.721 38.3516 146.738 37.2031 144.652 34.9062C142.578 32.5977 141.541 29.3223 141.541 25.0801C141.541 20.8379 142.584 17.5801 144.67 15.3066C146.768 13.0332 149.756 11.8965 153.635 11.8965C157.455 11.8965 160.408 13.0508 162.494 15.3594C164.58 17.668 165.623 20.9199 165.623 25.1152ZM146.006 25.1152C146.006 28.2793 146.645 30.6816 147.922 32.3223C149.199 33.9512 151.092 34.7656 153.6 34.7656C156.096 34.7656 157.977 33.957 159.242 32.3398C160.52 30.7227 161.158 28.3145 161.158 25.1152C161.158 21.9629 160.525 19.5723 159.26 17.9434C158.006 16.3145 156.131 15.5 153.635 15.5C151.115 15.5 149.211 16.3145 147.922 17.9434C146.645 19.5723 146.006 21.9629 146.006 25.1152ZM182.867 38L182.041 35.293H181.9C180.963 36.4766 180.02 37.2852 179.07 37.7188C178.121 38.1406 176.902 38.3516 175.414 38.3516C173.504 38.3516 172.01 37.8359 170.932 36.8047C169.865 35.7734 169.332 34.3145 169.332 32.4277C169.332 30.4238 170.076 28.9121 171.564 27.8926C173.053 26.873 175.32 26.3164 178.367 26.2227L181.725 26.1172V25.0801C181.725 23.8379 181.432 22.9121 180.846 22.3027C180.271 21.6816 179.375 21.3711 178.156 21.3711C177.16 21.3711 176.205 21.5176 175.291 21.8105C174.377 22.1035 173.498 22.4492 172.654 22.8477L171.318 19.8945C172.373 19.3438 173.527 18.9277 174.781 18.6465C176.035 18.3535 177.219 18.207 178.332 18.207C180.805 18.207 182.668 18.7461 183.922 19.8242C185.188 20.9023 185.82 22.5957 185.82 24.9043V38H182.867ZM176.715 35.1875C178.215 35.1875 179.416 34.7715 180.318 33.9395C181.232 33.0957 181.689 31.918 181.689 30.4062V28.7188L179.193 28.8242C177.248 28.8945 175.83 29.2227 174.939 29.8086C174.061 30.3828 173.621 31.2676 173.621 32.4629C173.621 33.3301 173.879 34.0039 174.395 34.4844C174.91 34.9531 175.684 35.1875 176.715 35.1875ZM198.828 35.0117C199.836 35.0117 200.844 34.8535 201.852 34.5371V37.6484C201.395 37.8477 200.803 38.0117 200.076 38.1406C199.361 38.2812 198.617 38.3516 197.844 38.3516C193.93 38.3516 191.973 36.2891 191.973 32.1641V21.6875H189.318V19.8594L192.166 18.3477L193.572 14.2344H196.121V18.5586H201.658V21.6875H196.121V32.0938C196.121 33.0898 196.367 33.8281 196.859 34.3086C197.363 34.7773 198.02 35.0117 198.828 35.0117ZM222.857 38H218.709V26.0469C218.709 24.5469 218.404 23.4277 217.795 22.6895C217.197 21.9512 216.242 21.582 214.93 21.582C213.195 21.582 211.918 22.1035 211.098 23.1465C210.289 24.1777 209.885 25.9121 209.885 28.3496V38H205.754V10.6484H209.885V17.5918C209.885 18.7051 209.814 19.8945 209.674 21.1602H209.938C210.5 20.2227 211.279 19.4961 212.275 18.9805C213.283 18.4648 214.455 18.207 215.791 18.207C220.502 18.207 222.857 20.5801 222.857 25.3262V38ZM232.596 27.7344L234.934 24.8164L240.805 18.5586H245.568L237.746 26.9082L246.061 38H241.209L234.969 29.4746L232.701 31.3379V38H228.605V10.6484H232.701V23.9902L232.49 27.7344H232.596ZM257.697 38.3516C254.674 38.3516 252.307 37.4727 250.596 35.7148C248.896 33.9453 248.047 31.5137 248.047 28.4199C248.047 25.2441 248.838 22.748 250.42 20.9316C252.002 19.1152 254.176 18.207 256.941 18.207C259.508 18.207 261.535 18.9863 263.023 20.5449C264.512 22.1035 265.256 24.248 265.256 26.9785V29.2109H252.301C252.359 31.0977 252.869 32.5508 253.83 33.5703C254.791 34.5781 256.145 35.082 257.891 35.082C259.039 35.082 260.105 34.9766 261.09 34.7656C262.086 34.543 263.152 34.1797 264.289 33.6758V37.0332C263.281 37.5137 262.262 37.8535 261.23 38.0527C260.199 38.252 259.021 38.3516 257.697 38.3516ZM256.941 21.3359C255.629 21.3359 254.574 21.752 253.777 22.584C252.992 23.416 252.523 24.6289 252.371 26.2227H261.195C261.172 24.6172 260.785 23.4043 260.035 22.584C259.285 21.752 258.254 21.3359 256.941 21.3359ZM278.439 38.3516C275.416 38.3516 273.049 37.4727 271.338 35.7148C269.639 33.9453 268.789 31.5137 268.789 28.4199C268.789 25.2441 269.58 22.748 271.162 20.9316C272.744 19.1152 274.918 18.207 277.684 18.207C280.25 18.207 282.277 18.9863 283.766 20.5449C285.254 22.1035 285.998 24.248 285.998 26.9785V29.2109H273.043C273.102 31.0977 273.611 32.5508 274.572 33.5703C275.533 34.5781 276.887 35.082 278.633 35.082C279.781 35.082 280.848 34.9766 281.832 34.7656C282.828 34.543 283.895 34.1797 285.031 33.6758V37.0332C284.023 37.5137 283.004 37.8535 281.973 38.0527C280.941 38.252 279.764 38.3516 278.439 38.3516ZM277.684 21.3359C276.371 21.3359 275.316 21.752 274.52 22.584C273.734 23.416 273.266 24.6289 273.113 26.2227H281.938C281.914 24.6172 281.527 23.4043 280.777 22.584C280.027 21.752 278.996 21.3359 277.684 21.3359ZM300.553 38.3516C298.092 38.3516 296.182 37.4668 294.822 35.6973H294.576C294.74 37.3379 294.822 38.334 294.822 38.6855V46.6484H290.691V18.5586H294.031C294.125 18.9219 294.318 19.7891 294.611 21.1602H294.822C296.111 19.1914 298.045 18.207 300.623 18.207C303.049 18.207 304.936 19.0859 306.283 20.8438C307.643 22.6016 308.322 25.0684 308.322 28.2441C308.322 31.4199 307.631 33.8984 306.248 35.6797C304.877 37.4609 302.979 38.3516 300.553 38.3516ZM299.551 21.582C297.91 21.582 296.709 22.0625 295.947 23.0234C295.197 23.9844 294.822 25.5195 294.822 27.6289V28.2441C294.822 30.6113 295.197 32.3281 295.947 33.3945C296.697 34.4492 297.922 34.9766 299.621 34.9766C301.051 34.9766 302.152 34.3906 302.926 33.2188C303.699 32.0469 304.086 30.377 304.086 28.209C304.086 26.0293 303.699 24.3828 302.926 23.2695C302.164 22.1445 301.039 21.582 299.551 21.582ZM321.611 38.3516C318.588 38.3516 316.221 37.4727 314.51 35.7148C312.811 33.9453 311.961 31.5137 311.961 28.4199C311.961 25.2441 312.752 22.748 314.334 20.9316C315.916 19.1152 318.09 18.207 320.855 18.207C323.422 18.207 325.449 18.9863 326.938 20.5449C328.426 22.1035 329.17 24.248 329.17 26.9785V29.2109H316.215C316.273 31.0977 316.783 32.5508 317.744 33.5703C318.705 34.5781 320.059 35.082 321.805 35.082C322.953 35.082 324.02 34.9766 325.004 34.7656C326 34.543 327.066 34.1797 328.203 33.6758V37.0332C327.195 37.5137 326.176 37.8535 325.145 38.0527C324.113 38.252 322.936 38.3516 321.611 38.3516ZM320.855 21.3359C319.543 21.3359 318.488 21.752 317.691 22.584C316.906 23.416 316.438 24.6289 316.285 26.2227H325.109C325.086 24.6172 324.699 23.4043 323.949 22.584C323.199 21.752 322.168 21.3359 320.855 21.3359ZM343.725 18.207C344.557 18.207 345.242 18.2656 345.781 18.3828L345.377 22.2324C344.791 22.0918 344.182 22.0215 343.549 22.0215C341.896 22.0215 340.555 22.5605 339.523 23.6387C338.504 24.7168 337.994 26.1172 337.994 27.8398V38H333.863V18.5586H337.098L337.643 21.9863H337.854C338.498 20.8262 339.336 19.9062 340.367 19.2266C341.41 18.5469 342.529 18.207 343.725 18.207Z" fill="#7FAFFF"/>
</svg>
