<svg width="271" height="55" viewBox="0 0 271 55" fill="none" xmlns="http://www.w3.org/2000/svg">
<path d="M49.9722 14.375C42.6715 14.375 36.7554 20.25 36.7554 27.5C36.7554 34.75 42.6715 40.625 49.9722 40.625C57.2729 40.625 63.1889 34.75 63.1889 27.5C63.1889 20.25 57.2729 14.375 49.9722 14.375ZM49.9722 35.625C45.4533 35.625 41.7903 31.9875 41.7903 27.5C41.7903 23.0125 45.4533 19.375 49.9722 19.375C54.491 19.375 58.154 23.0125 58.154 27.5C58.154 31.9875 54.491 35.625 49.9722 35.625Z" fill="#FF9800"/>
<path d="M79.8464 30.325C83.2805 29.3875 85.809 26.2625 85.8341 22.5625C85.8341 22.5375 85.8341 22.525 85.8341 22.5C85.8341 22.475 85.8341 22.4625 85.8341 22.4375C85.7964 17.975 82.1484 14.375 77.6576 14.375H66.9653V19.1L70.9907 25.6125H66.9779V40.625H72.0096V30.6125H74.1229L80.308 40.625H86.2241L79.8464 30.325ZM77.6702 25.625H76.9281L73.0411 19.375H77.6702C79.4062 19.375 80.815 20.775 80.815 22.5C80.815 24.225 79.4062 25.625 77.6702 25.625Z" fill="#FF9800"/>
<path d="M94.7835 40.625H89.1191L95.7653 27.5125L89.1191 14.375H94.7835L98.5723 21.925L102.462 14.375H108L94.7835 40.625Z" fill="#FF9800"/>
<path d="M13.2168 14.375C5.91608 14.375 0 20.25 0 27.5C0 34.75 5.91608 40.625 13.2168 40.625C20.5175 40.625 26.4336 34.75 26.4336 27.5C26.4336 20.25 20.5175 14.375 13.2168 14.375Z" fill="#FF9800"/>
<path d="M13.2168 -5.73712e-07L26.4336 6.5L26.4336 12.125L13.2168 5.625L0 12.125L-2.47596e-07 6.5L13.2168 -5.73712e-07Z" fill="#FF9800"/>
<path d="M13.2168 55L2.89289e-05 48.5L2.91765e-05 42.875L13.2168 49.375L26.4336 42.875L26.4336 48.5L13.2168 55Z" fill="#FF9800"/>
<path d="M135.277 12.4453L124.633 41H121.391L132.035 12.4453H135.277ZM154.719 30.043C155.279 29.2487 156.132 28.207 157.277 26.918L164.191 19.5938H168.039L159.367 28.7148L168.645 41H164.719L157.16 30.8828L154.719 32.9922V41H151.516V10.6094H154.719V26.7227C154.719 27.4388 154.667 28.5456 154.562 30.043H154.719ZM183.297 19.2031C184.247 19.2031 185.1 19.2812 185.855 19.4375L185.406 22.4453C184.521 22.25 183.74 22.1523 183.062 22.1523C181.331 22.1523 179.846 22.8555 178.609 24.2617C177.385 25.668 176.773 27.4193 176.773 29.5156V41H173.531V19.5938H176.207L176.578 23.5586H176.734C177.529 22.1654 178.486 21.0911 179.605 20.3359C180.725 19.5807 181.956 19.2031 183.297 19.2031ZM204.023 41L203.379 37.9531H203.223C202.155 39.2943 201.087 40.2057 200.02 40.6875C198.965 41.1562 197.643 41.3906 196.055 41.3906C193.932 41.3906 192.266 40.8438 191.055 39.75C189.857 38.6562 189.258 37.1003 189.258 35.082C189.258 30.7591 192.715 28.4935 199.629 28.2852L203.262 28.168V26.8398C203.262 25.1602 202.897 23.9232 202.168 23.1289C201.452 22.3216 200.299 21.918 198.711 21.918C196.927 21.918 194.909 22.4648 192.656 23.5586L191.66 21.0781C192.715 20.5052 193.867 20.056 195.117 19.7305C196.38 19.4049 197.643 19.2422 198.906 19.2422C201.458 19.2422 203.346 19.8086 204.57 20.9414C205.807 22.0742 206.426 23.8906 206.426 26.3906V41H204.023ZM196.699 38.7148C198.717 38.7148 200.299 38.1615 201.445 37.0547C202.604 35.9479 203.184 34.3984 203.184 32.4062V30.4727L199.941 30.6094C197.363 30.7005 195.501 31.1042 194.355 31.8203C193.223 32.5234 192.656 33.6237 192.656 35.1211C192.656 36.293 193.008 37.1849 193.711 37.7969C194.427 38.4089 195.423 38.7148 196.699 38.7148ZM221.039 38.7148C221.612 38.7148 222.165 38.6758 222.699 38.5977C223.233 38.5065 223.656 38.4154 223.969 38.3242V40.8047C223.617 40.974 223.096 41.1107 222.406 41.2148C221.729 41.332 221.117 41.3906 220.57 41.3906C216.43 41.3906 214.359 39.2096 214.359 34.8477V22.1133H211.293V20.5508L214.359 19.2031L215.727 14.6328H217.602V19.5938H223.812V22.1133H217.602V34.7109C217.602 36 217.908 36.9896 218.52 37.6797C219.132 38.3698 219.971 38.7148 221.039 38.7148ZM247.742 30.2773C247.742 33.7669 246.863 36.4948 245.105 38.4609C243.348 40.4141 240.919 41.3906 237.82 41.3906C235.906 41.3906 234.207 40.9414 232.723 40.043C231.238 39.1445 230.092 37.8555 229.285 36.1758C228.478 34.4961 228.074 32.5299 228.074 30.2773C228.074 26.7878 228.947 24.0729 230.691 22.1328C232.436 20.1797 234.858 19.2031 237.957 19.2031C240.952 19.2031 243.328 20.1992 245.086 22.1914C246.857 24.1836 247.742 26.8789 247.742 30.2773ZM231.434 30.2773C231.434 33.0117 231.98 35.0951 233.074 36.5273C234.168 37.9596 235.776 38.6758 237.898 38.6758C240.021 38.6758 241.629 37.9661 242.723 36.5469C243.829 35.1146 244.383 33.0247 244.383 30.2773C244.383 27.556 243.829 25.4922 242.723 24.0859C241.629 22.6667 240.008 21.957 237.859 21.957C235.737 21.957 234.135 22.6536 233.055 24.0469C231.974 25.4401 231.434 27.5169 231.434 30.2773ZM268.254 35.1602C268.254 37.1523 267.512 38.6888 266.027 39.7695C264.543 40.8503 262.46 41.3906 259.777 41.3906C256.939 41.3906 254.725 40.9414 253.137 40.043V37.0352C254.165 37.556 255.266 37.9661 256.438 38.2656C257.622 38.5651 258.762 38.7148 259.855 38.7148C261.548 38.7148 262.85 38.4479 263.762 37.9141C264.673 37.3672 265.129 36.5404 265.129 35.4336C265.129 34.6003 264.764 33.8906 264.035 33.3047C263.319 32.7057 261.913 32.0026 259.816 31.1953C257.824 30.4531 256.405 29.8086 255.559 29.2617C254.725 28.7018 254.1 28.0703 253.684 27.3672C253.28 26.6641 253.078 25.8242 253.078 24.8477C253.078 23.1029 253.788 21.7292 255.207 20.7266C256.626 19.7109 258.573 19.2031 261.047 19.2031C263.352 19.2031 265.604 19.6719 267.805 20.6094L266.652 23.2461C264.504 22.3607 262.557 21.918 260.812 21.918C259.276 21.918 258.117 22.1589 257.336 22.6406C256.555 23.1224 256.164 23.7865 256.164 24.6328C256.164 25.2057 256.307 25.694 256.594 26.0977C256.893 26.5013 257.368 26.8854 258.02 27.25C258.671 27.6146 259.921 28.1419 261.77 28.832C264.309 29.7565 266.021 30.6875 266.906 31.625C267.805 32.5625 268.254 33.7409 268.254 35.1602Z" fill="#FF9800"/>
</svg>
