<svg width="372" height="55" viewBox="0 0 372 55" fill="none" xmlns="http://www.w3.org/2000/svg">
<path d="M49.9722 14.375C42.6715 14.375 36.7554 20.25 36.7554 27.5C36.7554 34.75 42.6715 40.625 49.9722 40.625C57.2729 40.625 63.1889 34.75 63.1889 27.5C63.1889 20.25 57.2729 14.375 49.9722 14.375ZM49.9722 35.625C45.4533 35.625 41.7903 31.9875 41.7903 27.5C41.7903 23.0125 45.4533 19.375 49.9722 19.375C54.491 19.375 58.154 23.0125 58.154 27.5C58.154 31.9875 54.491 35.625 49.9722 35.625Z" fill="#CD62F3"/>
<path d="M79.8464 30.325C83.2805 29.3875 85.809 26.2625 85.8341 22.5625C85.8341 22.5375 85.8341 22.525 85.8341 22.5C85.8341 22.475 85.8341 22.4625 85.8341 22.4375C85.7964 17.975 82.1484 14.375 77.6576 14.375H66.9653V19.1L70.9907 25.6125H66.9779V40.625H72.0096V30.6125H74.1229L80.308 40.625H86.2241L79.8464 30.325ZM77.6702 25.625H76.9281L73.0411 19.375H77.6702C79.4062 19.375 80.815 20.775 80.815 22.5C80.815 24.225 79.4062 25.625 77.6702 25.625Z" fill="#CD62F3"/>
<path d="M94.7835 40.625H89.1191L95.7653 27.5125L89.1191 14.375H94.7835L98.5723 21.925L102.462 14.375H108L94.7835 40.625Z" fill="#CD62F3"/>
<path d="M13.2168 14.375C5.91608 14.375 0 20.25 0 27.5C0 34.75 5.91608 40.625 13.2168 40.625C20.5175 40.625 26.4336 34.75 26.4336 27.5C26.4336 20.25 20.5175 14.375 13.2168 14.375Z" fill="#CD62F3"/>
<path d="M13.2168 -5.73712e-07L26.4336 6.5L26.4336 12.125L13.2168 5.625L0 12.125L-2.47596e-07 6.5L13.2168 -5.73712e-07Z" fill="#CD62F3"/>
<path d="M13.2168 55L2.89289e-05 48.5L2.91765e-05 42.875L13.2168 49.375L26.4336 42.875L26.4336 48.5L13.2168 55Z" fill="#CD62F3"/>
<path d="M135.277 12.4453L124.633 41H121.391L132.035 12.4453H135.277ZM169.992 30.2773C169.992 33.7669 169.113 36.4948 167.355 38.4609C165.598 40.4141 163.169 41.3906 160.07 41.3906C158.156 41.3906 156.457 40.9414 154.973 40.043C153.488 39.1445 152.342 37.8555 151.535 36.1758C150.728 34.4961 150.324 32.5299 150.324 30.2773C150.324 26.7878 151.197 24.0729 152.941 22.1328C154.686 20.1797 157.108 19.2031 160.207 19.2031C163.202 19.2031 165.578 20.1992 167.336 22.1914C169.107 24.1836 169.992 26.8789 169.992 30.2773ZM153.684 30.2773C153.684 33.0117 154.23 35.0951 155.324 36.5273C156.418 37.9596 158.026 38.6758 160.148 38.6758C162.271 38.6758 163.879 37.9661 164.973 36.5469C166.079 35.1146 166.633 33.0247 166.633 30.2773C166.633 27.556 166.079 25.4922 164.973 24.0859C163.879 22.6667 162.258 21.957 160.109 21.957C157.987 21.957 156.385 22.6536 155.305 24.0469C154.224 25.4401 153.684 27.5169 153.684 30.2773ZM189.859 41L189.215 37.9531H189.059C187.991 39.2943 186.923 40.2057 185.855 40.6875C184.801 41.1562 183.479 41.3906 181.891 41.3906C179.768 41.3906 178.102 40.8438 176.891 39.75C175.693 38.6562 175.094 37.1003 175.094 35.082C175.094 30.7591 178.551 28.4935 185.465 28.2852L189.098 28.168V26.8398C189.098 25.1602 188.733 23.9232 188.004 23.1289C187.288 22.3216 186.135 21.918 184.547 21.918C182.763 21.918 180.745 22.4648 178.492 23.5586L177.496 21.0781C178.551 20.5052 179.703 20.056 180.953 19.7305C182.216 19.4049 183.479 19.2422 184.742 19.2422C187.294 19.2422 189.182 19.8086 190.406 20.9414C191.643 22.0742 192.262 23.8906 192.262 26.3906V41H189.859ZM182.535 38.7148C184.553 38.7148 186.135 38.1615 187.281 37.0547C188.44 35.9479 189.02 34.3984 189.02 32.4062V30.4727L185.777 30.6094C183.199 30.7005 181.337 31.1042 180.191 31.8203C179.059 32.5234 178.492 33.6237 178.492 35.1211C178.492 36.293 178.844 37.1849 179.547 37.7969C180.263 38.4089 181.259 38.7148 182.535 38.7148ZM206.875 38.7148C207.448 38.7148 208.001 38.6758 208.535 38.5977C209.069 38.5065 209.492 38.4154 209.805 38.3242V40.8047C209.453 40.974 208.932 41.1107 208.242 41.2148C207.565 41.332 206.953 41.3906 206.406 41.3906C202.266 41.3906 200.195 39.2096 200.195 34.8477V22.1133H197.129V20.5508L200.195 19.2031L201.562 14.6328H203.438V19.5938H209.648V22.1133H203.438V34.7109C203.438 36 203.743 36.9896 204.355 37.6797C204.967 38.3698 205.807 38.7148 206.875 38.7148ZM229.75 41V27.1523C229.75 25.4076 229.353 24.1055 228.559 23.2461C227.764 22.3867 226.521 21.957 224.828 21.957C222.576 21.957 220.928 22.569 219.887 23.793C218.858 25.0169 218.344 27.0221 218.344 29.8086V41H215.102V10.6094H218.344V19.8086C218.344 20.9154 218.292 21.8333 218.188 22.5625H218.383C219.021 21.5339 219.926 20.7266 221.098 20.1406C222.283 19.5417 223.63 19.2422 225.141 19.2422C227.758 19.2422 229.717 19.8672 231.02 21.1172C232.335 22.3542 232.992 24.3268 232.992 27.0352V41H229.75ZM243.875 30.043C244.435 29.2487 245.288 28.207 246.434 26.918L253.348 19.5938H257.195L248.523 28.7148L257.801 41H253.875L246.316 30.8828L243.875 32.9922V41H240.672V10.6094H243.875V26.7227C243.875 27.4388 243.823 28.5456 243.719 30.043H243.875ZM271.73 41.3906C268.566 41.3906 266.066 40.4271 264.23 38.5C262.408 36.5729 261.496 33.8971 261.496 30.4727C261.496 27.0221 262.342 24.2812 264.035 22.25C265.741 20.2188 268.026 19.2031 270.891 19.2031C273.573 19.2031 275.695 20.0885 277.258 21.8594C278.82 23.6172 279.602 25.9414 279.602 28.832V30.8828H264.855C264.921 33.3958 265.552 35.3034 266.75 36.6055C267.961 37.9076 269.66 38.5586 271.848 38.5586C274.152 38.5586 276.431 38.0768 278.684 37.1133V40.0039C277.538 40.4987 276.451 40.8503 275.422 41.0586C274.406 41.2799 273.176 41.3906 271.73 41.3906ZM270.852 21.918C269.133 21.918 267.759 22.4779 266.73 23.5977C265.715 24.7174 265.116 26.2669 264.934 28.2461H276.125C276.125 26.2018 275.669 24.6393 274.758 23.5586C273.846 22.4648 272.544 21.918 270.852 21.918ZM295.191 41.3906C292.027 41.3906 289.527 40.4271 287.691 38.5C285.868 36.5729 284.957 33.8971 284.957 30.4727C284.957 27.0221 285.803 24.2812 287.496 22.25C289.202 20.2188 291.487 19.2031 294.352 19.2031C297.034 19.2031 299.156 20.0885 300.719 21.8594C302.281 23.6172 303.062 25.9414 303.062 28.832V30.8828H288.316C288.382 33.3958 289.013 35.3034 290.211 36.6055C291.422 37.9076 293.121 38.5586 295.309 38.5586C297.613 38.5586 299.892 38.0768 302.145 37.1133V40.0039C300.999 40.4987 299.911 40.8503 298.883 41.0586C297.867 41.2799 296.637 41.3906 295.191 41.3906ZM294.312 21.918C292.594 21.918 291.22 22.4779 290.191 23.5977C289.176 24.7174 288.577 26.2669 288.395 28.2461H299.586C299.586 26.2018 299.13 24.6393 298.219 23.5586C297.307 22.4648 296.005 21.918 294.312 21.918ZM319.57 41.3906C318.177 41.3906 316.901 41.1367 315.742 40.6289C314.596 40.1081 313.633 39.3138 312.852 38.2461H312.617C312.773 39.4961 312.852 40.681 312.852 41.8008V50.6094H309.609V19.5938H312.246L312.695 22.5234H312.852C313.685 21.3516 314.655 20.5052 315.762 19.9844C316.868 19.4635 318.138 19.2031 319.57 19.2031C322.409 19.2031 324.596 20.1732 326.133 22.1133C327.682 24.0534 328.457 26.7747 328.457 30.2773C328.457 33.793 327.669 36.5273 326.094 38.4805C324.531 40.4206 322.357 41.3906 319.57 41.3906ZM319.102 21.957C316.914 21.957 315.332 22.5625 314.355 23.7734C313.379 24.9844 312.878 26.9115 312.852 29.5547V30.2773C312.852 33.2852 313.353 35.4401 314.355 36.7422C315.358 38.0312 316.966 38.6758 319.18 38.6758C321.029 38.6758 322.474 37.9271 323.516 36.4297C324.57 34.9323 325.098 32.8685 325.098 30.2383C325.098 27.569 324.57 25.5247 323.516 24.1055C322.474 22.6732 321.003 21.957 319.102 21.957ZM344.184 41.3906C341.02 41.3906 338.52 40.4271 336.684 38.5C334.861 36.5729 333.949 33.8971 333.949 30.4727C333.949 27.0221 334.796 24.2812 336.488 22.25C338.194 20.2188 340.479 19.2031 343.344 19.2031C346.026 19.2031 348.148 20.0885 349.711 21.8594C351.273 23.6172 352.055 25.9414 352.055 28.832V30.8828H337.309C337.374 33.3958 338.005 35.3034 339.203 36.6055C340.414 37.9076 342.113 38.5586 344.301 38.5586C346.605 38.5586 348.884 38.0768 351.137 37.1133V40.0039C349.991 40.4987 348.904 40.8503 347.875 41.0586C346.859 41.2799 345.629 41.3906 344.184 41.3906ZM343.305 21.918C341.586 21.918 340.212 22.4779 339.184 23.5977C338.168 24.7174 337.569 26.2669 337.387 28.2461H348.578C348.578 26.2018 348.122 24.6393 347.211 23.5586C346.299 22.4648 344.997 21.918 343.305 21.918ZM368.367 19.2031C369.318 19.2031 370.171 19.2812 370.926 19.4375L370.477 22.4453C369.591 22.25 368.81 22.1523 368.133 22.1523C366.401 22.1523 364.917 22.8555 363.68 24.2617C362.456 25.668 361.844 27.4193 361.844 29.5156V41H358.602V19.5938H361.277L361.648 23.5586H361.805C362.599 22.1654 363.556 21.0911 364.676 20.3359C365.796 19.5807 367.026 19.2031 368.367 19.2031Z" fill="#CD62F3"/>
</svg>
