<svg width="148" height="32" viewBox="0 0 148 32" fill="none" xmlns="http://www.w3.org/2000/svg">
    <path d="M34.6796 5.41825V12.4689H41.4897V5.41825H45.612V23.7052H41.4897V16.0765H34.6796V23.7052H30.5572V5.41825H34.6796Z" fill="#000000"/>
    <path d="M54.055 21.043C55.6837 21.043 56.6879 19.4396 56.6879 17.0557C56.6879 15.1021 55.9284 13.0936 54.055 13.0936C52.1014 13.0936 51.3419 15.1021 51.3419 17.081C51.3419 19.3299 52.2913 21.043 54.0254 21.043H54.055ZM53.9748 24.0008C50.0972 24.0008 47.1098 21.4523 47.1098 17.1654C47.1098 12.8784 49.9326 10.14 54.2153 10.14C58.2575 10.14 60.9706 12.9333 60.9706 16.9502C60.9706 21.7772 57.5275 24.0008 54.0001 24.0008H53.9748Z" fill="#000000"/>
    <path d="M69.2996 21.043C70.9283 21.043 71.9325 19.4396 71.9325 17.0557C71.9325 15.1021 71.173 13.0936 69.2996 13.0936C67.346 13.0936 66.5865 15.1021 66.5865 17.081C66.5865 19.3299 67.5359 21.043 69.2743 21.043H69.2996ZM69.2152 24.0008C65.3376 24.0008 62.3545 21.4523 62.3545 17.1654C62.3545 12.8784 65.1772 10.14 69.4599 10.14C73.5021 10.14 76.2152 12.9333 76.2152 16.9502C76.2152 21.7772 72.7679 24.0008 69.2405 24.0008H69.2152Z" fill="#000000"/>
    <path d="M77.7218 13.4731V18.9246C77.7218 20.798 78.1015 22.0722 78.861 22.857C79.5403 23.5364 80.65 23.9963 81.9792 23.9963C83.1184 23.9963 84.1226 23.8317 84.6374 23.6419L84.6079 20.5237C84.2281 20.6081 83.9581 20.6334 83.3885 20.6334C82.169 20.6334 81.7598 19.8992 81.7598 18.3001V13.4731H84.7176V10.4351H81.7598V7.86971L81.7429 7.87815V6.41401C79.5192 6.41401 77.7176 8.21148 77.7176 10.4351H77.7133V13.4731H77.7218Z" fill="#000000"/>
    <path d="M119.958 13.4731V18.9246C119.958 20.798 120.338 22.0722 121.097 22.857C121.776 23.5364 122.886 23.9963 124.215 23.9963C125.355 23.9963 126.359 23.8317 126.874 23.6419L126.844 20.5237C126.464 20.6081 126.194 20.6334 125.625 20.6334C124.405 20.6334 123.996 19.8992 123.996 18.3001V13.4731H126.954V10.4351H123.996V7.86971L123.979 7.87815V6.41401C121.755 6.41401 119.954 8.21148 119.954 10.4351H119.949V13.4731H119.958Z" fill="#000000"/>
    <path d="M86.8947 20.1184C87.6542 20.5783 89.228 21.0931 90.4474 21.0931C91.6964 21.0931 92.2111 20.688 92.2111 20.0087C92.2111 19.3041 91.8061 18.975 90.2829 18.4602C87.5149 17.5657 86.4558 16.0467 86.4854 14.5024C86.4854 12.0045 88.5993 10.1353 91.882 10.1353C93.4263 10.1353 94.785 10.515 95.5993 10.9201L94.8947 13.7429C94.2955 13.4433 93.131 13.0087 92.017 13.0087C91.0128 13.0087 90.4474 13.4138 90.4474 14.0678C90.4474 14.7176 90.9622 15.0467 92.5909 15.6163C95.1141 16.456 96.1436 17.7555 96.1732 19.6838C96.1732 22.1817 94.2491 23.996 90.4516 23.996C88.7132 23.996 87.1689 23.591 86.1647 23.0467L86.8947 20.1184Z" fill="#000000"/>
    <path d="M110.228 19.443C110.228 21.1772 110.283 22.5907 110.338 23.7004H106.755L106.566 21.827H106.485C105.971 22.6413 104.722 23.9958 102.338 23.9958C99.6247 23.9958 97.6711 22.3164 97.6711 18.2194V10.4346H101.793V17.5696C101.793 19.4937 102.418 20.6582 103.882 20.6582C105.021 20.6582 105.701 19.8734 105.941 19.2194C106.051 18.9747 106.106 18.6793 106.106 18.3249V10.4346H110.228V19.443Z" fill="#000000"/>
    <path d="M117.173 10.4393H113.047V23.7052H117.173V10.4393Z" fill="#000000"/>
    <path d="M115.085 8.70082C113.701 8.70082 112.806 7.72614 112.806 6.50251C112.806 5.25356 113.73 4.3042 115.139 4.3042C116.549 4.3042 117.418 5.25356 117.443 6.50251C117.443 7.72192 116.549 8.70082 115.11 8.70082H115.085Z" fill="#000000"/>
    <path d="M137.009 15.5362C137.009 14.5615 136.574 12.8485 134.7 12.8485C132.937 12.8485 132.232 14.4476 132.122 15.5362H137.009ZM132.152 18.3548C132.287 20.0932 133.971 20.9033 135.895 20.9033C137.304 20.9033 138.443 20.7134 139.557 20.3337L140.101 23.1269C138.743 23.6966 137.089 23.9666 135.3 23.9666C130.798 23.9666 128.219 21.3632 128.219 17.186C128.219 13.8231 130.333 10.1058 134.92 10.1058C139.207 10.1058 140.831 13.4434 140.831 16.7261C140.831 17.4307 140.751 18.0552 140.696 18.3801L132.152 18.3548Z" fill="#000000"/>
    <path d="M144.245 10.4137V10.8061H143.304V13.477H142.84V10.8061H141.907V10.4137H144.245ZM147.211 13.4812L147.089 11.6331C147.072 11.3926 147.089 11.1015 147.08 10.8019H147.059C146.983 11.0888 146.891 11.4095 146.798 11.6795L146.156 13.4432H145.802L145.177 11.6331C145.102 11.3884 145.026 11.0846 144.954 10.8019H144.929C144.92 11.093 144.929 11.3546 144.912 11.6331L144.798 13.4812H144.35L144.587 10.4137H145.194L145.793 12.0761C145.869 12.3082 145.933 12.5614 146.009 12.8483H146.026C146.093 12.5614 146.165 12.2955 146.241 12.0719L146.84 10.4137H147.439L147.671 13.4812H147.211Z" fill="#000000"/>
    <path d="M3.04657 8.41883C3.04235 10.1024 4.401 11.4695 6.08454 11.4737C7.76386 11.4779 9.13517 10.1192 9.13939 8.43571C9.14361 8.11925 9.0972 7.81967 9.00859 7.53275C8.76808 8.0644 8.23644 8.43149 7.61619 8.43149C6.7723 8.43149 6.09298 7.74372 6.0972 6.90406C6.0972 6.28381 6.46851 5.75638 7.00015 5.5201C6.71745 5.43149 6.41365 5.38086 6.10142 5.38086C4.42209 5.37664 3.05079 6.73529 3.04657 8.41883Z" fill="#000000"/>
    <path d="M12.1858 8.44415C12.1816 10.1277 13.5402 11.4948 15.2238 11.499C16.9031 11.5074 18.2744 10.1446 18.2786 8.4568C18.2828 6.77326 16.9242 5.40617 15.2407 5.40195C14.9242 5.40195 14.6246 5.44837 14.3377 5.53697C14.8693 5.77748 15.2364 6.30913 15.2364 6.92938C15.2322 7.77326 14.5487 8.45258 13.709 8.44837C13.093 8.44837 12.5613 8.07706 12.325 7.54541C12.2364 7.82811 12.1858 8.13191 12.1858 8.44415Z" fill="#000000"/>
    <path fill-rule="evenodd" clip-rule="evenodd" d="M10.6878 2.53248e-05C12.6246 0.00846414 14.4347 0.531671 16.0001 1.43884C17.5655 0.540109 19.3756 0.0253418 21.3123 0.0295612V32C9.54438 31.9705 -0.0336663 22.4641 8.89478e-05 10.6878V0.0295612C1.93258 0.0253418 3.74692 0.540109 5.31232 1.43884C6.8946 0.519012 8.73004 -0.00419408 10.6878 2.53248e-05ZM10.6837 8.03486C10.8989 5.70153 12.8609 3.87453 15.2449 3.88297C17.7681 3.89141 19.8103 5.94204 19.8018 8.46524C19.7976 10.9884 17.7428 13.0306 15.2196 13.0222C14.325 13.018 13.4896 12.7522 12.785 12.3049L10.6457 14.4273L8.51914 12.2922C7.8145 12.7395 6.97906 13.0011 6.08032 12.9969C3.55712 12.9927 1.51492 10.9378 1.52336 8.41461C1.5318 5.89141 3.58243 3.84921 6.10142 3.85765C8.4896 3.86609 10.4432 5.70153 10.6415 8.03486L10.6626 8.00533L10.6837 8.03486Z" fill="#000000"/>
</svg>
