<svg width="100%" height="100%" viewBox="0 0 173 61" fill="none" xmlns="http://www.w3.org/2000/svg">
    <polygon id="Shape" fill="#000000"
             points="74.3002076 43.8542157 74.3002076 16.942451 80.2145329 16.942451 80.2145329 28.1078431 89.2416609 16.9783333 96.1496886 16.9783333 87.0387543 27.4559804 97.1314187 43.8542157 90.4329066 43.8542157 83.2076125 31.9293137 80.2145329 35.2484314 80.2145329 43.8542157"></polygon>
    <path d="M96.6764706,50.5821569 L97.8737024,46.0729412 C98.1490657,46.1447059 98.61,46.2463725 99.2624913,46.3839216 C100.017713,46.5301381 100.785997,46.5982752 101.55519,46.5872549 C102.090556,46.6118042 102.621349,46.4787141 103.081661,46.2045098 C103.524191,45.8793037 103.853009,45.4231674 104.021488,44.9007843 L104.39263,43.9618627 L96.9757785,24.4717647 L103.015813,24.4717647 L107.277958,37.0305882 L107.349792,37.0305882 L111.629896,24.4717647 L117.32872,24.4717647 L109.181557,45.8935294 C108.878364,46.672687 108.509906,47.4248976 108.080104,48.1421569 C107.69434,48.7755673 107.213884,49.3463151 106.655398,49.8346078 C106.096225,50.3158276 105.447219,50.6816851 104.745813,50.9110784 C103.922176,51.1646646 103.063413,51.285785 102.201696,51.269902 C101.037585,51.2927172 99.8737345,51.212667 98.723737,51.0306863 C97.8677163,50.8751961 97.1852941,50.7197059 96.6764706,50.5821569 Z"
          id="Shape" fill="#000000"></path>
    <path d="M120.609135,43.8542157 L120.609135,24.4717647 L126.475571,24.4717647 L126.475571,27.5098039 C126.784849,27.0831704 127.129253,26.6830871 127.50519,26.3137255 C127.938309,25.8984082 128.413814,25.5295953 128.92391,25.2133333 C129.477825,24.8694644 130.070603,24.5924321 130.689827,24.3880392 C131.375157,24.1619496 132.093233,24.0508055 132.814913,24.0591176 C134.443149,24.0591176 135.672307,24.3641176 136.502388,24.9741176 C137.346276,25.5889158 137.936025,26.4907665 138.160554,27.5098039 C138.459862,27.1569608 138.807059,26.7742157 139.214118,26.3615686 C139.653173,25.9285749 140.143706,25.5509874 140.67474,25.2372549 C141.238512,24.892045 141.841357,24.6150036 142.470588,24.4119608 C143.989076,23.9390121 145.620943,23.9768282 147.115848,24.5196078 C147.803215,24.7832561 148.418534,25.2053681 148.911696,25.7515686 C149.390546,26.2918032 149.744157,26.9309564 149.947301,27.6234314 C150.17637,28.399839 150.287356,29.2062281 150.27654,30.0155882 L150.27654,43.8542157 L144.41609,43.8542157 L144.41609,31.5465686 C144.459343,30.8551778 144.314551,30.1649761 143.997059,29.5491176 C143.721696,29.1005882 143.158997,28.8733333 142.308962,28.8733333 C141.60368,28.8692191 140.911245,29.0618369 140.309585,29.4295098 C139.640339,29.8312914 139.010943,30.2958752 138.429931,30.8169608 L138.429931,43.8542157 L132.563495,43.8542157 L132.563495,31.5465686 C132.605358,30.8559533 132.462815,30.1666246 132.15045,29.5491176 C131.8691,29.1005882 131.306401,28.8733333 130.450381,28.8733333 C129.737436,28.8682416 129.037044,29.0607674 128.427059,29.4295098 C127.753889,29.833809 127.118757,30.2981897 126.529446,30.8169608 L126.529446,43.8542157 L120.609135,43.8542157 Z"
          id="Shape" fill="#000000"></path>
    <path d="M154.335156,38.902451 C154.291544,36.7529607 155.422386,34.7501126 157.286332,33.6755882 C159.249792,32.415719 162.364591,31.6183333 166.630727,31.2834314 L166.630727,30.8169608 C166.661809,30.1925008 166.446935,29.5807011 166.032111,29.112549 C165.47979,28.628858 164.75174,28.3950675 164.020761,28.4666667 C162.839886,28.455157 161.66894,28.6830172 160.57872,29.1364706 C159.528975,29.5785685 158.545822,30.1642688 157.657474,30.8767647 L155.173218,27.5098039 C155.699389,27.056529 156.25535,26.6389611 156.83737,26.259902 C157.499325,25.826022 158.200826,25.4555855 158.932526,25.1535294 C159.784291,24.8069427 160.668674,24.5464915 161.572422,24.3760784 C162.655544,24.1704243 163.756366,24.0722671 164.858824,24.0830392 C167.520669,24.0830392 169.43624,24.7249346 170.605536,26.0087255 C171.774833,27.2925163 172.35549,29.1883007 172.347509,31.6960784 L172.347509,39.1356863 C172.338085,40.0921147 172.380048,41.0483592 172.473218,42.0002941 C172.530865,42.6345395 172.673824,43.2581278 172.898235,43.8542157 L167.073702,43.8542157 C166.953979,43.4415686 166.852215,43.005 166.762422,42.5385294 C166.669882,42.0355634 166.625783,41.5248977 166.630727,41.0135294 C165.809394,41.9774497 164.804118,42.7682907 163.673564,43.339902 C162.486524,43.8930086 161.1878,44.1651914 159.878339,44.1352941 C159.150078,44.1403023 158.425988,44.0251253 157.735294,43.7944118 C157.08621,43.5731834 156.486423,43.2278764 155.969377,42.7777451 C155.451434,42.3242214 155.042254,41.7600976 154.772145,41.1271569 C154.47003,40.424995 154.321063,39.6666047 154.335156,38.902451 Z M160.057924,37.8917647 C160.01849,38.4276174 160.241644,38.9492945 160.65654,39.2911765 C161.107617,39.617456 161.656763,39.7799309 162.212941,39.7516667 C163.110723,39.7762076 164.003748,39.6132553 164.834879,39.2732353 C165.504855,38.9935149 166.114591,38.5874162 166.630727,38.0771569 L166.630727,34.4889216 C164.308097,34.7281373 162.631972,35.1268301 161.602353,35.685 C160.572734,36.2431699 160.057924,36.9787582 160.057924,37.8917647 Z"
          id="Shape" fill="#000000"></path>
    <path d="M43.1482353,60.6232353 L20.0356747,60.6232353 C18.50745,60.6272481 17.0611508,59.933429 16.1087543,58.7394118 L1.69408304,40.6666667 C0.738332552,39.4737214 0.381111508,37.9096313 0.72432526,36.4205882 L5.87242215,13.9044118 C6.20724024,12.4133915 7.2092674,11.1587567 8.59013841,10.5015686 L29.41,0.502352941 C30.7874173,-0.167303269 32.3964928,-0.167303269 33.77391,0.502352941 L54.5997578,10.5195098 C55.9772309,11.1809666 56.9777354,12.4336948 57.317474,13.9223529 L62.4595848,36.4385294 C62.8027985,37.9275725 62.4455775,39.4916626 61.489827,40.6846078 L47.0751557,58.7394118 C46.1227592,59.933429 44.6764601,60.6272481 43.1482353,60.6232353 Z M30.3318685,2.39215686 L9.50602076,12.4212745 C8.70726337,12.8046138 8.12747697,13.5314016 7.9316609,14.3948039 L2.78955017,36.905 C2.59038781,37.7671699 2.79775456,38.6729744 3.35224913,39.3629412 L17.7609343,57.4117647 C18.310124,58.1069432 19.149224,58.5106468 20.0356747,58.5061765 L43.1482353,58.5061765 C44.0346861,58.5106468 44.873786,58.1069432 45.4229758,57.4117647 L59.8615917,39.3629412 C60.4148108,38.6723539 60.6200389,37.7662516 60.4183045,36.905 L55.2522491,14.3948039 C55.0564331,13.5314016 54.4766467,12.8046138 53.6778893,12.4212745 L32.8520415,2.39215686 C32.0570063,2.00357674 31.1269037,2.00357674 30.3318685,2.39215686 Z"
          id="Shape" fill="#000000"></path>
    <path d="M14.4206574,23.4072549 L14.4206574,36.2710784 C15.2881862,35.8285193 16.2480959,35.5969695 17.2221799,35.5952941 L19.9758131,35.5952941 C23.6785479,35.689371 27.3003995,34.5043731 30.2301038,32.2402941 C29.4818339,31.5764706 28.7515225,30.8947059 28.0511419,30.224902 C24.5432526,26.869902 20.8497924,23.6943137 14.4206574,23.4072549 Z"
          id="Shape" fill="#000000"></path>
    <path d="M48.7632526,23.5208824 C42.4418685,23.8318627 39.113564,26.977549 35.5937024,30.3026471 C31.780519,33.9327451 27.8176817,37.6764706 19.9758131,37.6764706 L17.2221799,37.6764706 C15.6949254,37.692652 14.4607991,38.9255894 14.4446021,40.4513725 L14.4446021,43.9738235 L48.7632526,43.9738235 L48.7632526,23.5208824 Z"
          id="Shape" fill="#000000"/>
    <path d="M30.9185121,22.235098 C27.9912803,19.4362745 25.0580623,16.6434314 19.1976125,16.6434314 L19.1976125,22.1992157 C21.6852747,22.9204054 23.9937875,24.1550441 25.9739446,25.8233333 C27.8159748,24.9194942 29.4885728,23.7057025 30.9185121,22.235098 Z"
          id="Shape" fill="#000000"/>
    <path d="M43.0644291,17.6122549 C38.1976817,17.8873529 35.6296194,20.3333333 32.9238754,22.9288235 C31.3350993,24.5833211 29.5215263,26.0066109 27.5363322,27.1569608 C28.1349481,27.7191176 28.7634948,28.2932353 29.3621107,28.8673529 C30.1283391,29.5969608 30.9185121,30.3385294 31.7266436,31.0442157 C32.5587197,30.3205882 33.3668512,29.5610784 34.186955,28.7896078 C36.7191003,26.397451 39.3350519,23.9454902 43.0764014,22.5640196 L43.0644291,17.6122549 Z"
          id="Shape" fill="#000000"/>
</svg>
