<?xml version="1.0" encoding="UTF-8"?>
<svg width="222px" height="39px" viewBox="0 0 222 39" version="1.1" xmlns="http://www.w3.org/2000/svg" xmlns:xlink="http://www.w3.org/1999/xlink">
    <defs>
        <polygon id="path-1" points="0 0.4393 38.4278 0.4393 38.4278 38.8673 0 38.8673"></polygon>
    </defs>
    <g id="Styleguide" stroke="none" stroke-width="1" fill="none" fill-rule="evenodd">
        <g id="Group-15">
            <g id="Group-14">
                <g id="Group-12">
                    <g id="Group-13">
                        <mask id="mask-2" fill="white">
                            <use xlink:href="#path-1"></use>
                        </mask>
                        <g id="Clip-12"></g>
                        <path d="M19.2138,37.4523 C9.3858,37.4523 1.4148,29.4823 1.4148,19.6533 C1.4148,9.8253 9.3858,1.8543 19.2138,1.8543 C29.0418,1.8543 37.0128,9.8253 37.0128,19.6533 C37.0128,29.4823 29.0418,37.4523 19.2138,37.4523 M19.2138,0.4393 C8.6048,0.4393 -0.0002,9.0433 -0.0002,19.6533 C-0.0002,30.2633 8.6048,38.8673 19.2138,38.8673 C29.8228,38.8673 38.4278,30.2633 38.4278,19.6533 C38.4278,9.0433 29.8228,0.4393 19.2138,0.4393" id="Fill-11" fill="#000000" mask="url(#mask-2)"></path>
                    </g>
                    <path d="M15.2099,21.3244 L16.8409,22.9514 L10.3119,29.4974 C9.9709,29.8394 9.3249,29.7524 8.8759,29.3044 C8.4279,28.8574 8.3389,28.2124 8.6799,27.8704 L15.2099,21.3244 Z M21.4489,25.3884 L17.0089,20.6784 C16.6779,20.3274 16.7839,19.6844 17.2449,19.2504 C17.7069,18.8144 18.3489,18.7534 18.6859,19.0974 L25.2309,25.8074 C25.6779,26.2644 25.3099,27.7254 24.4389,27.7184251 L16.2639,27.6484 C15.7919,27.6454 15.4109,27.1244 15.4158513,26.4904 C15.4209,25.8564 15.8109,25.3414 16.2819,25.3454 L21.4489,25.3884 Z M24.6369,19.5614 L29.4519,19.5614 C30.0719,19.5614 30.5789,19.9704 30.5789,20.4694 L30.5789,20.9214 C30.5789,21.4204 30.0719,21.8284 29.4519,21.8284 L24.6369,21.8284 L23.9619,21.8284 L23.2759,21.8284 C22.7779,21.8284 22.3689,21.3534 22.3689,20.7744 L22.3689,17.5264 L24.6369,15.1684 L24.6369,19.5614 Z M14.1449,14.5144 C13.6949,14.9404 13.0459,14.9944 12.7029,14.6324 L12.3909,14.3034 C12.0469,13.9424 12.1339,13.2974 12.5839,12.8714 C14.0849,11.4454 15.5589,10.0454 17.0629,8.6184 C17.2189,8.4704 17.4229,8.3974 17.6379,8.3964 C17.9409,8.3454 18.2429,8.4304 18.4419,8.6504 C19.8239,10.1844 21.1959,11.7084 22.5759,13.2404 C22.9909,13.7004 23.0269,14.3504 22.6569,14.6844 L22.3199,14.9884 C21.9489,15.3224 21.3069,15.2184 20.8929,14.7584 L17.6419,11.2024 L14.1449,14.5144 Z M27.1479,14.6594 C28.5349,14.6594 29.6609,13.5344 29.6609,12.1474 C29.6609,10.7604 28.5349,9.6364 27.1479,9.6364 C25.7619,9.6364 24.6369,10.7604 24.6369,12.1474 C24.6369,13.5344 25.7619,14.6594 27.1479,14.6594 L27.1479,14.6594 Z" id="Fill-14" fill="#000000"></path>
                </g>
            </g>
            <text id="OrderMyGear" font-family="Avenir-Heavy, Avenir" font-size="22" font-weight="600" letter-spacing="0.578947368" fill="#000000">
                <tspan x="47" y="27">ORDER</tspan>
                <tspan x="126.080737" y="27" font-family="Avenir-Roman, Avenir" font-weight="normal">MY</tspan>
                <tspan x="160.260632" y="27">GEAR</tspan>
            </text>
        </g>
    </g>
</svg>
