<svg width="173" height="48" viewBox="0 0 173 48" fill="none" xmlns="http://www.w3.org/2000/svg">
    <path d="M46.1656 23.7711V30.2706H42.8967V14.0108H49.0427C50.901 14.0108 52.3545 14.4334 53.4032 15.2783C54.4516 16.1233 54.976 17.3016 54.976 18.8127C54.976 19.6541 54.7559 20.3762 54.3155 20.9793C53.8751 21.5823 53.2297 22.07 52.3788 22.4422C53.3415 22.7251 54.0337 23.1979 54.4555 23.8604C54.877 24.5231 55.088 25.342 55.088 26.3173V27.5122C55.088 27.9663 55.1495 28.441 55.2727 28.936C55.3958 29.4312 55.6066 29.7979 55.9052 30.036V30.2706H52.5355C52.2369 30.0324 52.0429 29.634 51.9534 29.0757C51.8638 28.5173 51.8191 27.9888 51.8191 27.4899V26.3397C51.8191 25.5283 51.5969 24.8973 51.153 24.4468C50.7089 23.9964 50.0839 23.7711 49.2778 23.7711H46.1656ZM46.1656 21.2584H48.9868C49.9047 21.2584 50.5894 21.0649 51.041 20.6778C51.4925 20.2907 51.7183 19.7174 51.7183 18.958C51.7183 18.2136 51.4925 17.6217 51.041 17.1824C50.5894 16.7432 49.9233 16.5235 49.0428 16.5235H46.1657V21.2584H46.1656Z" fill="#000000"/>
    <path d="M64.8947 30.2706C64.7753 29.9952 64.6725 29.7049 64.5869 29.3995C64.501 29.0944 64.4394 28.7816 64.4022 28.4615C64.0663 29.0496 63.6242 29.5374 63.0756 29.9244C62.5271 30.3114 61.8722 30.505 61.1109 30.505C59.842 30.505 58.8644 30.1794 58.1778 29.5278C57.4911 28.8765 57.1479 27.9887 57.1479 26.8644C57.1479 25.6806 57.605 24.7631 58.5193 24.1116C59.4334 23.4603 60.7676 23.1344 62.5215 23.1344H64.3463V22.1742C64.3463 21.5935 64.1932 21.1431 63.8872 20.8229C63.5811 20.5029 63.1297 20.3427 62.5326 20.3427C62.0026 20.3427 61.594 20.4711 61.3068 20.728C61.0194 20.9848 60.8758 21.3404 60.8758 21.7945L57.7189 21.7833L57.7077 21.7162C57.6554 20.6964 58.0995 19.8161 59.0399 19.0752C59.9802 18.3345 61.2153 17.964 62.7454 17.964C64.1933 17.964 65.3687 18.3307 66.2718 19.064C67.1747 19.7975 67.6264 20.8416 67.6264 22.1965V27.1884C67.6264 27.7542 67.6692 28.2866 67.7551 28.7853C67.8408 29.2842 67.9771 29.7792 68.1637 30.2705L64.8947 30.2706ZM61.9057 28.0929C62.4803 28.0929 62.9916 27.9515 63.4394 27.6686C63.8872 27.3858 64.1895 27.0582 64.3462 26.6858V24.9772H62.5214C61.8274 24.9772 61.3012 25.1503 60.9429 25.4965C60.5847 25.8427 60.4056 26.2615 60.4056 26.7529C60.4056 27.1549 60.5399 27.4788 60.8086 27.7245C61.0773 27.9701 61.4428 28.0929 61.9057 28.0929Z" fill="#000000"/>
    <path d="M76.6494 26.9427C76.6494 26.5853 76.4759 26.2764 76.1289 26.0158C75.7818 25.7553 75.1381 25.5244 74.1977 25.3234C72.7648 25.0331 71.6845 24.6031 70.9568 24.0336C70.2291 23.4641 69.8653 22.6879 69.8653 21.7052C69.8653 20.663 70.3037 19.7788 71.1807 19.0529C72.0576 18.3269 73.2311 17.9641 74.7015 17.9641C76.2464 17.9641 77.476 18.3252 78.3903 19.0473C79.3044 19.7696 79.743 20.6816 79.7057 21.7833L79.6833 21.8503H76.5264C76.5264 21.3665 76.3714 20.972 76.0617 20.6666C75.752 20.3615 75.2986 20.2087 74.7015 20.2087C74.1715 20.2087 73.7556 20.3371 73.4532 20.594C73.1509 20.8508 72.9998 21.1729 72.9998 21.5599C72.9998 21.9323 73.1582 22.2375 73.4756 22.4756C73.7928 22.714 74.4365 22.9262 75.4068 23.1122C76.8994 23.4101 78.0077 23.8475 78.7317 24.4244C79.4555 25.0014 79.8176 25.7962 79.8176 26.8086C79.8176 27.8957 79.3511 28.7835 78.4182 29.472C77.4851 30.1608 76.2536 30.505 74.7238 30.505C73.1118 30.505 71.8372 30.0974 70.9007 29.2822C69.964 28.467 69.5181 27.5384 69.5629 26.4959L69.5853 26.4289H72.5743C72.5967 27.0766 72.8095 27.5457 73.2125 27.836C73.6155 28.1263 74.1416 28.2715 74.7909 28.2715C75.3955 28.2715 75.8562 28.1524 76.1735 27.9141C76.4908 27.6761 76.6494 27.3522 76.6494 26.9427Z" fill="#000000"/>
    <path d="M92.8485 24.564C92.8485 26.3508 92.4343 27.7878 91.6059 28.8746C90.7775 29.9617 89.6205 30.5051 88.1354 30.5051C87.501 30.5051 86.9376 30.3878 86.445 30.1533C85.9524 29.9188 85.5307 29.5745 85.1799 29.1203V34.9162H81.9222V18.1874H84.8665L85.0568 19.6168C85.415 19.0883 85.846 18.6807 86.3498 18.394C86.8536 18.1075 87.4413 17.9641 88.113 17.9641C89.6131 17.9641 90.7774 18.5486 91.6059 19.7174C92.4342 20.8863 92.8485 22.4237 92.8485 24.3296V24.564ZM89.5796 24.3129C89.5796 23.172 89.3893 22.2476 89.0087 21.5392C88.6281 20.831 88.046 20.4767 87.2623 20.4767C86.7697 20.4767 86.3499 20.5774 86.0029 20.7787C85.6558 20.9801 85.3815 21.2672 85.1801 21.6399V26.9411C85.3816 27.2842 85.6559 27.545 86.0029 27.7241C86.3499 27.9031 86.777 27.9924 87.2847 27.9924C88.0756 27.9924 88.6561 27.683 89.0256 27.0641C89.395 26.4454 89.5797 25.6066 89.5797 24.5478V24.3129H89.5796Z" fill="#000000"/>
    <path d="M105.79 24.564C105.79 26.3658 105.387 27.8064 104.581 28.8858C103.775 29.9654 102.611 30.5051 101.088 30.5051C100.386 30.5051 99.7726 30.358 99.2465 30.064C98.7203 29.7701 98.2743 29.3401 97.9087 28.7742L97.6624 30.2707H94.8636V12.8493H98.1214V19.4716C98.4721 18.9878 98.892 18.6156 99.3808 18.3548C99.8695 18.0944 100.431 17.964 101.066 17.964C102.603 17.964 103.775 18.543 104.581 19.7005C105.387 20.8583 105.79 22.4012 105.79 24.3294V24.564ZM102.532 24.33C102.532 23.1468 102.359 22.2087 102.012 21.516C101.665 20.8232 101.073 20.4767 100.237 20.4767C99.7295 20.4767 99.3005 20.5835 98.9498 20.7969C98.5989 21.0104 98.3228 21.3156 98.1214 21.7125V26.8577C98.3229 27.2249 98.6008 27.5056 98.9553 27.7003C99.3097 27.895 99.7446 27.9924 100.26 27.9924C101.103 27.9924 101.693 27.6947 102.028 27.0994C102.364 26.5041 102.532 25.6595 102.532 24.566V24.33Z" fill="#000000"/>
    <path d="M113.167 30.5051C111.421 30.5051 110.025 29.9468 108.98 28.83C107.935 27.7132 107.413 26.295 107.413 24.5752V24.1285C107.413 22.3344 107.907 20.8565 108.897 19.6951C109.885 18.5337 111.212 17.9568 112.876 17.9641C114.511 17.9641 115.78 18.4555 116.683 19.4382C117.586 20.421 118.037 21.7499 118.037 23.425V25.2007H110.805L110.783 25.2673C110.843 26.0609 111.109 26.7135 111.583 27.2251C112.057 27.7367 112.701 27.9925 113.514 27.9925C114.238 27.9925 114.839 27.9198 115.317 27.7747C115.794 27.6295 116.317 27.4006 116.884 27.0879L117.769 29.103C117.276 29.5068 116.63 29.8416 115.832 30.107C115.033 30.3723 114.145 30.5051 113.167 30.5051ZM112.876 20.4767C112.272 20.4767 111.794 20.7076 111.443 21.1691C111.092 21.6308 110.876 22.2375 110.794 22.9894L110.828 23.0452H114.835V22.7548C114.835 22.0625 114.673 21.5096 114.348 21.0964C114.024 20.6833 113.533 20.4767 112.876 20.4767Z" fill="#000000"/>
    <path d="M126.31 20.9904L125.112 20.9569C124.627 20.9569 124.228 21.0575 123.915 21.2584C123.601 21.4595 123.362 21.7424 123.198 22.1072V30.2706H119.94V18.1874H122.974L123.12 19.9742C123.403 19.3414 123.771 18.8482 124.222 18.4945C124.674 18.141 125.194 17.9641 125.784 17.9641C125.948 17.9641 126.099 17.9772 126.237 18.0031C126.375 18.0292 126.515 18.0609 126.657 18.0981L126.31 20.9904Z" fill="#000000"/>
    <path d="M134.337 20.9904L133.139 20.9569C132.654 20.9569 132.255 21.0575 131.941 21.2584C131.628 21.4595 131.389 21.7424 131.225 22.1072V30.2706H127.967V18.1874H131.001L131.146 19.9742C131.43 19.3414 131.797 18.8482 132.249 18.4945C132.701 18.141 133.221 17.9641 133.811 17.9641C133.975 17.9641 134.126 17.9772 134.264 18.0031C134.402 18.0292 134.542 18.0609 134.684 18.0981L134.337 20.9904Z" fill="#000000"/>
    <path d="M140.673 25.2006L140.808 25.8706H140.875L143.192 18.1874H146.707L141.793 32.0798C141.449 32.9433 140.983 33.6711 140.393 34.263C139.804 34.8549 138.919 35.1509 137.74 35.1509C137.464 35.1509 137.209 35.1285 136.973 35.0838C136.738 35.0392 136.453 34.9758 136.117 34.894L136.498 32.5154C136.595 32.5302 136.699 32.5451 136.811 32.56C136.923 32.5748 137.024 32.5823 137.113 32.5823C137.651 32.5823 138.065 32.4501 138.356 32.1859C138.647 31.9215 138.871 31.592 139.028 31.1975L139.408 30.2595L135.109 18.1875H138.625L140.673 25.2006Z" fill="#000000"/>
    <path d="M157.264 24.3741V30.2706H153.995V14.0108H160.488C162.362 14.0108 163.836 14.4873 164.91 15.4402C165.985 16.3933 166.522 17.6477 166.522 19.2036C166.522 20.7597 165.985 22.0105 164.91 22.9559C163.836 23.9014 162.362 24.3741 160.488 24.3741H157.264ZM157.264 21.8615H160.488C161.399 21.8615 162.089 21.614 162.559 21.1188C163.03 20.6238 163.265 19.9928 163.265 19.2259C163.265 18.4442 163.031 17.7984 162.565 17.2884C162.099 16.7785 161.406 16.5234 160.488 16.5234H157.264V21.8615H157.264Z" fill="#000000"/>
    <path d="M172.098 15.295H168.829V12.8493H172.098V15.295ZM172.098 30.2706H168.829V18.1874H172.098V30.2706Z" fill="#000000"/>
    <path d="M34.9571 21.7922L34.611 21.1867C34.6247 16.8374 32.6017 15.0646 30.2427 13.7169C30.9565 13.5292 31.6936 13.3748 31.8957 12.4805C33.1222 12.1672 33.3789 11.6009 33.5019 11.0008C33.8226 10.7875 34.8963 10.1886 34.7838 9.15855C35.3848 8.74475 35.7201 8.2136 35.5496 7.4611C36.1957 6.75813 36.3657 6.17738 36.0914 5.64198C36.8669 4.68099 36.5228 4.18287 36.1917 3.67862C36.7726 2.62788 36.2601 1.50111 34.6362 1.68983C33.9906 0.743105 32.5825 0.958105 32.3647 0.962523C32.121 0.658702 31.7996 0.398362 30.8099 0.524541C30.169 -0.0456653 29.4523 0.0516813 28.7131 0.331785C27.8353 -0.348788 27.2546 0.196771 26.5911 0.402935C25.5285 0.0617569 25.2853 0.529191 24.7633 0.719466C23.6042 0.47889 23.252 1.00275 22.6964 1.55575L22.0502 1.54319C20.3021 2.55533 19.4337 4.61651 19.1259 5.676C18.8179 4.6162 17.9514 2.5551 16.2038 1.54319L15.5576 1.55575C15.0012 1.00275 14.6489 0.47889 13.49 0.719466C12.968 0.529191 12.7256 0.0618345 11.6622 0.402935C11.2267 0.267611 10.8262 -0.0138106 10.3546 0.000527818L10.3555 0.000915344C10.1084 0.00835585 9.8424 0.0979519 9.54071 0.332018C8.80135 0.0518363 8.08468 -0.0454328 7.44384 0.524696C6.45423 0.398517 6.13257 0.658857 5.88884 0.962678C5.67167 0.95826 4.26312 0.743338 3.61724 1.68999C1.99378 1.50118 1.48067 2.62811 2.06199 3.67877C1.73054 4.1831 1.38713 4.6813 2.16222 5.64252C1.88811 6.17793 2.05803 6.75875 2.70415 7.46165C2.53361 8.2143 2.86887 8.74529 3.46985 9.15917C3.35734 10.1891 4.4311 10.788 4.75175 11.0014C4.87483 11.6015 5.13145 12.1678 6.35789 12.4809C6.56005 13.3754 7.29715 13.5298 8.01095 13.7174C5.65186 15.0648 3.62897 16.8375 3.64264 21.1871L3.29697 21.7928C0.59214 23.4091 -1.84153 28.604 1.96402 32.8263C2.21265 34.1481 2.62949 35.0974 3.00064 36.148C3.55586 40.382 7.17913 42.3645 8.13487 42.599C9.53519 43.6471 11.0266 44.6415 13.045 45.3381C14.9476 47.2661 17.0087 48.0009 19.0813 47.9998C19.1117 47.9998 19.1426 48.0002 19.173 47.9998C21.2456 48.001 23.3068 47.2662 25.2093 45.3381C27.2276 44.6415 28.719 43.647 30.1195 42.599C31.0752 42.3645 34.6984 40.382 35.2537 36.148C35.6247 35.0974 36.0417 34.148 36.2902 32.8263C40.0958 28.6038 37.6622 23.4086 34.9571 21.7922ZM32.8749 21.0492C32.7338 22.8011 23.5812 14.9483 25.1613 14.6875C29.4501 13.976 33.0188 16.4795 32.8749 21.0492ZM28.8337 29.7791C26.5319 31.2609 23.2149 30.3045 21.4249 27.643C19.6349 24.9817 20.0498 21.6228 22.3517 20.141C24.6535 18.6592 27.9706 19.6156 29.7606 22.277C31.5505 24.9385 31.1356 28.2974 28.8337 29.7791ZM22.4534 2.74421C22.5327 3.13755 22.6224 3.38627 22.7249 3.45959C23.2336 2.91558 23.6494 2.35839 24.3044 1.83492C24.3065 2.14238 24.1489 2.47597 24.5389 2.71995C24.8901 2.24872 25.3648 1.8281 25.995 1.47103C25.6915 1.99334 25.9429 2.15192 26.1061 2.36831C26.5874 1.95653 27.0447 1.53947 27.9324 1.21651C27.6898 1.51134 27.3506 1.79919 27.7103 2.13789C28.2061 1.82919 28.7048 1.52079 29.8822 1.3013C29.617 1.59628 29.0684 1.89142 29.4009 2.18641C30.0233 1.94924 30.712 1.7771 31.474 1.67712C31.1091 1.97645 30.8049 2.26965 31.1038 2.50154C31.77 2.29709 32.6875 2.02186 33.5844 2.25911L33.0166 2.82893C32.9537 2.90527 34.3445 2.8883 35.2625 2.9017C34.9276 3.36596 34.5859 3.8141 34.3864 4.61139C34.4775 4.70324 34.9324 4.65224 35.3613 4.61139C34.9214 5.53502 34.1575 5.76808 33.9792 6.16343C34.248 6.36634 34.6208 6.31348 35.0282 6.17552C34.7115 6.82626 34.0474 7.2723 33.5226 7.80019C33.6554 7.89413 33.8871 7.95016 34.4358 7.88513C33.951 8.39907 33.3653 8.86906 32.671 9.29162C32.794 9.43322 33.2167 9.42772 33.6088 9.4371C32.9801 10.051 32.1708 10.3692 31.4124 10.7708C31.7904 11.0285 32.0608 10.9684 32.3502 10.9648C31.8138 11.4044 30.9017 11.6331 30.055 11.8984C30.2159 12.1482 30.3771 12.2163 30.7213 12.2865C29.8251 12.7812 28.5413 12.5551 28.1793 12.8079C28.2666 13.0565 28.5131 13.2184 28.8086 13.3535C27.3657 13.4371 23.4196 13.3011 22.6631 10.3222C24.1401 8.70344 26.8359 6.8037 31.4728 4.45421C27.8652 5.65864 24.61 7.26416 21.8858 9.47345C18.6825 7.98589 20.8907 4.23379 22.4534 2.74421ZM19.2202 13.4878V13.4877C21.4916 13.4632 24.304 15.153 24.2927 16.7451C24.2828 18.1505 22.3175 19.2881 19.2376 19.2665C16.2217 19.231 14.1907 17.8368 14.1979 16.4751C14.2039 15.3545 16.6605 13.4223 19.2202 13.4878ZM7.66256 12.2866C8.00675 12.2164 8.16789 12.1482 8.3288 11.8985C7.48215 11.6332 6.57 11.4044 6.03358 10.9649C6.32316 10.9685 6.59331 11.0286 6.97145 10.7709C6.21291 10.3693 5.40362 10.0511 4.77491 9.43718C5.16696 9.4278 5.58971 9.4333 5.71262 9.2917C5.01848 8.86922 4.43273 8.39915 3.94791 7.88521C4.49676 7.95024 4.72845 7.89428 4.86123 7.80027C4.33655 7.2723 3.67232 6.82634 3.35571 6.1756C3.76323 6.31356 4.13594 6.36642 4.40476 6.16351C4.22637 5.76816 3.46247 5.5351 3.02255 4.61147C3.45159 4.65231 3.9065 4.70331 3.99756 4.61147C3.79835 3.81448 3.45679 3.36635 3.12169 2.90209C4.03975 2.88876 5.43058 2.90566 5.36765 2.82931L4.80008 2.25942C5.69669 2.02217 6.61428 2.29755 7.28045 2.50193C7.5795 2.27011 7.27517 1.97676 6.91023 1.67735C7.67235 1.77741 8.36097 1.94955 8.98331 2.18672C9.31593 1.89158 8.76747 1.59652 8.50206 1.30153C9.67947 1.52095 10.1783 1.82934 10.674 2.13812C11.0337 1.79935 10.6946 1.51149 10.4518 1.21666C11.3396 1.5397 11.7969 1.95676 12.2782 2.36855C12.4415 2.15207 12.6929 1.9935 12.3893 1.47127C13.0195 1.82833 13.4941 2.24888 13.8455 2.72019C14.2354 2.4762 14.0778 2.14254 14.0799 1.835C14.7349 2.35862 15.1507 2.91573 15.6596 3.45974C15.762 3.3865 15.8518 3.13771 15.931 2.74437C17.4936 4.23402 19.7017 7.98597 16.4986 9.47368C13.7741 7.26602 10.5205 5.66089 6.91504 4.45661C11.5495 6.80456 14.2443 8.70437 15.7207 10.3222C14.9644 13.3011 11.0183 13.4371 9.57544 13.3535C9.87076 13.2184 10.1174 13.0565 10.2047 12.8079C9.84255 12.5552 8.55878 12.7812 7.66256 12.2866ZM13.3115 14.5534C14.8916 14.8143 5.73904 22.6669 5.5981 20.9152C5.45405 16.346 9.02239 13.8418 13.3115 14.5534ZM3.59362 32.0669C1.36926 30.3091 0.652821 25.1611 4.77662 22.8474C7.26172 22.1928 5.61566 32.9495 3.59362 32.0669ZM12.1459 41.2649C10.8913 42.0086 7.84483 41.7024 5.67944 38.6459C4.2193 36.0814 4.40733 33.4714 5.43276 32.7049C6.96609 31.7871 9.33512 33.0267 11.1586 35.1055C12.7474 36.9863 13.4717 40.2908 12.1459 41.2649ZM9.65686 30.0474C7.35504 28.5656 6.94006 25.2068 8.7301 22.5453C10.5201 19.884 13.8371 18.9275 16.1388 20.4094C18.4407 21.8911 18.8557 25.2499 17.0657 27.9113C15.2757 30.5727 11.9585 31.5292 9.65686 30.0474ZM19.27 46.5035C16.5105 46.6204 13.8049 44.2826 13.8403 43.4722C13.799 42.2841 17.2002 41.3565 19.418 41.411C21.6496 41.3152 24.6444 42.1173 24.6503 43.1812C24.6873 44.2142 21.9343 46.5485 19.27 46.5035ZM24.8005 34.7877C24.8167 37.5674 22.3426 39.8327 19.2745 39.8474C16.2066 39.8621 13.7062 37.6205 13.6901 34.8408C13.69 34.823 13.69 34.8054 13.6901 34.7877C13.674 32.0079 16.148 29.7425 19.2161 29.7279C22.2841 29.7132 24.7844 31.9548 24.8005 34.7346C24.8006 34.7523 24.8006 34.77 24.8005 34.7877ZM32.5296 38.7936C30.1518 42.0353 26.9327 42.1615 25.7337 41.2587C24.4795 40.0965 25.4369 36.4878 27.156 34.5093V34.5086C29.1232 32.3263 31.2264 30.9012 32.6914 32.0148C33.6775 32.9802 34.2561 36.6164 32.5296 38.7936ZM34.6796 31.9333C32.6575 32.8159 31.011 22.0589 33.4963 22.7133C37.6201 25.027 36.9038 30.1753 34.6796 31.9333Z" fill="#000000"/>
</svg>
