<svg width="149" height="32" viewBox="0 0 149 32" fill="none" xmlns="http://www.w3.org/2000/svg">
    <path fill-rule="evenodd" clip-rule="evenodd" d="M55.4238 15.2758L52.7153 14.6882C51.36 14.3944 50.6139 13.5584 50.6139 12.3335C50.6139 10.7767 51.9961 9.60231 53.8293 9.60231C56.366 9.60231 57.115 11.4686 57.2847 12.0414C57.3385 12.2317 57.4709 12.3931 57.6489 12.4821C57.8227 12.5711 58.0172 12.5843 58.2034 12.5193L59.6311 12.0157C59.8025 11.9548 59.9442 11.8308 60.0272 11.669C60.1103 11.5072 60.1284 11.3198 60.078 11.145C59.7097 9.84978 58.3565 6.83716 53.7672 6.83716C50.3698 6.83716 47.502 9.43596 47.502 12.5127C47.502 15.157 49.2371 17.1103 52.145 17.7434L54.7273 18.3062C56.2816 18.6331 57.2102 19.5808 57.2102 20.8388C57.2102 22.4444 55.8901 23.4417 53.7631 23.4417C51.2636 23.4417 50.0594 21.803 49.7656 20.2677C49.747 20.1687 49.7076 20.0748 49.65 19.9922C49.5924 19.9096 49.5179 19.8402 49.4314 19.7885C49.3449 19.7369 49.2485 19.7042 49.1484 19.6926C49.0484 19.6811 48.947 19.6909 48.851 19.7215L47.2826 20.2222C47.1178 20.2724 46.9773 20.3817 46.8879 20.529C46.7986 20.6764 46.7668 20.8515 46.7985 21.0209C47.2868 23.5659 49.3778 26.2805 53.7921 26.2805C57.5222 26.2805 60.3354 23.8514 60.3354 20.6319C60.3354 17.9131 58.5411 15.9598 55.4109 15.2688L55.4238 15.2758ZM71.4473 17.7517C71.4556 17.8055 71.4308 17.8469 71.4142 17.8634C71.4005 17.8804 71.3832 17.894 71.3635 17.9033C71.3438 17.9126 71.3222 17.9174 71.3004 17.9172H65.5483C65.5254 17.9172 65.5028 17.912 65.4822 17.902C65.4616 17.8919 65.4436 17.8773 65.4295 17.8593C65.4164 17.8441 65.407 17.8262 65.402 17.8068C65.3969 17.7874 65.3965 17.7671 65.4006 17.7475C65.6633 16.5483 66.6917 15.3391 68.3966 15.3391C70.0714 15.3391 71.2106 16.2371 71.4444 17.7447L71.4473 17.7517ZM68.3743 12.6534C65.3451 12.6534 62.2125 15.186 62.2125 19.4277C62.2125 21.4719 62.8829 23.2183 64.1533 24.4721C65.3302 25.635 66.9383 26.2764 68.6805 26.2764C71.2752 26.2764 73.3774 24.9207 74.3043 22.6513C74.3788 22.4651 74.3747 22.2582 74.2944 22.0761C74.2548 21.9878 74.1974 21.9085 74.1259 21.8433C74.0544 21.7781 73.9701 21.7283 73.8785 21.6971L72.6122 21.2584C72.4428 21.2002 72.2576 21.2081 72.0936 21.2804C71.9297 21.3527 71.7991 21.4842 71.7279 21.6486C71.1816 22.9356 70.1554 23.5853 68.678 23.5853C66.8903 23.5853 65.5288 22.3811 65.293 20.588C65.29 20.5679 65.2916 20.5475 65.2977 20.5281C65.3038 20.5088 65.3142 20.491 65.3281 20.4763C65.3447 20.4556 65.3819 20.4225 65.4399 20.4225H73.8338C74.2104 20.4225 74.5249 20.1287 74.5456 19.7538C74.5539 19.6337 74.558 19.5013 74.558 19.3706C74.558 15.2241 72.1868 12.6489 68.3714 12.6489L68.3743 12.6534ZM82.6676 22.7175C80.6523 22.7175 79.3985 21.3188 79.3985 19.0676C79.3985 16.8496 80.6813 15.4161 82.6676 15.4161C84.5919 15.4161 85.8847 16.881 85.8847 19.066C85.8847 21.2485 84.5911 22.7159 82.6672 22.7159L82.6676 22.7175ZM88.039 13.0341H86.5203C86.1272 13.0341 85.8065 13.354 85.8065 13.7666C85.8063 13.7958 85.7976 13.8243 85.7815 13.8485C85.7653 13.8728 85.7423 13.8918 85.7154 13.9032C85.6865 13.9156 85.6285 13.9321 85.5764 13.8825C84.7943 13.1674 83.6935 12.8045 82.3072 12.8045C78.8713 12.8045 76.3772 15.4405 76.3772 19.0697C76.3772 22.6832 78.8713 25.306 82.3072 25.306C83.5776 25.306 84.7281 24.8889 85.5474 24.1316C85.6012 24.0819 85.6592 24.0943 85.6881 24.1067C85.7088 24.115 85.7792 24.1523 85.7792 24.2433V24.7647C85.7792 27.289 84.6743 28.4663 82.3072 28.4663C80.805 28.4663 79.6256 27.5352 79.307 26.096C79.2656 25.9098 79.1539 25.7525 78.9925 25.6519C78.8311 25.5514 78.6366 25.5195 78.4504 25.5609L76.959 25.9044C76.7758 25.948 76.6171 26.0617 76.517 26.2211C76.4168 26.3806 76.3833 26.5729 76.4235 26.7568C76.9573 29.3722 79.3227 31.1309 82.3039 31.1309C84.5261 31.1309 86.2187 30.4543 87.336 29.1198C88.2588 28.0165 88.7471 26.485 88.7471 24.6906V13.7587C88.7471 13.3656 88.4285 13.047 88.0353 13.047L88.039 13.0341ZM106.094 12.6766C104.414 12.6766 103.047 13.3106 102.14 14.514C102.125 14.5362 102.104 14.5542 102.08 14.5661C102.056 14.578 102.029 14.5834 102.002 14.5818C101.982 14.5821 101.962 14.577 101.945 14.5672C101.927 14.5574 101.913 14.5432 101.902 14.526C101.142 13.3507 99.83 12.6762 98.3022 12.6762C97.0868 12.6762 95.9186 13.1032 95.0959 13.8494C95.0761 13.8701 95.0502 13.8841 95.022 13.8893C94.9938 13.8945 94.9646 13.8906 94.9387 13.8783C94.9133 13.8679 94.8917 13.8499 94.8769 13.8268C94.8621 13.8037 94.8548 13.7766 94.8559 13.7492C94.8559 13.3561 94.5356 13.0374 94.1425 13.0374H92.6999C92.3068 13.0374 91.9881 13.3561 91.9881 13.7492V25.1831C91.9881 25.5762 92.3084 25.8957 92.7016 25.8957H94.2203C94.6134 25.8957 94.9321 25.5746 94.9321 25.1814V18.2114C94.9321 16.5177 95.9666 15.3793 97.5102 15.3793C99.5296 15.3793 99.8317 16.9629 99.8317 17.9065V25.1938C99.8317 25.587 100.15 25.9056 100.543 25.9056H102.088C102.481 25.9056 102.8 25.5853 102.8 25.1922V18.1866C102.8 16.533 103.851 15.3784 105.353 15.3784C107.374 15.3784 107.675 16.9634 107.675 17.9069V25.1943C107.675 25.5874 107.993 25.906 108.387 25.906H109.905C110.298 25.906 110.617 25.5857 110.617 25.1926V17.6486C110.617 14.2222 108.345 12.6898 106.094 12.6898V12.6766ZM116.361 17.9271C116.338 17.9271 116.316 17.9219 116.295 17.912C116.275 17.9021 116.256 17.8878 116.242 17.87C116.23 17.855 116.221 17.8372 116.216 17.8181C116.211 17.7991 116.211 17.7792 116.215 17.76C116.478 16.5599 117.506 15.3515 119.213 15.3515C120.887 15.3515 122.027 16.2495 122.26 17.7558C122.268 17.8096 122.242 17.851 122.227 17.8676C122.212 17.883 122.194 17.8953 122.175 17.9038C122.155 17.9123 122.134 17.9169 122.113 17.9172H116.361V17.9271ZM119.187 12.6633C116.158 12.6633 113.026 15.1976 113.026 19.4376C113.026 21.4844 113.696 23.2294 114.965 24.4846C116.14 25.6474 117.746 26.2847 119.492 26.2847C122.082 26.2847 124.185 24.9273 125.116 22.6555C125.19 22.4692 125.186 22.2623 125.103 22.0803C125.021 21.8982 124.872 21.7658 124.685 21.6995L123.419 21.2617C123.067 21.1405 122.678 21.3114 122.534 21.6515C121.988 22.9352 120.962 23.5882 119.484 23.5882C117.697 23.5882 116.335 22.3815 116.099 20.588C116.096 20.5677 116.098 20.547 116.103 20.5272C116.109 20.5075 116.119 20.4893 116.133 20.4738C116.149 20.4531 116.186 20.4221 116.244 20.4221H124.641C125.017 20.4221 125.331 20.1283 125.352 19.7529C125.359 19.6329 125.365 19.5005 125.365 19.3681C125.365 15.2216 122.994 12.6435 119.178 12.6435L119.187 12.6633ZM134.404 12.6894C133.119 12.6894 131.992 13.1272 131.147 13.9557C131.127 13.9752 131.103 13.9884 131.076 13.9936C131.048 13.9988 131.021 13.9957 130.995 13.9847C130.969 13.9733 130.947 13.9545 130.932 13.9307C130.916 13.9069 130.908 13.879 130.908 13.8506V13.7596C130.908 13.3664 130.588 13.0478 130.195 13.0478H128.705C128.312 13.0478 127.992 13.3664 127.992 13.7596V25.1914C127.992 25.5845 128.31 25.9044 128.704 25.9044H130.247C130.64 25.9044 130.961 25.5837 130.961 25.1905V18.5168C130.961 17.0238 131.638 15.4281 133.539 15.4281C135.248 15.4281 136.116 16.3728 136.116 18.2359V25.1881C136.116 25.5812 136.434 25.8998 136.827 25.8998H138.371C138.764 25.8998 139.083 25.577 139.083 25.1839V17.8266C139.083 14.6567 137.288 12.6869 134.403 12.6869L134.404 12.6894ZM146.276 15.7856H148.076C148.469 15.7856 148.788 15.4649 148.788 15.0722V13.7587C148.788 13.3656 148.469 13.047 148.076 13.047H146.276C146.257 13.047 146.238 13.0432 146.22 13.0359C146.203 13.0287 146.187 13.018 146.173 13.0045C146.16 12.9911 146.149 12.9751 146.142 12.9575C146.135 12.94 146.131 12.9211 146.131 12.9021V9.87543C146.131 9.4823 145.81 9.16284 145.417 9.16284H144.076C143.683 9.16284 143.364 9.4823 143.364 9.87543V11.4397C143.364 12.1721 143.084 13.0465 141.755 13.0465H141.527C141.134 13.0465 140.815 13.3652 140.815 13.7583V15.0701C140.815 15.4633 141.135 15.7819 141.527 15.7819H143.021C143.101 15.7819 143.165 15.844 143.165 15.9267V22.2458C143.165 24.5797 144.587 26.0281 146.873 26.0281C147.51 26.0281 148.006 25.9371 148.245 25.8833C148.568 25.8088 148.795 25.5232 148.795 25.1881V23.9718C148.794 23.8718 148.773 23.7729 148.732 23.6815C148.692 23.5902 148.632 23.5084 148.558 23.4416C148.483 23.3748 148.396 23.3243 148.3 23.2935C148.205 23.2628 148.104 23.2523 148.005 23.263C147.844 23.2795 147.687 23.289 147.565 23.289C146.526 23.289 146.137 22.9083 146.137 21.8862V15.9272C146.137 15.8477 146.203 15.7831 146.282 15.7831" fill="#000000"/>
    <path fill-rule="evenodd" clip-rule="evenodd" d="M21.4881 21.8594H1.65528C0.740739 21.8594 0 21.1187 0 20.2041C0 19.2896 0.740739 18.5488 1.65528 18.5488H21.4881C22.4026 18.5488 23.1433 19.2896 23.1433 20.2041C23.1433 21.1187 22.4026 21.8594 21.4881 21.8594Z" fill="#000000"/>
    <path fill-rule="evenodd" clip-rule="evenodd" d="M17.2356 32C15.6201 32 14.0244 31.76 12.4932 31.2853C12.074 31.1554 11.7234 30.8643 11.5188 30.4759C11.3142 30.0876 11.2721 29.6339 11.402 29.2146C11.6726 28.3373 12.6021 27.849 13.4732 28.1221C14.6865 28.4987 15.952 28.689 17.2356 28.689C22.8524 28.689 27.7293 25.0846 29.3718 19.7174C29.4353 19.5096 29.5392 19.3163 29.6776 19.1487C29.8159 18.981 29.9859 18.8423 30.1779 18.7405C30.3699 18.6386 30.5801 18.5756 30.7964 18.5551C31.0128 18.5345 31.2311 18.5569 31.4388 18.6208C32.3128 18.8856 32.8044 19.8126 32.5371 20.6857C30.4663 27.4521 24.3169 32 17.2356 32Z" fill="#000000"/>
    <path fill-rule="evenodd" clip-rule="evenodd" d="M32.8158 13.45H12.9839C12.0693 13.45 11.3286 12.7093 11.3286 11.7947C11.3286 10.8802 12.0693 10.1395 12.9839 10.1395H32.8158C33.7304 10.1395 34.4711 10.8802 34.4711 11.7947C34.4711 12.7093 33.7304 13.45 32.8158 13.45Z" fill="#000000"/>
    <path fill-rule="evenodd" clip-rule="evenodd" d="M3.51736 13.4508C3.25847 13.4509 3.00318 13.3902 2.772 13.2736C2.54082 13.1571 2.34021 12.988 2.18627 12.7798C2.03233 12.5717 1.92936 12.3303 1.88563 12.0751C1.8419 11.82 1.85864 11.5581 1.9345 11.3106C4.00567 4.54458 10.155 0 17.2355 0C18.8523 0 20.448 0.240016 21.9779 0.715083C22.1856 0.779414 22.3785 0.88402 22.5457 1.02293C22.713 1.16183 22.8512 1.33232 22.9525 1.52465C23.0539 1.71698 23.1163 1.92738 23.1363 2.14385C23.1563 2.36032 23.1335 2.57861 23.0692 2.78626C23.005 2.99403 22.9005 3.1871 22.7617 3.35443C22.6228 3.52176 22.4523 3.66004 22.2599 3.76137C22.0675 3.8627 21.857 3.92508 21.6405 3.94494C21.4239 3.96479 21.2056 3.94174 20.998 3.87709C19.7855 3.50465 18.5192 3.31429 17.2355 3.31429C11.62 3.31429 6.74227 6.91867 5.09981 12.2859C4.996 12.6246 4.78633 12.9212 4.50159 13.1319C4.21686 13.3427 3.87204 13.4567 3.51777 13.457" fill="#000000"/>
    <path fill-rule="evenodd" clip-rule="evenodd" d="M28.7159 5.48694C28.7159 5.92595 28.5415 6.34698 28.2311 6.6574C27.9206 6.96783 27.4996 7.14223 27.0606 7.14223C26.6216 7.14223 26.2006 6.96783 25.8901 6.6574C25.5797 6.34698 25.4053 5.92595 25.4053 5.48694C25.4053 5.04793 25.5797 4.62691 25.8901 4.31648C26.2006 4.00605 26.6216 3.83166 27.0606 3.83166C27.4996 3.83166 27.9206 4.00605 28.2311 4.31648C28.5415 4.62691 28.7159 5.04793 28.7159 5.48694ZM9.0656 26.5148C9.0656 26.9539 8.89121 27.3749 8.58078 27.6853C8.27035 27.9957 7.84933 28.1701 7.41032 28.1701C6.97131 28.1701 6.55028 27.9957 6.23985 27.6853C5.92943 27.3749 5.75503 26.9539 5.75503 26.5148C5.75503 26.0758 5.92943 25.6548 6.23985 25.3444C6.55028 25.034 6.97131 24.8596 7.41032 24.8596C7.84933 24.8596 8.27035 25.034 8.58078 25.3444C8.89121 25.6548 9.0656 26.0758 9.0656 26.5148Z" fill="#000000"/>
</svg>
